<?xml version="1.0" standalone="no"?>
<!DOCTYPE svg PUBLIC "-//W3C//DTD SVG 20010904//EN"
 "http://www.w3.org/TR/2001/REC-SVG-20010904/DTD/svg10.dtd">
<svg version="1.0" xmlns="http://www.w3.org/2000/svg"
 width="700.000000pt" height="700.000000pt" viewBox="0 0 700.000000 700.000000"
 preserveAspectRatio="xMidYMid meet">
<metadata>
Created by potrace 1.11, written by Peter Selinger 2001-2013
</metadata>
<g transform="translate(0.000000,700.000000) scale(0.100000,-0.100000)"
fill="#000000" stroke="none">
<path d="M70 3500 l0 -3430 3430 0 3430 0 0 3430 0 3430 -3430 0 -3430 0 0
-3430z m6720 0 l0 -3290 -3290 0 -3290 0 0 3290 0 3290 3290 0 3290 0 0 -3290z"/>
<path d="M3647 5773 c-3 -10 -4 -814 -4 -1788 l2 -1770 50 1 c155 3 329 35
489 91 103 36 274 116 325 153 16 11 34 20 40 20 6 0 11 4 11 8 0 5 10 14 23
20 35 16 155 116 236 195 248 242 419 554 496 902 13 60 17 84 33 204 10 70 8
337 -3 416 -72 539 -348 991 -782 1283 -134 91 -344 185 -508 228 -16 4 -32 8
-35 9 -6 1 -85 16 -115 21 -39 6 -121 15 -187 19 -58 5 -67 3 -71 -12z"/>
<path d="M3257 4784 c-1 -1 -34 -4 -72 -8 -75 -7 -115 -13 -155 -22 -14 -3
-38 -8 -54 -11 -53 -9 -249 -79 -336 -121 -302 -144 -563 -384 -741 -682 -46
-76 -55 -95 -108 -213 -61 -136 -118 -350 -138 -517 -15 -125 -8 -390 12 -500
7 -39 15 -82 21 -120 3 -19 9 -42 14 -50 4 -8 10 -29 13 -47 10 -52 76 -221
123 -315 212 -425 576 -743 1013 -884 41 -13 84 -26 95 -28 12 -3 50 -11 86
-20 71 -17 183 -29 270 -30 l55 -1 0 1785 0 1785 -48 0 c-27 0 -49 0 -50 -1z"/>
</g>
</svg>
