<svg width="374" height="745" viewBox="0 0 374 745" fill="none" xmlns="http://www.w3.org/2000/svg">
<path d="M0.5 0H373.5V745H0.5V0Z" fill="black"/>
<path d="M64.0818 64.6515H0.5V128.233H64.0818V64.6515Z" fill="black"/>
<path fill-rule="evenodd" clip-rule="evenodd" d="M0 64.1515H64.5818V128.733H0V64.1515ZM1 65.1515V127.733H63.5818V65.1515H1Z" fill="#E7AD7A"/>
<path d="M58.9292 74.9567H5.65259V128.233H58.9292V74.9567Z" fill="black"/>
<path fill-rule="evenodd" clip-rule="evenodd" d="M5.15259 74.4567H59.4292V128.733H5.15259V74.4567ZM6.15259 75.4567V127.733H58.4292V75.4567H6.15259Z" fill="#E7AD7A"/>
<path d="M53.7765 85.2619H10.8052V128.233H53.7765V85.2619Z" fill="black"/>
<path fill-rule="evenodd" clip-rule="evenodd" d="M10.3052 84.7619H54.2765V128.733H10.3052V84.7619ZM11.3052 85.7619V127.733H53.2765V85.7619H11.3052Z" fill="#E7AD7A"/>
<path d="M49.268 94.279H15.3137V128.233H49.268V94.279Z" fill="black"/>
<path fill-rule="evenodd" clip-rule="evenodd" d="M14.8137 93.779H49.768V128.733H14.8137V93.779ZM15.8137 94.779V127.733H48.768V94.779H15.8137Z" fill="#E7AD7A"/>
<path d="M46.0477 101.364H19.1782V128.233H46.0477V101.364Z" fill="black"/>
<path fill-rule="evenodd" clip-rule="evenodd" d="M18.6782 100.864H46.5477V128.733H18.6782V100.864ZM19.6782 101.864V127.733H45.5477V101.864H19.6782Z" fill="#E7AD7A"/>
<path d="M42.8274 108.449H23.0427V128.233H42.8274V108.449Z" fill="black"/>
<path fill-rule="evenodd" clip-rule="evenodd" d="M22.5427 107.949H43.3274V128.733H22.5427V107.949ZM23.5427 108.949V127.733H42.3274V108.949H23.5427Z" fill="#E7AD7A"/>
<path d="M39.6069 114.889H26.2629V128.233H39.6069V114.889Z" fill="black"/>
<path fill-rule="evenodd" clip-rule="evenodd" d="M25.7629 114.389H40.1069V128.733H25.7629V114.389ZM26.7629 115.389V127.733H39.1069V115.389H26.7629Z" fill="#E7AD7A"/>
<path d="M31.9689 128.233C49.3486 128.233 63.4377 114.144 63.4377 96.7644C63.4377 79.3847 49.3486 65.2956 31.9689 65.2956C14.5891 65.2956 0.5 79.3847 0.5 96.7644C0.5 114.144 14.5891 128.233 31.9689 128.233Z" fill="black"/>
<path fill-rule="evenodd" clip-rule="evenodd" d="M31.9689 65.7956C14.8652 65.7956 1 79.6608 1 96.7644C1 113.868 14.8652 127.733 31.9689 127.733C49.0725 127.733 62.9377 113.868 62.9377 96.7644C62.9377 79.6608 49.0725 65.7956 31.9689 65.7956ZM0 96.7644C0 79.1085 14.3129 64.7956 31.9689 64.7956C49.6248 64.7956 63.9377 79.1085 63.9377 96.7644C63.9377 114.42 49.6248 128.733 31.9689 128.733C14.3129 128.733 0 114.42 0 96.7644Z" fill="#E7AD7A"/>
<path d="M58.2851 101.595C58.2851 116.312 46.4983 128.233 31.9688 128.233C17.4394 128.233 5.65259 116.312 5.65259 101.595C5.65259 86.8783 17.4394 74.9567 31.9688 74.9567C46.4983 74.9567 58.2851 86.8783 58.2851 101.595Z" fill="black"/>
<path fill-rule="evenodd" clip-rule="evenodd" d="M31.9688 75.4567C17.7212 75.4567 6.15259 87.1488 6.15259 101.595C6.15259 116.041 17.7212 127.733 31.9688 127.733C46.2165 127.733 57.7851 116.041 57.7851 101.595C57.7851 87.1488 46.2165 75.4567 31.9688 75.4567ZM5.15259 101.595C5.15259 86.6078 17.1577 74.4567 31.9688 74.4567C46.78 74.4567 58.7851 86.6078 58.7851 101.595C58.7851 116.582 46.78 128.733 31.9688 128.733C17.1577 128.733 5.15259 116.582 5.15259 101.595Z" fill="#E7AD7A"/>
<path d="M53.1325 106.748C53.1325 118.62 43.6514 128.233 31.9688 128.233C20.2862 128.233 10.8052 118.62 10.8052 106.748C10.8052 94.8755 20.2862 85.2619 31.9688 85.2619C43.6514 85.2619 53.1325 94.8755 53.1325 106.748Z" fill="black"/>
<path fill-rule="evenodd" clip-rule="evenodd" d="M31.9688 85.7619C20.5693 85.7619 11.3052 95.1447 11.3052 106.748C11.3052 118.35 20.5693 127.733 31.9688 127.733C43.3684 127.733 52.6325 118.35 52.6325 106.748C52.6325 95.1447 43.3684 85.7619 31.9688 85.7619ZM10.3052 106.748C10.3052 94.6063 20.0032 84.7619 31.9688 84.7619C43.9345 84.7619 53.6325 94.6063 53.6325 106.748C53.6325 118.889 43.9345 128.733 31.9688 128.733C20.0032 128.733 10.3052 118.889 10.3052 106.748Z" fill="#E7AD7A"/>
<path d="M48.624 111.256C48.624 120.64 41.16 128.233 31.9688 128.233C22.7777 128.233 15.3137 120.64 15.3137 111.256C15.3137 101.873 22.7777 94.279 31.9688 94.279C41.16 94.279 48.624 101.873 48.624 111.256Z" fill="black"/>
<path fill-rule="evenodd" clip-rule="evenodd" d="M31.9688 94.779C23.0626 94.779 15.8137 102.14 15.8137 111.256C15.8137 120.372 23.0626 127.733 31.9688 127.733C40.8751 127.733 48.124 120.372 48.124 111.256C48.124 102.14 40.8751 94.779 31.9688 94.779ZM14.8137 111.256C14.8137 101.605 22.4929 93.779 31.9688 93.779C41.4448 93.779 49.124 101.605 49.124 111.256C49.124 120.907 41.4448 128.733 31.9688 128.733C22.4929 128.733 14.8137 120.907 14.8137 111.256Z" fill="#E7AD7A"/>
<path d="M31.9689 128.233C39.3887 128.233 45.4037 122.218 45.4037 114.798C45.4037 107.379 39.3887 101.364 31.9689 101.364C24.5491 101.364 18.5342 107.379 18.5342 114.798C18.5342 122.218 24.5491 128.233 31.9689 128.233Z" fill="black"/>
<path fill-rule="evenodd" clip-rule="evenodd" d="M31.9689 101.864C24.8253 101.864 19.0342 107.655 19.0342 114.798C19.0342 121.942 24.8253 127.733 31.9689 127.733C39.1126 127.733 44.9037 121.942 44.9037 114.798C44.9037 107.655 39.1126 101.864 31.9689 101.864ZM18.0342 114.798C18.0342 107.103 24.273 100.864 31.9689 100.864C39.6649 100.864 45.9037 107.103 45.9037 114.798C45.9037 122.494 39.6649 128.733 31.9689 128.733C24.273 128.733 18.0342 122.494 18.0342 114.798Z" fill="#E7AD7A"/>
<path d="M32.291 128.233C37.7544 128.233 42.1833 123.804 42.1833 118.341C42.1833 112.878 37.7544 108.449 32.291 108.449C26.8276 108.449 22.3987 112.878 22.3987 118.341C22.3987 123.804 26.8276 128.233 32.291 128.233Z" fill="black"/>
<path fill-rule="evenodd" clip-rule="evenodd" d="M32.291 108.949C27.1038 108.949 22.8987 113.154 22.8987 118.341C22.8987 123.528 27.1038 127.733 32.291 127.733C37.4783 127.733 41.6833 123.528 41.6833 118.341C41.6833 113.154 37.4783 108.949 32.291 108.949ZM21.8987 118.341C21.8987 112.601 26.5515 107.949 32.291 107.949C38.0305 107.949 42.6833 112.601 42.6833 118.341C42.6833 124.08 38.0305 128.733 32.291 128.733C26.5515 128.733 21.8987 124.08 21.8987 118.341Z" fill="#E7AD7A"/>
<path d="M32.2909 128.233C35.9757 128.233 38.9628 125.246 38.9628 121.561C38.9628 117.877 35.9757 114.889 32.2909 114.889C28.606 114.889 25.6189 117.877 25.6189 121.561C25.6189 125.246 28.606 128.233 32.2909 128.233Z" fill="black"/>
<path fill-rule="evenodd" clip-rule="evenodd" d="M32.2909 115.389C28.8822 115.389 26.1189 118.153 26.1189 121.561C26.1189 124.97 28.8822 127.733 32.2909 127.733C35.6995 127.733 38.4628 124.97 38.4628 121.561C38.4628 118.153 35.6995 115.389 32.2909 115.389ZM25.1189 121.561C25.1189 117.6 28.3299 114.389 32.2909 114.389C36.2518 114.389 39.4628 117.6 39.4628 121.561C39.4628 125.522 36.2518 128.733 32.2909 128.733C28.3299 128.733 25.1189 125.522 25.1189 121.561Z" fill="#E7AD7A"/>
<path fill-rule="evenodd" clip-rule="evenodd" d="M304 62.9826H319.182L359.336 110.116V128.036L336.831 102.428L319.217 128.506H304V62.9826ZM336.149 101.652L335.971 101.449L329.142 93.2552L319.361 106.725L305.437 127.506H318.685L336.149 101.652ZM305 126.362V63.9826H318.72L358.336 110.484V125.383L336.735 100.804L329.488 92.1083L318.451 80.5779V106.286L305 126.362ZM319.451 104.899L328.465 92.4857L319.451 83.0687V104.899Z" fill="#E7AD7A"/>
<path fill-rule="evenodd" clip-rule="evenodd" d="M352.034 62.5H373.536V130.106H358.544L358.07 76.1186L345.449 93.6985L344.636 93.1153L359.043 73.0486L359.535 129.106H372.536V63.5H352.531L337.16 83.7706L336.364 83.1664L352.034 62.5Z" fill="#E7AD7A"/>
<path fill-rule="evenodd" clip-rule="evenodd" d="M184 127C200.845 127 214.5 113.345 214.5 96.5C214.5 79.6553 200.845 66 184 66C167.155 66 153.5 79.6553 153.5 96.5C153.5 113.345 167.155 127 184 127ZM184 128C201.397 128 215.5 113.897 215.5 96.5C215.5 79.103 201.397 65 184 65C166.603 65 152.5 79.103 152.5 96.5C152.5 113.897 166.603 128 184 128Z" fill="#E7AD7A"/>
<path fill-rule="evenodd" clip-rule="evenodd" d="M184 123.063C198.059 123.063 209.438 111.79 209.438 97.9063C209.438 84.0229 198.059 72.75 184 72.75C169.941 72.75 158.562 84.0229 158.562 97.9063C158.562 111.79 169.941 123.063 184 123.063ZM184 124.063C198.601 124.063 210.438 112.352 210.438 97.9063C210.438 83.4606 198.601 71.75 184 71.75C169.399 71.75 157.562 83.4606 157.562 97.9063C157.562 112.352 169.399 124.063 184 124.063Z" fill="#E7AD7A"/>
<path fill-rule="evenodd" clip-rule="evenodd" d="M184 115.75C194.334 115.75 202.688 107.496 202.688 97.3437C202.688 87.1917 194.334 78.9375 184 78.9375C173.666 78.9375 165.312 87.1917 165.312 97.3437C165.312 107.496 173.666 115.75 184 115.75ZM184 116.75C194.873 116.75 203.688 108.061 203.688 97.3437C203.688 86.6259 194.873 77.9375 184 77.9375C173.127 77.9375 164.312 86.6259 164.312 97.3437C164.312 108.061 173.127 116.75 184 116.75Z" fill="#E7AD7A"/>
<path fill-rule="evenodd" clip-rule="evenodd" d="M184 110.125C191.273 110.125 197.062 104.597 197.062 97.9062C197.062 91.2154 191.273 85.6875 184 85.6875C176.727 85.6875 170.938 91.2154 170.938 97.9062C170.938 104.597 176.727 110.125 184 110.125ZM184 111.125C191.767 111.125 198.062 105.207 198.062 97.9062C198.062 90.6057 191.767 84.6875 184 84.6875C176.233 84.6875 169.938 90.6057 169.938 97.9062C169.938 105.207 176.233 111.125 184 111.125Z" fill="#E7AD7A"/>
<path fill-rule="evenodd" clip-rule="evenodd" d="M215.495 98.3263L152.495 97.6631L152.505 96.6632L215.505 97.3264L215.495 98.3263Z" fill="#E7AD7A"/>
<path d="M211.051 97.9263C211.01 101.479 210.269 104.988 208.871 108.254C207.474 111.521 205.447 114.48 202.905 116.962C200.364 119.445 197.359 121.403 194.061 122.724C190.763 124.045 187.238 124.704 183.685 124.663C180.133 124.622 176.623 123.881 173.357 122.483C170.091 121.086 167.132 119.058 164.649 116.517C162.167 113.976 160.209 110.971 158.887 107.673C157.566 104.375 156.907 100.85 156.949 97.2971L184 97.6117L211.051 97.9263Z" fill="white"/>
<path fill-rule="evenodd" clip-rule="evenodd" d="M179.51 65.4686L191.241 126.781L190.259 126.969L178.929 67.7545L164.232 120.692L163.268 120.424L178.537 65.4288L179.51 65.4686Z" fill="#E7AD7A"/>
<path fill-rule="evenodd" clip-rule="evenodd" d="M176.199 126.767L189.699 66.0166L190.673 66.0043L204.173 120.252L203.202 120.494L190.215 68.3061L177.176 126.984L176.199 126.767Z" fill="#E7AD7A"/>
<path fill-rule="evenodd" clip-rule="evenodd" d="M166.081 122.804L180.143 72.1786L181.107 72.4463L167.044 123.071L166.081 122.804Z" fill="#E7AD7A"/>
<path fill-rule="evenodd" clip-rule="evenodd" d="M169.453 124.501L181.266 78.3759L182.234 78.624L170.422 124.749L169.453 124.501Z" fill="#E7AD7A"/>
<path fill-rule="evenodd" clip-rule="evenodd" d="M172.825 126.201L182.388 84.5756L183.362 84.7995L173.8 126.424L172.825 126.201Z" fill="#E7AD7A"/>
<path fill-rule="evenodd" clip-rule="evenodd" d="M194.762 125.296L185.762 84.796L186.738 84.579L195.738 125.079L194.762 125.296Z" fill="#E7AD7A"/>
<path fill-rule="evenodd" clip-rule="evenodd" d="M201.517 122.163L188.222 73.0055L189.187 72.7445L202.483 121.902L201.517 122.163ZM198.287 123.624L186.891 79.2358L187.859 78.9871L199.255 123.376L198.287 123.624Z" fill="#E7AD7A"/>
<path d="M213.397 98.2747C213.352 102.153 212.546 105.984 211.027 109.55C209.507 113.116 207.303 116.346 204.54 119.056C201.776 121.767 198.509 123.905 194.923 125.347C191.337 126.79 187.504 127.509 183.641 127.464C179.779 127.419 175.963 126.611 172.412 125.085C168.861 123.56 165.644 121.347 162.944 118.573C160.245 115.799 158.117 112.518 156.68 108.918C155.244 105.318 154.528 101.469 154.573 97.5905L183.985 97.9326L213.397 98.2747Z" fill="black"/>
<path fill-rule="evenodd" clip-rule="evenodd" d="M64.2706 338.659L2.5 338.659L2.5 400.43L64.2706 400.43L64.2706 338.659ZM1.5 337.659L1.5 401.43L65.2706 401.43L65.2706 337.659L1.5 337.659Z" fill="#E7AD7A"/>
<path fill-rule="evenodd" clip-rule="evenodd" d="M63.481 353.652L17.3244 339.198L2.87099 385.355L49.0276 399.808L63.481 353.652ZM16.6689 337.945L1.61785 386.01L49.683 401.061L64.7341 352.996L16.6689 337.945Z" fill="#E7AD7A"/>
<path fill-rule="evenodd" clip-rule="evenodd" d="M51.8125 349.935L14.9583 349.935L14.9583 388.283L51.8125 388.283L51.8125 349.935ZM13.9583 348.935L13.9583 389.283L52.8125 389.283L52.8125 348.935L13.9583 348.935Z" fill="#E7AD7A"/>
<path fill-rule="evenodd" clip-rule="evenodd" d="M187 338.159C169.879 338.159 156 352.039 156 369.159C156 386.28 169.879 400.159 187 400.159C204.121 400.159 218 386.28 218 369.159C218 352.039 204.121 338.159 187 338.159ZM155 369.159C155 351.486 169.327 337.159 187 337.159C204.673 337.159 219 351.486 219 369.159C219 386.833 204.673 401.159 187 401.159C169.327 401.159 155 386.833 155 369.159Z" fill="#E7AD7A"/>
<path fill-rule="evenodd" clip-rule="evenodd" d="M187 353.713C174.004 353.713 163.489 364.121 163.489 376.936C163.489 389.751 174.004 400.16 187 400.16C199.996 400.16 210.512 389.751 210.512 376.936C210.512 364.121 199.996 353.713 187 353.713ZM162.489 376.936C162.489 363.557 173.463 352.713 187 352.713C200.537 352.713 211.512 363.557 211.512 376.936C211.512 390.315 200.537 401.16 187 401.16C173.463 401.16 162.489 390.315 162.489 376.936Z" fill="#E7AD7A"/>
<path fill-rule="evenodd" clip-rule="evenodd" d="M187.288 370.418C178.899 370.418 172.129 377.092 172.129 385.289C172.129 393.485 178.899 400.159 187.288 400.159C195.676 400.159 202.447 393.485 202.447 385.289C202.447 377.092 195.676 370.418 187.288 370.418ZM171.129 385.289C171.129 376.523 178.364 369.418 187.288 369.418C196.212 369.418 203.447 376.523 203.447 385.289C203.447 394.054 196.212 401.159 187.288 401.159C178.364 401.159 171.129 394.054 171.129 385.289Z" fill="#E7AD7A"/>
<path fill-rule="evenodd" clip-rule="evenodd" d="M214.645 351.436L214.286 352.048V387.334H193.576L185.192 401.618L178.352 387.334H159.7L160.735 350.545L160.433 349.915L214.645 351.436ZM161.68 352.518L160.728 386.334H177.873L161.68 352.518ZM179.461 387.334L185.282 399.489L192.416 387.334H179.461ZM193.003 386.334H178.982L162.588 352.099L186.581 370.44L212.267 353.512L193.003 386.334ZM194.162 386.334H213.286V353.752L194.162 386.334ZM212.186 352.368L162.772 350.981L186.623 369.214L212.186 352.368Z" fill="#E7AD7A"/>
<path fill-rule="evenodd" clip-rule="evenodd" d="M340 399.659C356.845 399.659 370.5 386.004 370.5 369.159C370.5 352.315 356.845 338.659 340 338.659C323.155 338.659 309.5 352.315 309.5 369.159C309.5 386.004 323.155 399.659 340 399.659ZM340 400.659C357.397 400.659 371.5 386.556 371.5 369.159C371.5 351.763 357.397 337.659 340 337.659C322.603 337.659 308.5 351.763 308.5 369.159C308.5 386.556 322.603 400.659 340 400.659Z" fill="#E7AD7A"/>
<path fill-rule="evenodd" clip-rule="evenodd" d="M332.146 360.578L339.62 368.045L347.669 360.592L368.823 381.525L368.119 382.236L347.646 361.977L339.594 369.432L332.146 361.991L311.882 382.234L311.175 381.527L332.146 360.578Z" fill="#E7AD7A"/>
<path fill-rule="evenodd" clip-rule="evenodd" d="M331.803 376.332L339.697 384.179L347.591 376.332L362.158 390.61L361.458 391.324L347.596 377.737L339.697 385.589L331.798 377.737L317.937 391.324L317.237 390.61L331.803 376.332Z" fill="#E7AD7A"/>
<path fill-rule="evenodd" clip-rule="evenodd" d="M347.085 368.445L365.794 386.977L365.09 387.688L347.106 369.874L339.598 377.76L332.089 369.871L314.302 387.286L313.602 386.571L332.114 368.447L339.598 376.309L347.085 368.445Z" fill="#E7AD7A"/>
<path fill-rule="evenodd" clip-rule="evenodd" d="M331.768 392.063L339.617 399.959L347.834 392.086L353.073 397.275L352.369 397.986L347.822 393.482L339.6 401.36L331.792 393.506L327.645 397.971L326.912 397.29L331.768 392.063Z" fill="#E7AD7A"/>
<path fill-rule="evenodd" clip-rule="evenodd" d="M332.448 384.187L339.915 392.072L347.966 384.194L357.933 394.866L357.202 395.549L347.933 385.625L339.888 393.497L332.438 385.632L322.791 395.556L322.074 394.859L332.448 384.187Z" fill="#E7AD7A"/>
<path fill-rule="evenodd" clip-rule="evenodd" d="M341 266.159C357.845 266.159 371.5 252.504 371.5 235.659C371.5 218.815 357.845 205.159 341 205.159C324.155 205.159 310.5 218.815 310.5 235.659C310.5 252.504 324.155 266.159 341 266.159ZM341 267.159C358.397 267.159 372.5 253.056 372.5 235.659C372.5 218.263 358.397 204.159 341 204.159C323.603 204.159 309.5 218.263 309.5 235.659C309.5 253.056 323.603 267.159 341 267.159Z" fill="#E7AD7A"/>
<path fill-rule="evenodd" clip-rule="evenodd" d="M341 266.159C354.682 266.159 365.773 255.068 365.773 241.387C365.773 227.705 354.682 216.614 341 216.614C327.318 216.614 316.227 227.705 316.227 241.387C316.227 255.068 327.318 266.159 341 266.159ZM341 267.159C355.234 267.159 366.773 255.621 366.773 241.387C366.773 227.153 355.234 215.614 341 215.614C326.766 215.614 315.227 227.153 315.227 241.387C315.227 255.621 326.766 267.159 341 267.159Z" fill="#E7AD7A"/>
<path fill-rule="evenodd" clip-rule="evenodd" d="M341 266.159C351.519 266.159 360.046 257.633 360.046 247.114C360.046 236.596 351.519 228.069 341 228.069C330.482 228.069 321.955 236.596 321.955 247.114C321.955 257.633 330.482 266.159 341 266.159ZM341 267.159C352.071 267.159 361.046 258.185 361.046 247.114C361.046 236.043 352.071 227.069 341 227.069C329.929 227.069 320.955 236.043 320.955 247.114C320.955 258.185 329.929 267.159 341 267.159Z" fill="#E7AD7A"/>
<path fill-rule="evenodd" clip-rule="evenodd" d="M341 266.159C348.355 266.159 354.318 260.197 354.318 252.841C354.318 245.486 348.355 239.523 341 239.523C333.644 239.523 327.682 245.486 327.682 252.841C327.682 260.197 333.644 266.159 341 266.159ZM341 267.159C348.908 267.159 355.318 260.749 355.318 252.841C355.318 244.934 348.908 238.523 341 238.523C333.092 238.523 326.682 244.934 326.682 252.841C326.682 260.749 333.092 267.159 341 267.159Z" fill="#E7AD7A"/>
<path fill-rule="evenodd" clip-rule="evenodd" d="M341 266.883L323 238.196H359L341 266.883ZM341 265.002L324.808 239.196H357.192L341 265.002Z" fill="#E7AD7A"/>
<path fill-rule="evenodd" clip-rule="evenodd" d="M341 204.446L323 239.321H359L341 204.446ZM341 206.626L324.641 238.321H357.359L341 206.626Z" fill="#E7AD7A"/>
<path fill-rule="evenodd" clip-rule="evenodd" d="M330.794 226.813L341.482 265.626L340.518 265.891L329.83 227.079L330.794 226.813Z" fill="#E7AD7A"/>
<path fill-rule="evenodd" clip-rule="evenodd" d="M341.5 205.008V264.633H340.5V205.008H341.5Z" fill="#E7AD7A"/>
<path fill-rule="evenodd" clip-rule="evenodd" d="M352.17 226.514L341.483 265.889L340.518 265.627L351.205 226.252L352.17 226.514Z" fill="#E7AD7A"/>
<path fill-rule="evenodd" clip-rule="evenodd" d="M187.244 264.159C204.089 264.159 217.744 250.504 217.744 233.659C217.744 216.815 204.089 203.159 187.244 203.159C170.399 203.159 156.744 216.815 156.744 233.659C156.744 250.504 170.399 264.159 187.244 264.159ZM187.244 265.159C204.641 265.159 218.744 251.056 218.744 233.659C218.744 216.263 204.641 202.159 187.244 202.159C169.847 202.159 155.744 216.263 155.744 233.659C155.744 251.056 169.847 265.159 187.244 265.159Z" fill="#E7AD7A"/>
<path fill-rule="evenodd" clip-rule="evenodd" d="M186.896 203.596L156.914 233.578L186.896 263.56L216.878 233.578L186.896 203.596ZM155.5 233.578L186.896 264.974L218.292 233.578L186.896 202.182L155.5 233.578Z" fill="#E7AD7A"/>
<path fill-rule="evenodd" clip-rule="evenodd" d="M176.151 205.587L158.905 244.322L197.64 261.568L214.886 222.833L176.151 205.587ZM157.585 244.829L198.147 262.889L216.207 222.327L175.645 204.267L157.585 244.829Z" fill="#E7AD7A"/>
<path fill-rule="evenodd" clip-rule="evenodd" d="M186.963 264.159C202.392 264.159 214.932 251.404 214.932 235.628C214.932 219.853 202.392 207.097 186.963 207.097C171.534 207.097 158.994 219.853 158.994 235.628C158.994 251.404 171.534 264.159 186.963 264.159ZM186.963 265.159C202.962 265.159 215.932 251.938 215.932 235.628C215.932 219.319 202.962 206.097 186.963 206.097C170.964 206.097 157.994 219.319 157.994 235.628C157.994 251.938 170.964 265.159 186.963 265.159Z" fill="#E7AD7A"/>
<path fill-rule="evenodd" clip-rule="evenodd" d="M186.963 264.159C200.515 264.159 211.557 252.802 211.557 238.722C211.557 224.642 200.515 213.284 186.963 213.284C173.41 213.284 162.369 224.642 162.369 238.722C162.369 252.802 173.41 264.159 186.963 264.159ZM186.963 265.159C201.098 265.159 212.557 253.323 212.557 238.722C212.557 224.121 201.098 212.284 186.963 212.284C172.828 212.284 161.369 224.121 161.369 238.722C161.369 253.323 172.828 265.159 186.963 265.159Z" fill="#E7AD7A"/>
<path fill-rule="evenodd" clip-rule="evenodd" d="M35 266.159C52.9493 266.159 67.5 251.609 67.5 233.659C67.5 215.71 52.9493 201.159 35 201.159C17.0507 201.159 2.5 215.71 2.5 233.659C2.5 251.609 17.0507 266.159 35 266.159ZM35 267.159C53.5015 267.159 68.5 252.161 68.5 233.659C68.5 215.158 53.5015 200.159 35 200.159C16.4985 200.159 1.5 215.158 1.5 233.659C1.5 252.161 16.4985 267.159 35 267.159Z" fill="#E7AD7A"/>
<path fill-rule="evenodd" clip-rule="evenodd" d="M35.0002 266.159C49.4253 266.159 61.1192 254.466 61.1192 240.04C61.1192 225.615 49.4253 213.921 35.0002 213.921C20.575 213.921 8.8811 225.615 8.8811 240.04C8.8811 254.466 20.575 266.159 35.0002 266.159ZM35.0002 267.159C49.9776 267.159 62.1192 255.018 62.1192 240.04C62.1192 225.063 49.9776 212.921 35.0002 212.921C20.0227 212.921 7.8811 225.063 7.8811 240.04C7.8811 255.018 20.0227 267.159 35.0002 267.159Z" fill="#E7AD7A"/>
<path fill-rule="evenodd" clip-rule="evenodd" d="M35.0001 266.159C45.9158 266.159 54.7382 257.451 54.7382 246.74C54.7382 236.03 45.9158 227.321 35.0001 227.321C24.0843 227.321 15.262 236.03 15.262 246.74C15.262 257.451 24.0843 266.159 35.0001 266.159ZM35.0001 267.159C46.4534 267.159 55.7382 258.018 55.7382 246.74C55.7382 235.463 46.4534 226.321 35.0001 226.321C23.5467 226.321 14.262 235.463 14.262 246.74C14.262 258.018 23.5467 267.159 35.0001 267.159Z" fill="#E7AD7A"/>
<path fill-rule="evenodd" clip-rule="evenodd" d="M35 266.159C42.3982 266.159 48.3571 260.301 48.3571 253.121C48.3571 245.942 42.3982 240.083 35 240.083C27.6017 240.083 21.6428 245.942 21.6428 253.121C21.6428 260.301 27.6017 266.159 35 266.159ZM35 267.159C42.9292 267.159 49.3571 260.874 49.3571 253.121C49.3571 245.368 42.9292 239.083 35 239.083C27.0707 239.083 20.6428 245.368 20.6428 253.121C20.6428 260.874 27.0707 267.159 35 267.159Z" fill="#E7AD7A"/>
<path fill-rule="evenodd" clip-rule="evenodd" d="M33.477 200.123L34.4728 200.106L37.3375 226.543H48.6817L41.52 265.336L40.5312 265.299L36.44 227.543H32.4593L29.6785 265.282L28.6903 265.346L20.667 226.543H31.5303L33.477 200.123ZM32.533 226.543H36.3316L34.0705 205.676L32.533 226.543ZM31.4566 227.543H21.8949L28.9444 261.637L31.4566 227.543ZM37.4458 227.543L41.1572 261.793L47.4802 227.543H37.4458Z" fill="#E7AD7A"/>
<path fill-rule="evenodd" clip-rule="evenodd" d="M50.2476 263.649L20.2571 227.278L21.0286 226.641L51.0191 263.013L50.2476 263.649Z" fill="#E7AD7A"/>
<path fill-rule="evenodd" clip-rule="evenodd" d="M20.2471 263.025L48.3233 226.654L49.1148 227.265L21.0387 263.636L20.2471 263.025Z" fill="#E7AD7A"/>
<path fill-rule="evenodd" clip-rule="evenodd" d="M155 473.472H219.832V538.304H155V473.472ZM156 474.472V537.304H218.832V474.472H156Z" fill="#E7AD7A"/>
<path fill-rule="evenodd" clip-rule="evenodd" d="M161.464 486.399H213.368V538.304H161.464V486.399ZM162.464 487.399V537.304H212.368V487.399H162.464Z" fill="#E7AD7A"/>
<path fill-rule="evenodd" clip-rule="evenodd" d="M167.927 499.326H206.905V538.303H167.927V499.326ZM168.927 500.326V537.303H205.905V500.326H168.927Z" fill="#E7AD7A"/>
<path fill-rule="evenodd" clip-rule="evenodd" d="M174.391 512.254H200.441V538.304H174.391V512.254ZM175.391 513.254V537.304H199.441V513.254H175.391Z" fill="#E7AD7A"/>
<path fill-rule="evenodd" clip-rule="evenodd" d="M180.855 525.181H193.977V538.304H180.855V525.181ZM181.855 526.181V537.304H192.977V526.181H181.855Z" fill="#E7AD7A"/>
<path fill-rule="evenodd" clip-rule="evenodd" d="M155.912 474.118H218.92L187.416 538.427L155.912 474.118ZM157.516 475.118L187.416 536.154L217.316 475.118H157.516Z" fill="#E7AD7A"/>
<path fill-rule="evenodd" clip-rule="evenodd" d="M36.4088 538.435C54.5838 538.435 69.3175 523.701 69.3175 505.526C69.3175 487.351 54.5838 472.618 36.4088 472.618C18.2338 472.618 3.5 487.351 3.5 505.526C3.5 523.701 18.2338 538.435 36.4088 538.435ZM36.4088 539.435C55.136 539.435 70.3175 524.254 70.3175 505.526C70.3175 486.799 55.136 471.618 36.4088 471.618C17.6815 471.618 2.5 486.799 2.5 505.526C2.5 524.254 17.6815 539.435 36.4088 539.435Z" fill="#E7AD7A"/>
<path fill-rule="evenodd" clip-rule="evenodd" d="M36.4088 538.435C51.1789 538.435 63.1523 526.462 63.1523 511.692C63.1523 496.922 51.1789 484.948 36.4088 484.948C21.6388 484.948 9.66528 496.922 9.66528 511.692C9.66528 526.462 21.6388 538.435 36.4088 538.435ZM36.4088 539.435C51.7311 539.435 64.1523 527.014 64.1523 511.692C64.1523 496.369 51.7311 483.948 36.4088 483.948C21.0865 483.948 8.66528 496.369 8.66528 511.692C8.66528 527.014 21.0865 539.435 36.4088 539.435Z" fill="#E7AD7A"/>
<path fill-rule="evenodd" clip-rule="evenodd" d="M36.4086 538.435C47.7737 538.435 56.9869 529.222 56.9869 517.857C56.9869 506.492 47.7737 497.279 36.4086 497.279C25.0435 497.279 15.8303 506.492 15.8303 517.857C15.8303 529.222 25.0435 538.435 36.4086 538.435ZM36.4086 539.435C48.326 539.435 57.9869 529.774 57.9869 517.857C57.9869 505.94 48.326 496.279 36.4086 496.279C24.4913 496.279 14.8303 505.94 14.8303 517.857C14.8303 529.774 24.4913 539.435 36.4086 539.435Z" fill="#E7AD7A"/>
<path fill-rule="evenodd" clip-rule="evenodd" d="M36.4089 538.435C44.369 538.435 50.822 531.982 50.822 524.022C50.822 516.062 44.369 509.609 36.4089 509.609C28.4488 509.609 21.9958 516.062 21.9958 524.022C21.9958 531.982 28.4488 538.435 36.4089 538.435ZM36.4089 539.435C44.9213 539.435 51.822 532.535 51.822 524.022C51.822 515.51 44.9213 508.609 36.4089 508.609C27.8965 508.609 20.9958 515.51 20.9958 524.022C20.9958 532.535 27.8965 539.435 36.4089 539.435Z" fill="#E7AD7A"/>
<path fill-rule="evenodd" clip-rule="evenodd" d="M36.5628 539.435L19.8777 476.087H53.248L36.5628 539.435ZM36.5628 535.509L21.1752 477.087H51.9505L36.5628 535.509Z" fill="#E7AD7A"/>
<path fill-rule="evenodd" clip-rule="evenodd" d="M370.5 474.972H308.5V536.972H370.5V474.972ZM307.5 473.972V537.972H371.5V473.972H307.5Z" fill="#E7AD7A"/>
<path fill-rule="evenodd" clip-rule="evenodd" d="M333 501.145L339.5 504.55L346 501.145V510.472H333V501.145ZM334 502.798V509.472H345V502.798L339.5 505.679L334 502.798Z" fill="#E7AD7A"/>
<path fill-rule="evenodd" clip-rule="evenodd" d="M186.5 672.435C203.621 672.435 217.5 658.556 217.5 641.435C217.5 624.314 203.621 610.435 186.5 610.435C169.379 610.435 155.5 624.314 155.5 641.435C155.5 658.556 169.379 672.435 186.5 672.435ZM186.5 673.435C204.173 673.435 218.5 659.108 218.5 641.435C218.5 623.762 204.173 609.435 186.5 609.435C168.827 609.435 154.5 623.762 154.5 641.435C154.5 659.108 168.827 673.435 186.5 673.435Z" fill="#E7AD7A"/>
<path fill-rule="evenodd" clip-rule="evenodd" d="M186.28 610.435H155.5V672.435H186.28V610.435ZM154.5 609.435V673.435H187.28V609.435H154.5Z" fill="#E7AD7A"/>
<path fill-rule="evenodd" clip-rule="evenodd" d="M64.5 610.435H2.5V672.435H64.5V610.435ZM1.5 609.435V673.435H65.5V609.435H1.5Z" fill="#E7AD7A"/>
<path fill-rule="evenodd" clip-rule="evenodd" d="M72.6519 673.435V609.435H73.6519V673.435H72.6519Z" fill="#E7AD7A"/>
<path d="M340.167 629.435C338.065 629.435 335.985 629.866 334.044 630.704C332.102 631.542 330.339 632.769 328.853 634.317C327.367 635.864 326.189 637.702 325.384 639.724C324.58 641.746 324.167 643.913 324.167 646.102C324.167 648.291 324.58 650.458 325.384 652.48C326.189 654.502 327.367 656.339 328.853 657.887C330.339 659.435 332.102 660.662 334.044 661.5C335.985 662.338 338.065 662.769 340.167 662.769L340.167 646.102V629.435Z" fill="#E7AD7A"/>
<path d="M342.833 653.435C344.935 653.435 347.015 653.004 348.956 652.167C350.898 651.329 352.661 650.101 354.147 648.554C355.633 647.006 356.811 645.169 357.616 643.147C358.42 641.125 358.833 638.957 358.833 636.769C358.833 634.58 358.42 632.413 357.616 630.391C356.811 628.368 355.633 626.531 354.147 624.984C352.661 623.436 350.898 622.208 348.956 621.371C347.015 620.533 344.935 620.102 342.833 620.102L342.833 636.769V653.435Z" fill="#E7AD7A"/>
<path fill-rule="evenodd" clip-rule="evenodd" d="M372.5 610.435H310.5V672.435H372.5V610.435ZM309.5 609.435V673.435H373.5V609.435H309.5Z" fill="#E7AD7A"/>
</svg>
