<svg width="701" height="165" viewBox="0 0 701 165" fill="none" xmlns="http://www.w3.org/2000/svg">
<path d="M200 0H300.276V100.276H200V0Z" fill="black"/>
<path d="M220.393 131.846C218.95 131.846 217.888 131.486 217.205 130.764C216.523 130.043 216.182 128.912 216.182 127.371V119.387H213.813V117.398H216.182V113.947H218.522V117.398H222.938V119.387H218.522V127.02C218.522 127.956 218.726 128.658 219.136 129.126C219.545 129.575 220.159 129.799 220.978 129.799C221.544 129.799 222.158 129.721 222.821 129.565V131.554C221.982 131.749 221.173 131.846 220.393 131.846Z" fill="black"/>
<path d="M230.504 117.223C231.01 117.223 231.488 117.281 231.937 117.398V119.504C231.488 119.406 231.01 119.358 230.504 119.358C229.236 119.358 228.281 119.738 227.637 120.498C226.994 121.239 226.672 122.312 226.672 123.716V131.612H224.332V117.398H226.643V119.241C227.033 118.597 227.55 118.1 228.193 117.749C228.836 117.398 229.607 117.223 230.504 117.223Z" fill="black"/>
<path d="M242.679 128.951C242.991 128.658 243.244 128.317 243.439 127.927C243.634 127.518 243.751 127.079 243.79 126.611H246.13C246.013 128.093 245.448 129.311 244.434 130.267C243.81 130.813 243.069 131.232 242.211 131.525C241.353 131.797 240.398 131.934 239.345 131.934C237.746 131.934 236.381 131.612 235.25 130.969C234.119 130.325 233.3 129.409 232.793 128.22C232.306 127.225 232.062 125.987 232.062 124.505C232.062 123.745 232.121 123.062 232.238 122.458C232.355 121.853 232.54 121.288 232.793 120.762C233.32 119.592 234.129 118.685 235.221 118.042C236.313 117.379 237.629 117.047 239.169 117.047C240.709 117.047 242.016 117.369 243.088 118.012C244.18 118.656 244.98 119.543 245.487 120.674C245.759 121.298 245.945 121.951 246.042 122.633C246.159 123.316 246.218 124.115 246.218 125.032H234.431C234.49 126.065 234.665 126.913 234.958 127.576C235.309 128.356 235.854 128.961 236.595 129.389C237.336 129.799 238.243 130.004 239.315 130.004C240.017 130.004 240.651 129.916 241.216 129.74C241.801 129.565 242.289 129.302 242.679 128.951ZM239.198 119.007C237.093 119.007 235.679 119.826 234.958 121.463C234.724 122.009 234.568 122.604 234.49 123.248H243.819C243.741 122.526 243.585 121.883 243.351 121.317C243.02 120.557 242.503 119.982 241.801 119.592C241.099 119.202 240.232 119.007 239.198 119.007Z" fill="black"/>
<path d="M261.244 110.964V131.612H258.934V129.448C258.407 130.267 257.705 130.891 256.828 131.32C255.951 131.729 254.956 131.934 253.845 131.934C252.48 131.934 251.3 131.632 250.306 131.027C249.311 130.403 248.561 129.536 248.054 128.424C247.547 127.293 247.293 125.987 247.293 124.505C247.293 123.023 247.547 121.717 248.054 120.586C248.561 119.455 249.311 118.588 250.306 117.983C251.3 117.359 252.48 117.047 253.845 117.047C254.937 117.047 255.921 117.262 256.799 117.691C257.676 118.1 258.378 118.704 258.905 119.504V110.964H261.244ZM258.905 124.154C258.905 123.082 258.719 122.165 258.349 121.405C257.978 120.645 257.452 120.069 256.77 119.679C256.107 119.289 255.317 119.094 254.401 119.094C253.445 119.094 252.616 119.299 251.914 119.709C251.213 120.118 250.686 120.723 250.335 121.522C249.965 122.321 249.779 123.316 249.779 124.505C249.779 125.656 249.965 126.65 250.335 127.488C250.686 128.268 251.213 128.873 251.914 129.302C252.616 129.711 253.445 129.916 254.401 129.916C255.317 129.916 256.107 129.721 256.77 129.331C257.452 128.941 257.978 128.366 258.349 127.605C258.719 126.845 258.905 125.929 258.905 124.856V124.154Z" fill="black"/>
<path d="M273.627 128.951C273.939 128.658 274.193 128.317 274.388 127.927C274.583 127.518 274.699 127.079 274.738 126.611H277.078C276.961 128.093 276.396 129.311 275.382 130.267C274.758 130.813 274.017 131.232 273.159 131.525C272.301 131.797 271.346 131.934 270.293 131.934C268.694 131.934 267.329 131.612 266.198 130.969C265.067 130.325 264.249 129.409 263.742 128.22C263.254 127.225 263.01 125.987 263.01 124.505C263.01 123.745 263.069 123.062 263.186 122.458C263.303 121.853 263.488 121.288 263.742 120.762C264.268 119.592 265.077 118.685 266.169 118.042C267.261 117.379 268.577 117.047 270.117 117.047C271.658 117.047 272.964 117.369 274.037 118.012C275.128 118.656 275.928 119.543 276.435 120.674C276.708 121.298 276.893 121.951 276.991 122.633C277.108 123.316 277.166 124.115 277.166 125.032H265.379C265.438 126.065 265.613 126.913 265.906 127.576C266.257 128.356 266.803 128.961 267.544 129.389C268.285 129.799 269.191 130.004 270.264 130.004C270.966 130.004 271.599 129.916 272.165 129.74C272.75 129.565 273.237 129.302 273.627 128.951ZM270.147 119.007C268.041 119.007 266.627 119.826 265.906 121.463C265.672 122.009 265.516 122.604 265.438 123.248H274.768C274.69 122.526 274.534 121.883 274.3 121.317C273.968 120.557 273.452 119.982 272.75 119.592C272.048 119.202 271.18 119.007 270.147 119.007Z" fill="black"/>
<path d="M285.117 117.223C285.624 117.223 286.102 117.281 286.55 117.398V119.504C286.102 119.406 285.624 119.358 285.117 119.358C283.85 119.358 282.894 119.738 282.251 120.498C281.607 121.239 281.286 122.312 281.286 123.716V131.612H278.946V117.398H281.256V119.241C281.646 118.597 282.163 118.1 282.806 117.749C283.45 117.398 284.22 117.223 285.117 117.223Z" fill="black"/>
<path d="M225.076 138.122V158.77H222.765V156.606C222.239 157.425 221.537 158.049 220.659 158.478C219.782 158.887 218.788 159.092 217.676 159.092C216.311 159.092 215.132 158.79 214.137 158.185C213.143 157.561 212.392 156.694 211.885 155.582C211.378 154.451 211.125 153.145 211.125 151.663C211.125 150.181 211.378 148.875 211.885 147.744C212.392 146.613 213.143 145.746 214.137 145.141C215.132 144.517 216.311 144.205 217.676 144.205C218.768 144.205 219.753 144.42 220.63 144.849C221.508 145.258 222.209 145.863 222.736 146.662V138.122H225.076ZM222.736 151.312C222.736 150.24 222.551 149.323 222.18 148.563C221.81 147.803 221.283 147.227 220.601 146.837C219.938 146.448 219.148 146.253 218.232 146.253C217.276 146.253 216.448 146.457 215.746 146.867C215.044 147.276 214.517 147.881 214.166 148.68C213.796 149.479 213.611 150.474 213.611 151.663C213.611 152.814 213.796 153.808 214.166 154.646C214.517 155.426 215.044 156.031 215.746 156.46C216.448 156.869 217.276 157.074 218.232 157.074C219.148 157.074 219.938 156.879 220.601 156.489C221.283 156.099 221.81 155.524 222.18 154.763C222.551 154.003 222.736 153.087 222.736 152.014V151.312Z" fill="black"/>
<path d="M237.458 156.109C237.77 155.816 238.024 155.475 238.219 155.085C238.414 154.676 238.531 154.237 238.57 153.769H240.91C240.793 155.251 240.227 156.47 239.213 157.425C238.589 157.971 237.848 158.39 236.99 158.683C236.133 158.956 235.177 159.092 234.124 159.092C232.525 159.092 231.161 158.77 230.03 158.127C228.899 157.483 228.08 156.567 227.573 155.378C227.085 154.383 226.842 153.145 226.842 151.663C226.842 150.903 226.9 150.22 227.017 149.616C227.134 149.012 227.319 148.446 227.573 147.92C228.099 146.75 228.908 145.843 230 145.2C231.092 144.537 232.408 144.205 233.949 144.205C235.489 144.205 236.795 144.527 237.868 145.17C238.96 145.814 239.759 146.701 240.266 147.832C240.539 148.456 240.724 149.109 240.822 149.791C240.939 150.474 240.997 151.273 240.997 152.19H229.211C229.269 153.223 229.445 154.071 229.737 154.734C230.088 155.514 230.634 156.119 231.375 156.548C232.116 156.957 233.023 157.162 234.095 157.162C234.797 157.162 235.431 157.074 235.996 156.899C236.581 156.723 237.068 156.46 237.458 156.109ZM233.978 146.165C231.872 146.165 230.459 146.984 229.737 148.622C229.503 149.168 229.347 149.762 229.269 150.406H238.599C238.521 149.684 238.365 149.041 238.131 148.475C237.8 147.715 237.283 147.14 236.581 146.75C235.879 146.36 235.011 146.165 233.978 146.165Z" fill="black"/>
<path d="M247.837 159.151C246.433 159.151 245.273 158.926 244.356 158.478C243.44 158.01 242.787 157.327 242.397 156.431C242.085 155.748 241.929 154.939 241.929 154.003H244.239C244.239 154.646 244.347 155.183 244.561 155.612C245.049 156.743 246.15 157.308 247.866 157.308C248.704 157.308 249.397 157.191 249.943 156.957C250.508 156.723 250.888 156.372 251.083 155.904C251.22 155.553 251.288 155.241 251.288 154.968C251.288 154.637 251.229 154.354 251.112 154.12C250.957 153.789 250.703 153.525 250.352 153.33C250.021 153.116 249.621 152.95 249.153 152.833C248.704 152.697 248.061 152.541 247.223 152.365C246.072 152.112 245.117 151.79 244.356 151.4C243.596 150.991 243.06 150.435 242.748 149.733C242.553 149.284 242.455 148.778 242.455 148.212C242.455 147.608 242.572 147.071 242.806 146.604C243.138 145.843 243.723 145.258 244.561 144.849C245.419 144.42 246.462 144.205 247.691 144.205C248.958 144.205 250.021 144.42 250.879 144.849C251.736 145.258 252.351 145.872 252.721 146.691C252.994 147.257 253.131 147.959 253.131 148.797H250.879C250.879 148.31 250.781 147.851 250.586 147.422C250.372 146.935 250.011 146.574 249.504 146.34C248.997 146.087 248.383 145.96 247.661 145.96C246.94 145.96 246.345 146.067 245.877 146.282C245.429 146.496 245.117 146.798 244.941 147.188C244.824 147.442 244.766 147.725 244.766 148.037C244.766 148.31 244.815 148.544 244.912 148.739C245.068 149.07 245.331 149.343 245.702 149.557C246.072 149.772 246.472 149.947 246.901 150.084C247.33 150.201 247.954 150.347 248.773 150.523C250.021 150.815 251.025 151.166 251.785 151.576C252.546 151.965 253.092 152.521 253.423 153.243C253.618 153.691 253.715 154.208 253.715 154.793C253.715 155.456 253.599 156.05 253.365 156.577C252.994 157.415 252.321 158.059 251.346 158.507C250.372 158.936 249.202 159.151 247.837 159.151Z" fill="black"/>
<path d="M256.637 142.012C256.15 142.012 255.76 141.885 255.467 141.631C255.194 141.359 255.058 140.998 255.058 140.549C255.058 140.12 255.204 139.769 255.496 139.496C255.789 139.223 256.169 139.087 256.637 139.087C257.066 139.087 257.427 139.223 257.719 139.496C258.012 139.769 258.158 140.12 258.158 140.549C258.158 140.978 258.012 141.329 257.719 141.602C257.427 141.875 257.066 142.012 256.637 142.012ZM255.438 144.556H257.778V158.77H255.438V144.556Z" fill="black"/>
<path d="M273.462 144.556V158.478C273.462 159.765 273.238 160.886 272.789 161.841C272.302 162.894 271.541 163.684 270.508 164.21C269.494 164.737 268.217 165 266.677 165C264.337 165 262.601 164.474 261.471 163.421C260.515 162.563 259.998 161.412 259.92 159.969H262.348C262.367 160.847 262.689 161.559 263.313 162.105C263.684 162.436 264.152 162.689 264.717 162.865C265.282 163.04 265.926 163.128 266.647 163.128C268.714 163.128 270.069 162.426 270.713 161.022C270.966 160.359 271.093 159.628 271.093 158.829V156.577C270.566 157.396 269.865 158.01 268.987 158.419C268.129 158.829 267.154 159.034 266.062 159.034C264.698 159.034 263.518 158.731 262.523 158.127C261.529 157.503 260.788 156.635 260.301 155.524C259.794 154.393 259.54 153.096 259.54 151.634C259.54 150.152 259.794 148.846 260.301 147.715C260.788 146.604 261.529 145.746 262.523 145.141C263.518 144.517 264.698 144.205 266.062 144.205C267.154 144.205 268.139 144.42 269.016 144.849C269.894 145.278 270.596 145.902 271.122 146.72V144.556H273.462ZM266.589 157.016C267.505 157.016 268.295 156.821 268.958 156.431C269.64 156.041 270.167 155.475 270.537 154.734C270.908 153.974 271.093 153.057 271.093 151.985V151.283C271.093 150.211 270.908 149.304 270.537 148.563C270.167 147.803 269.64 147.227 268.958 146.837C268.295 146.448 267.505 146.253 266.589 146.253C265.633 146.253 264.805 146.457 264.103 146.867C263.42 147.276 262.904 147.871 262.553 148.651C262.202 149.431 262.026 150.425 262.026 151.634C262.026 152.804 262.202 153.798 262.553 154.617C262.904 155.397 263.43 155.992 264.132 156.401C264.834 156.811 265.653 157.016 266.589 157.016Z" fill="black"/>
<path d="M283.067 144.205C284.841 144.205 286.187 144.712 287.103 145.726C288.039 146.72 288.507 148.202 288.507 150.172V158.77H286.167V150.61C286.167 149.109 285.865 148.007 285.26 147.305C284.656 146.604 283.73 146.253 282.482 146.253C281.156 146.253 280.132 146.633 279.411 147.393C278.709 148.154 278.358 149.255 278.358 150.698V158.77H276.018V144.556H278.358V146.487C279.333 144.966 280.903 144.205 283.067 144.205Z" fill="black"/>
<path d="M248.049 31.3363C244.757 31.3363 241.497 32.0118 238.455 33.3241C235.414 34.6364 232.65 36.5599 230.322 38.9848C227.994 41.4097 226.148 44.2884 224.888 47.4566C223.628 50.6249 222.98 54.0206 222.98 57.4498C222.98 60.8791 223.628 64.2748 224.888 67.4431C226.148 70.6113 227.994 73.49 230.322 75.9149C232.65 78.3398 235.414 80.2633 238.455 81.5756C241.497 82.8879 244.757 83.5634 248.049 83.5634L248.049 57.4498V31.3363Z" fill="black"/>
<path d="M252.227 68.9397C255.519 68.9397 258.779 68.2643 261.821 66.9519C264.862 65.6396 267.626 63.7161 269.954 61.2912C272.281 58.8664 274.128 55.9876 275.388 52.8194C276.648 49.6511 277.296 46.2554 277.296 42.8262C277.296 39.3969 276.648 36.0012 275.388 32.8329C274.128 29.6647 272.281 26.786 269.954 24.3611C267.626 21.9362 264.862 20.0127 261.821 18.7004C258.779 17.3881 255.519 16.7126 252.227 16.7126L252.227 42.8262V68.9397Z" fill="black"/>
<path fill-rule="evenodd" clip-rule="evenodd" d="M296.098 4.17817H204.178V96.0978H296.098V4.17817ZM200 0V100.276H300.276V0H200Z" fill="black"/>
<path d="M220.393 131.846C218.95 131.846 217.888 131.486 217.205 130.764C216.523 130.043 216.182 128.912 216.182 127.371V119.387H213.813V117.398H216.182V113.947H218.522V117.398H222.938V119.387H218.522V127.02C218.522 127.956 218.726 128.658 219.136 129.126C219.545 129.575 220.159 129.799 220.978 129.799C221.544 129.799 222.158 129.721 222.821 129.565V131.554C221.982 131.749 221.173 131.846 220.393 131.846Z" fill="black"/>
<path d="M230.504 117.223C231.01 117.223 231.488 117.281 231.937 117.398V119.504C231.488 119.406 231.01 119.358 230.504 119.358C229.236 119.358 228.281 119.738 227.637 120.498C226.994 121.239 226.672 122.312 226.672 123.716V131.612H224.332V117.398H226.643V119.241C227.033 118.597 227.55 118.1 228.193 117.749C228.836 117.398 229.607 117.223 230.504 117.223Z" fill="black"/>
<path d="M242.679 128.951C242.991 128.658 243.244 128.317 243.439 127.927C243.634 127.518 243.751 127.079 243.79 126.611H246.13C246.013 128.093 245.448 129.311 244.434 130.267C243.81 130.813 243.069 131.232 242.211 131.525C241.353 131.797 240.398 131.934 239.345 131.934C237.746 131.934 236.381 131.612 235.25 130.969C234.119 130.325 233.3 129.409 232.793 128.22C232.306 127.225 232.062 125.987 232.062 124.505C232.062 123.745 232.121 123.062 232.238 122.458C232.355 121.853 232.54 121.288 232.793 120.762C233.32 119.592 234.129 118.685 235.221 118.042C236.313 117.379 237.629 117.047 239.169 117.047C240.709 117.047 242.016 117.369 243.088 118.012C244.18 118.656 244.98 119.543 245.487 120.674C245.759 121.298 245.945 121.951 246.042 122.633C246.159 123.316 246.218 124.115 246.218 125.032H234.431C234.49 126.065 234.665 126.913 234.958 127.576C235.309 128.356 235.854 128.961 236.595 129.389C237.336 129.799 238.243 130.004 239.315 130.004C240.017 130.004 240.651 129.916 241.216 129.74C241.801 129.565 242.289 129.302 242.679 128.951ZM239.198 119.007C237.093 119.007 235.679 119.826 234.958 121.463C234.724 122.009 234.568 122.604 234.49 123.248H243.819C243.741 122.526 243.585 121.883 243.351 121.317C243.02 120.557 242.503 119.982 241.801 119.592C241.099 119.202 240.232 119.007 239.198 119.007Z" fill="black"/>
<path d="M261.244 110.964V131.612H258.934V129.448C258.407 130.267 257.705 130.891 256.828 131.32C255.951 131.729 254.956 131.934 253.845 131.934C252.48 131.934 251.3 131.632 250.306 131.027C249.311 130.403 248.561 129.536 248.054 128.424C247.547 127.293 247.293 125.987 247.293 124.505C247.293 123.023 247.547 121.717 248.054 120.586C248.561 119.455 249.311 118.588 250.306 117.983C251.3 117.359 252.48 117.047 253.845 117.047C254.937 117.047 255.921 117.262 256.799 117.691C257.676 118.1 258.378 118.704 258.905 119.504V110.964H261.244ZM258.905 124.154C258.905 123.082 258.719 122.165 258.349 121.405C257.978 120.645 257.452 120.069 256.77 119.679C256.107 119.289 255.317 119.094 254.401 119.094C253.445 119.094 252.616 119.299 251.914 119.709C251.213 120.118 250.686 120.723 250.335 121.522C249.965 122.321 249.779 123.316 249.779 124.505C249.779 125.656 249.965 126.65 250.335 127.488C250.686 128.268 251.213 128.873 251.914 129.302C252.616 129.711 253.445 129.916 254.401 129.916C255.317 129.916 256.107 129.721 256.77 129.331C257.452 128.941 257.978 128.366 258.349 127.605C258.719 126.845 258.905 125.929 258.905 124.856V124.154Z" fill="black"/>
<path d="M273.627 128.951C273.939 128.658 274.193 128.317 274.388 127.927C274.583 127.518 274.699 127.079 274.738 126.611H277.078C276.961 128.093 276.396 129.311 275.382 130.267C274.758 130.813 274.017 131.232 273.159 131.525C272.301 131.797 271.346 131.934 270.293 131.934C268.694 131.934 267.329 131.612 266.198 130.969C265.067 130.325 264.249 129.409 263.742 128.22C263.254 127.225 263.01 125.987 263.01 124.505C263.01 123.745 263.069 123.062 263.186 122.458C263.303 121.853 263.488 121.288 263.742 120.762C264.268 119.592 265.077 118.685 266.169 118.042C267.261 117.379 268.577 117.047 270.117 117.047C271.658 117.047 272.964 117.369 274.037 118.012C275.128 118.656 275.928 119.543 276.435 120.674C276.708 121.298 276.893 121.951 276.991 122.633C277.108 123.316 277.166 124.115 277.166 125.032H265.379C265.438 126.065 265.613 126.913 265.906 127.576C266.257 128.356 266.803 128.961 267.544 129.389C268.285 129.799 269.191 130.004 270.264 130.004C270.966 130.004 271.599 129.916 272.165 129.74C272.75 129.565 273.237 129.302 273.627 128.951ZM270.147 119.007C268.041 119.007 266.627 119.826 265.906 121.463C265.672 122.009 265.516 122.604 265.438 123.248H274.768C274.69 122.526 274.534 121.883 274.3 121.317C273.968 120.557 273.452 119.982 272.75 119.592C272.048 119.202 271.18 119.007 270.147 119.007Z" fill="black"/>
<path d="M285.117 117.223C285.624 117.223 286.102 117.281 286.55 117.398V119.504C286.102 119.406 285.624 119.358 285.117 119.358C283.85 119.358 282.894 119.738 282.251 120.498C281.607 121.239 281.286 122.312 281.286 123.716V131.612H278.946V117.398H281.256V119.241C281.646 118.597 282.163 118.1 282.806 117.749C283.45 117.398 284.22 117.223 285.117 117.223Z" fill="black"/>
<path d="M225.076 138.122V158.77H222.765V156.606C222.239 157.425 221.537 158.049 220.659 158.478C219.782 158.887 218.788 159.092 217.676 159.092C216.311 159.092 215.132 158.79 214.137 158.185C213.143 157.561 212.392 156.694 211.885 155.582C211.378 154.451 211.125 153.145 211.125 151.663C211.125 150.181 211.378 148.875 211.885 147.744C212.392 146.613 213.143 145.746 214.137 145.141C215.132 144.517 216.311 144.205 217.676 144.205C218.768 144.205 219.753 144.42 220.63 144.849C221.508 145.258 222.209 145.863 222.736 146.662V138.122H225.076ZM222.736 151.312C222.736 150.24 222.551 149.323 222.18 148.563C221.81 147.803 221.283 147.227 220.601 146.837C219.938 146.448 219.148 146.253 218.232 146.253C217.276 146.253 216.448 146.457 215.746 146.867C215.044 147.276 214.517 147.881 214.166 148.68C213.796 149.479 213.611 150.474 213.611 151.663C213.611 152.814 213.796 153.808 214.166 154.646C214.517 155.426 215.044 156.031 215.746 156.46C216.448 156.869 217.276 157.074 218.232 157.074C219.148 157.074 219.938 156.879 220.601 156.489C221.283 156.099 221.81 155.524 222.18 154.763C222.551 154.003 222.736 153.087 222.736 152.014V151.312Z" fill="black"/>
<path d="M237.458 156.109C237.77 155.816 238.024 155.475 238.219 155.085C238.414 154.676 238.531 154.237 238.57 153.769H240.91C240.793 155.251 240.227 156.47 239.213 157.425C238.589 157.971 237.848 158.39 236.99 158.683C236.133 158.956 235.177 159.092 234.124 159.092C232.525 159.092 231.161 158.77 230.03 158.127C228.899 157.483 228.08 156.567 227.573 155.378C227.085 154.383 226.842 153.145 226.842 151.663C226.842 150.903 226.9 150.22 227.017 149.616C227.134 149.012 227.319 148.446 227.573 147.92C228.099 146.75 228.908 145.843 230 145.2C231.092 144.537 232.408 144.205 233.949 144.205C235.489 144.205 236.795 144.527 237.868 145.17C238.96 145.814 239.759 146.701 240.266 147.832C240.539 148.456 240.724 149.109 240.822 149.791C240.939 150.474 240.997 151.273 240.997 152.19H229.211C229.269 153.223 229.445 154.071 229.737 154.734C230.088 155.514 230.634 156.119 231.375 156.548C232.116 156.957 233.023 157.162 234.095 157.162C234.797 157.162 235.431 157.074 235.996 156.899C236.581 156.723 237.068 156.46 237.458 156.109ZM233.978 146.165C231.872 146.165 230.459 146.984 229.737 148.622C229.503 149.168 229.347 149.762 229.269 150.406H238.599C238.521 149.684 238.365 149.041 238.131 148.475C237.8 147.715 237.283 147.14 236.581 146.75C235.879 146.36 235.011 146.165 233.978 146.165Z" fill="black"/>
<path d="M247.837 159.151C246.433 159.151 245.273 158.926 244.356 158.478C243.44 158.01 242.787 157.327 242.397 156.431C242.085 155.748 241.929 154.939 241.929 154.003H244.239C244.239 154.646 244.347 155.183 244.561 155.612C245.049 156.743 246.15 157.308 247.866 157.308C248.704 157.308 249.397 157.191 249.943 156.957C250.508 156.723 250.888 156.372 251.083 155.904C251.22 155.553 251.288 155.241 251.288 154.968C251.288 154.637 251.229 154.354 251.112 154.12C250.957 153.789 250.703 153.525 250.352 153.33C250.021 153.116 249.621 152.95 249.153 152.833C248.704 152.697 248.061 152.541 247.223 152.365C246.072 152.112 245.117 151.79 244.356 151.4C243.596 150.991 243.06 150.435 242.748 149.733C242.553 149.284 242.455 148.778 242.455 148.212C242.455 147.608 242.572 147.071 242.806 146.604C243.138 145.843 243.723 145.258 244.561 144.849C245.419 144.42 246.462 144.205 247.691 144.205C248.958 144.205 250.021 144.42 250.879 144.849C251.736 145.258 252.351 145.872 252.721 146.691C252.994 147.257 253.131 147.959 253.131 148.797H250.879C250.879 148.31 250.781 147.851 250.586 147.422C250.372 146.935 250.011 146.574 249.504 146.34C248.997 146.087 248.383 145.96 247.661 145.96C246.94 145.96 246.345 146.067 245.877 146.282C245.429 146.496 245.117 146.798 244.941 147.188C244.824 147.442 244.766 147.725 244.766 148.037C244.766 148.31 244.815 148.544 244.912 148.739C245.068 149.07 245.331 149.343 245.702 149.557C246.072 149.772 246.472 149.947 246.901 150.084C247.33 150.201 247.954 150.347 248.773 150.523C250.021 150.815 251.025 151.166 251.785 151.576C252.546 151.965 253.092 152.521 253.423 153.243C253.618 153.691 253.715 154.208 253.715 154.793C253.715 155.456 253.599 156.05 253.365 156.577C252.994 157.415 252.321 158.059 251.346 158.507C250.372 158.936 249.202 159.151 247.837 159.151Z" fill="black"/>
<path d="M256.637 142.012C256.15 142.012 255.76 141.885 255.467 141.631C255.194 141.359 255.058 140.998 255.058 140.549C255.058 140.12 255.204 139.769 255.496 139.496C255.789 139.223 256.169 139.087 256.637 139.087C257.066 139.087 257.427 139.223 257.719 139.496C258.012 139.769 258.158 140.12 258.158 140.549C258.158 140.978 258.012 141.329 257.719 141.602C257.427 141.875 257.066 142.012 256.637 142.012ZM255.438 144.556H257.778V158.77H255.438V144.556Z" fill="black"/>
<path d="M273.462 144.556V158.478C273.462 159.765 273.238 160.886 272.789 161.841C272.302 162.894 271.541 163.684 270.508 164.21C269.494 164.737 268.217 165 266.677 165C264.337 165 262.601 164.474 261.471 163.421C260.515 162.563 259.998 161.412 259.92 159.969H262.348C262.367 160.847 262.689 161.559 263.313 162.105C263.684 162.436 264.152 162.689 264.717 162.865C265.282 163.04 265.926 163.128 266.647 163.128C268.714 163.128 270.069 162.426 270.713 161.022C270.966 160.359 271.093 159.628 271.093 158.829V156.577C270.566 157.396 269.865 158.01 268.987 158.419C268.129 158.829 267.154 159.034 266.062 159.034C264.698 159.034 263.518 158.731 262.523 158.127C261.529 157.503 260.788 156.635 260.301 155.524C259.794 154.393 259.54 153.096 259.54 151.634C259.54 150.152 259.794 148.846 260.301 147.715C260.788 146.604 261.529 145.746 262.523 145.141C263.518 144.517 264.698 144.205 266.062 144.205C267.154 144.205 268.139 144.42 269.016 144.849C269.894 145.278 270.596 145.902 271.122 146.72V144.556H273.462ZM266.589 157.016C267.505 157.016 268.295 156.821 268.958 156.431C269.64 156.041 270.167 155.475 270.537 154.734C270.908 153.974 271.093 153.057 271.093 151.985V151.283C271.093 150.211 270.908 149.304 270.537 148.563C270.167 147.803 269.64 147.227 268.958 146.837C268.295 146.448 267.505 146.253 266.589 146.253C265.633 146.253 264.805 146.457 264.103 146.867C263.42 147.276 262.904 147.871 262.553 148.651C262.202 149.431 262.026 150.425 262.026 151.634C262.026 152.804 262.202 153.798 262.553 154.617C262.904 155.397 263.43 155.992 264.132 156.401C264.834 156.811 265.653 157.016 266.589 157.016Z" fill="black"/>
<path d="M283.067 144.205C284.841 144.205 286.187 144.712 287.103 145.726C288.039 146.72 288.507 148.202 288.507 150.172V158.77H286.167V150.61C286.167 149.109 285.865 148.007 285.26 147.305C284.656 146.604 283.73 146.253 282.482 146.253C281.156 146.253 280.132 146.633 279.411 147.393C278.709 148.154 278.358 149.255 278.358 150.698V158.77H276.018V144.556H278.358V146.487C279.333 144.966 280.903 144.205 283.067 144.205Z" fill="black"/>
<path d="M248.049 31.3363C244.757 31.3363 241.497 32.0118 238.455 33.3241C235.414 34.6364 232.65 36.5599 230.322 38.9848C227.994 41.4097 226.148 44.2884 224.888 47.4566C223.628 50.6249 222.98 54.0206 222.98 57.4498C222.98 60.8791 223.628 64.2748 224.888 67.4431C226.148 70.6113 227.994 73.49 230.322 75.9149C232.65 78.3398 235.414 80.2633 238.455 81.5756C241.497 82.8879 244.757 83.5634 248.049 83.5634L248.049 57.4498V31.3363Z" fill="white"/>
<path d="M252.227 68.9397C255.519 68.9397 258.779 68.2643 261.821 66.9519C264.862 65.6396 267.626 63.7161 269.954 61.2912C272.281 58.8664 274.128 55.9876 275.388 52.8194C276.648 49.6511 277.296 46.2554 277.296 42.8262C277.296 39.3969 276.648 36.0012 275.388 32.8329C274.128 29.6647 272.281 26.786 269.954 24.3611C267.626 21.9362 264.862 20.0127 261.821 18.7004C258.779 17.3881 255.519 16.7126 252.227 16.7126L252.227 42.8262V68.9397Z" fill="white"/>
<path d="M20.3372 131.583C18.8984 131.583 17.8386 131.223 17.1581 130.503C16.4775 129.783 16.1372 128.654 16.1372 127.117V119.149H13.7747V117.164H16.1372V113.72H18.4706V117.164H22.8747V119.149H18.4706V126.767C18.4706 127.701 18.6747 128.401 19.0831 128.869C19.4914 129.316 20.1039 129.54 20.9206 129.54C21.4845 129.54 22.097 129.462 22.7581 129.306V131.291C21.922 131.486 21.115 131.583 20.3372 131.583Z" fill="black"/>
<path d="M30.4196 116.989C30.9251 116.989 31.4015 117.047 31.8487 117.164V119.265C31.4015 119.168 30.9251 119.119 30.4196 119.119C29.1557 119.119 28.2029 119.499 27.5612 120.258C26.9196 120.997 26.5987 122.068 26.5987 123.469V131.35H24.2654V117.164H26.5696V119.003C26.9585 118.361 27.4737 117.864 28.1154 117.514C28.7571 117.164 29.5251 116.989 30.4196 116.989Z" fill="black"/>
<path d="M42.5613 128.693C42.8724 128.401 43.1252 128.061 43.3197 127.672C43.5141 127.263 43.6308 126.825 43.6697 126.358H46.003C45.8863 127.837 45.3224 129.053 44.3113 130.007C43.6891 130.552 42.9502 130.97 42.0947 131.262C41.2391 131.534 40.2863 131.671 39.2363 131.671C37.6419 131.671 36.2808 131.35 35.153 130.707C34.0252 130.065 33.2086 129.151 32.703 127.964C32.2169 126.971 31.9738 125.736 31.9738 124.257C31.9738 123.498 32.0322 122.817 32.1488 122.213C32.2655 121.61 32.4502 121.046 32.703 120.521C33.228 119.353 34.0349 118.448 35.1238 117.806C36.2127 117.144 37.5252 116.814 39.0613 116.814C40.5974 116.814 41.9002 117.135 42.9697 117.777C44.0586 118.419 44.8558 119.304 45.3613 120.433C45.6336 121.056 45.8183 121.708 45.9155 122.389C46.0322 123.07 46.0905 123.867 46.0905 124.782H34.3363C34.3947 125.813 34.5697 126.66 34.8613 127.322C35.2113 128.1 35.7558 128.703 36.4947 129.131C37.2336 129.54 38.1377 129.744 39.2072 129.744C39.9072 129.744 40.5391 129.657 41.103 129.481C41.6863 129.306 42.1724 129.044 42.5613 128.693ZM39.0905 118.769C36.9905 118.769 35.5808 119.586 34.8613 121.221C34.628 121.766 34.4724 122.359 34.3947 123.002H43.6988C43.6211 122.282 43.4655 121.639 43.2322 121.075C42.9016 120.316 42.3863 119.742 41.6863 119.353C40.9863 118.964 40.1211 118.769 39.0905 118.769Z" fill="black"/>
<path d="M61.0758 110.742V131.35H58.7716V129.19C58.2466 130.007 57.5466 130.63 56.6716 131.058C55.7966 131.466 54.8049 131.671 53.6966 131.671C52.3355 131.671 51.1591 131.369 50.1674 130.766C49.1758 130.143 48.4272 129.277 47.9216 128.168C47.4161 127.039 47.1633 125.736 47.1633 124.257C47.1633 122.778 47.4161 121.474 47.9216 120.345C48.4272 119.217 49.1758 118.351 50.1674 117.748C51.1591 117.125 52.3355 116.814 53.6966 116.814C54.7855 116.814 55.7675 117.028 56.6425 117.456C57.5175 117.864 58.2175 118.468 58.7425 119.265V110.742H61.0758ZM58.7425 123.906C58.7425 122.836 58.5577 121.922 58.1883 121.163C57.8188 120.404 57.2938 119.83 56.6133 119.441C55.9522 119.051 55.1647 118.857 54.2508 118.857C53.298 118.857 52.4716 119.061 51.7716 119.47C51.0716 119.878 50.5466 120.482 50.1966 121.279C49.8272 122.077 49.6424 123.07 49.6424 124.257C49.6424 125.405 49.8272 126.397 50.1966 127.234C50.5466 128.012 51.0716 128.616 51.7716 129.044C52.4716 129.452 53.298 129.657 54.2508 129.657C55.1647 129.657 55.9522 129.462 56.6133 129.073C57.2938 128.684 57.8188 128.11 58.1883 127.351C58.5577 126.592 58.7425 125.677 58.7425 124.607V123.906Z" fill="black"/>
<path d="M73.4244 128.693C73.7356 128.401 73.9883 128.061 74.1828 127.672C74.3772 127.263 74.4939 126.825 74.5328 126.358H76.8661C76.7494 127.837 76.1856 129.053 75.1744 130.007C74.5522 130.552 73.8133 130.97 72.9578 131.262C72.1022 131.534 71.1494 131.671 70.0994 131.671C68.505 131.671 67.1439 131.35 66.0161 130.707C64.8883 130.065 64.0717 129.151 63.5661 127.964C63.08 126.971 62.8369 125.736 62.8369 124.257C62.8369 123.498 62.8953 122.817 63.0119 122.213C63.1286 121.61 63.3133 121.046 63.5661 120.521C64.0911 119.353 64.8981 118.448 65.9869 117.806C67.0758 117.144 68.3883 116.814 69.9244 116.814C71.4606 116.814 72.7633 117.135 73.8328 117.777C74.9217 118.419 75.7189 119.304 76.2244 120.433C76.4967 121.056 76.6814 121.708 76.7786 122.389C76.8953 123.07 76.9536 123.867 76.9536 124.782H65.1995C65.2578 125.813 65.4328 126.66 65.7244 127.322C66.0744 128.1 66.6189 128.703 67.3578 129.131C68.0967 129.54 69.0008 129.744 70.0703 129.744C70.7703 129.744 71.4022 129.657 71.9661 129.481C72.5494 129.306 73.0356 129.044 73.4244 128.693ZM69.9536 118.769C67.8536 118.769 66.4439 119.586 65.7244 121.221C65.4911 121.766 65.3356 122.359 65.2578 123.002H74.562C74.4842 122.282 74.3286 121.639 74.0953 121.075C73.7647 120.316 73.2495 119.742 72.5495 119.353C71.8495 118.964 70.9842 118.769 69.9536 118.769Z" fill="black"/>
<path d="M84.8826 116.989C85.3882 116.989 85.8646 117.047 86.3118 117.164V119.265C85.8646 119.168 85.3882 119.119 84.8826 119.119C83.6187 119.119 82.666 119.499 82.0243 120.258C81.3826 120.997 81.0618 122.068 81.0618 123.469V131.35H78.7284V117.164H81.0326V119.003C81.4215 118.361 81.9368 117.864 82.5785 117.514C83.2201 117.164 83.9882 116.989 84.8826 116.989Z" fill="black"/>
<path d="M25.0065 137.846V158.453H22.7024V156.293C22.1774 157.111 21.4774 157.733 20.6024 158.162C19.7274 158.57 18.7357 158.775 17.6274 158.775C16.2663 158.775 15.0899 158.473 14.0982 157.87C13.1065 157.247 12.3579 156.381 11.8524 155.272C11.3468 154.143 11.094 152.839 11.094 151.361C11.094 149.882 11.3468 148.578 11.8524 147.449C12.3579 146.321 13.1065 145.455 14.0982 144.851C15.0899 144.229 16.2663 143.917 17.6274 143.917C18.7163 143.917 19.6982 144.131 20.5732 144.56C21.4482 144.968 22.1482 145.571 22.6732 146.369V137.846H25.0065ZM22.6732 151.01C22.6732 149.94 22.4885 149.025 22.119 148.267C21.7496 147.508 21.2246 146.934 20.544 146.544C19.8829 146.155 19.0954 145.961 18.1815 145.961C17.2288 145.961 16.4024 146.165 15.7024 146.574C15.0024 146.982 14.4774 147.585 14.1274 148.383C13.7579 149.181 13.5732 150.174 13.5732 151.361C13.5732 152.509 13.7579 153.501 14.1274 154.338C14.4774 155.116 15.0024 155.719 15.7024 156.148C16.4024 156.556 17.2288 156.76 18.1815 156.76C19.0954 156.76 19.8829 156.566 20.544 156.177C21.2246 155.788 21.7496 155.213 22.119 154.455C22.4885 153.696 22.6732 152.781 22.6732 151.711V151.01Z" fill="black"/>
<path d="M37.3552 155.797C37.6663 155.505 37.9191 155.165 38.1135 154.776C38.308 154.367 38.4246 153.929 38.4635 153.462H40.7969C40.6802 154.941 40.1163 156.157 39.1052 157.111C38.483 157.656 37.7441 158.074 36.8885 158.366C36.033 158.638 35.0802 158.775 34.0302 158.775C32.4357 158.775 31.0746 158.453 29.9469 157.811C28.8191 157.169 28.0024 156.255 27.4969 155.068C27.0107 154.075 26.7677 152.839 26.7677 151.361C26.7677 150.602 26.826 149.921 26.9427 149.317C27.0594 148.714 27.2441 148.15 27.4969 147.624C28.0219 146.457 28.8288 145.552 29.9177 144.91C31.0066 144.248 32.3191 143.917 33.8552 143.917C35.3913 143.917 36.6941 144.238 37.7635 144.881C38.8524 145.523 39.6496 146.408 40.1552 147.537C40.4274 148.16 40.6121 148.811 40.7094 149.492C40.826 150.174 40.8844 150.971 40.8844 151.886H29.1302C29.1885 152.917 29.3635 153.764 29.6552 154.425C30.0052 155.204 30.5496 155.807 31.2885 156.235C32.0274 156.644 32.9316 156.848 34.001 156.848C34.701 156.848 35.333 156.76 35.8969 156.585C36.4802 156.41 36.9663 156.148 37.3552 155.797ZM33.8844 145.873C31.7844 145.873 30.3746 146.69 29.6552 148.325C29.4219 148.87 29.2663 149.463 29.1885 150.105H38.4927C38.4149 149.385 38.2594 148.743 38.026 148.179C37.6955 147.42 37.1802 146.846 36.4802 146.457C35.7802 146.068 34.9149 145.873 33.8844 145.873Z" fill="black"/>
<path d="M47.705 158.833C46.305 158.833 45.1481 158.609 44.2342 158.162C43.3203 157.695 42.6689 157.013 42.28 156.118C41.9689 155.437 41.8134 154.63 41.8134 153.696H44.1175C44.1175 154.338 44.2245 154.873 44.4384 155.301C44.9245 156.43 46.0231 156.994 47.7342 156.994C48.5703 156.994 49.2606 156.877 49.805 156.644C50.3689 156.41 50.7481 156.06 50.9425 155.593C51.0786 155.243 51.1467 154.931 51.1467 154.659C51.1467 154.328 51.0884 154.046 50.9717 153.812C50.8161 153.482 50.5634 153.219 50.2134 153.024C49.8828 152.81 49.4842 152.645 49.0175 152.528C48.5703 152.392 47.9286 152.236 47.0925 152.061C45.9453 151.808 44.9925 151.487 44.2342 151.098C43.4759 150.689 42.9411 150.135 42.63 149.434C42.4356 148.987 42.3384 148.481 42.3384 147.916C42.3384 147.313 42.455 146.778 42.6884 146.311C43.0189 145.552 43.6023 144.968 44.4384 144.56C45.2939 144.131 46.3342 143.917 47.5592 143.917C48.8231 143.917 49.8828 144.131 50.7384 144.56C51.5939 144.968 52.2064 145.581 52.5759 146.398C52.8481 146.963 52.9842 147.663 52.9842 148.5H50.7384C50.7384 148.014 50.6411 147.556 50.4467 147.128C50.2328 146.642 49.8731 146.282 49.3675 146.048C48.862 145.795 48.2495 145.669 47.53 145.669C46.8106 145.669 46.2175 145.776 45.7509 145.99C45.3036 146.204 44.9925 146.505 44.8175 146.895C44.7009 147.148 44.6425 147.43 44.6425 147.741C44.6425 148.014 44.6911 148.247 44.7884 148.442C44.9439 148.772 45.2064 149.045 45.5759 149.259C45.9453 149.473 46.3439 149.648 46.7717 149.784C47.1995 149.901 47.8217 150.047 48.6384 150.222C49.8828 150.514 50.8842 150.864 51.6425 151.273C52.4009 151.662 52.9453 152.217 53.2759 152.937C53.4703 153.384 53.5675 153.9 53.5675 154.484C53.5675 155.145 53.4509 155.739 53.2175 156.264C52.8481 157.101 52.1773 157.743 51.205 158.191C50.2328 158.619 49.0661 158.833 47.705 158.833Z" fill="black"/>
<path d="M56.481 141.728C55.9949 141.728 55.606 141.602 55.3143 141.349C55.0421 141.076 54.906 140.716 54.906 140.269C54.906 139.841 55.0518 139.49 55.3435 139.218C55.6352 138.946 56.0143 138.809 56.481 138.809C56.9088 138.809 57.2685 138.946 57.5602 139.218C57.8518 139.49 57.9977 139.841 57.9977 140.269C57.9977 140.697 57.8518 141.047 57.5602 141.32C57.2685 141.592 56.9088 141.728 56.481 141.728ZM55.2852 144.268H57.6185V158.453H55.2852V144.268Z" fill="black"/>
<path d="M73.2596 144.268V158.162C73.2596 159.446 73.036 160.565 72.5888 161.518C72.1026 162.569 71.3443 163.357 70.3138 163.883C69.3026 164.408 68.029 164.671 66.4929 164.671C64.1596 164.671 62.429 164.145 61.3013 163.094C60.3485 162.238 59.8332 161.09 59.7554 159.65H62.1763C62.1957 160.526 62.5165 161.236 63.1388 161.781C63.5082 162.112 63.9749 162.365 64.5388 162.54C65.1026 162.715 65.7443 162.803 66.4638 162.803C68.5249 162.803 69.8763 162.102 70.5179 160.701C70.7707 160.039 70.8971 159.31 70.8971 158.512V156.264C70.3721 157.082 69.6721 157.695 68.7971 158.103C67.9415 158.512 66.9693 158.716 65.8804 158.716C64.5193 158.716 63.3429 158.415 62.3513 157.811C61.3596 157.189 60.6207 156.323 60.1346 155.213C59.629 154.085 59.3763 152.791 59.3763 151.331C59.3763 149.852 59.629 148.549 60.1346 147.42C60.6207 146.311 61.3596 145.455 62.3513 144.851C63.3429 144.229 64.5193 143.917 65.8804 143.917C66.9693 143.917 67.9512 144.131 68.8262 144.56C69.7012 144.988 70.4012 145.61 70.9262 146.428V144.268H73.2596ZM66.4054 156.702C67.3193 156.702 68.1068 156.508 68.7679 156.118C69.4485 155.729 69.9735 155.165 70.3429 154.425C70.7124 153.666 70.8971 152.752 70.8971 151.682V150.981C70.8971 149.911 70.7124 149.006 70.3429 148.267C69.9735 147.508 69.4485 146.934 68.7679 146.544C68.1068 146.155 67.3193 145.961 66.4054 145.961C65.4526 145.961 64.6263 146.165 63.9263 146.574C63.2457 146.982 62.7304 147.576 62.3804 148.354C62.0304 149.132 61.8554 150.125 61.8554 151.331C61.8554 152.499 62.0304 153.491 62.3804 154.309C62.7304 155.087 63.2554 155.681 63.9554 156.089C64.6554 156.498 65.4721 156.702 66.4054 156.702Z" fill="black"/>
<path d="M82.8381 143.917C84.6075 143.917 85.9492 144.423 86.8631 145.435C87.7964 146.428 88.2631 147.907 88.2631 149.872V158.453H85.9298V150.31C85.9298 148.811 85.6284 147.712 85.0256 147.011C84.4228 146.311 83.4992 145.961 82.2548 145.961C80.9325 145.961 79.9117 146.34 79.1923 147.099C78.4923 147.858 78.1423 148.957 78.1423 150.397V158.453H75.8089V144.268H78.1423V146.194C79.1145 144.676 80.6798 143.917 82.8381 143.917Z" fill="black"/>
<path d="M47.9167 31.2737C44.6336 31.2737 41.3827 31.9478 38.3496 33.2575C35.3164 34.5672 32.5605 36.4869 30.239 38.9069C27.9175 41.327 26.076 44.2 24.8197 47.3619C23.5633 50.5238 22.9167 53.9127 22.9167 57.3352C22.9167 60.7576 23.5633 64.1465 24.8197 67.3084C26.076 70.4704 27.9175 73.3433 30.239 75.7634C32.5605 78.1834 35.3164 80.1031 38.3496 81.4128C41.3827 82.7225 44.6336 83.3966 47.9167 83.3966V31.2737Z" fill="black"/>
<path d="M52.0833 68.8022C55.3664 68.8022 58.6173 68.1281 61.6504 66.8184C64.6836 65.5087 67.4395 63.589 69.761 61.169C72.0825 58.7489 73.924 55.8759 75.1803 52.714C76.4367 49.5521 77.0833 46.1632 77.0833 42.7407C77.0833 39.3183 76.4367 35.9294 75.1803 32.7675C73.924 29.6056 72.0825 26.7326 69.761 24.3125C67.4395 21.8925 64.6836 19.9728 61.6504 18.6631C58.6173 17.3534 55.3664 16.6793 52.0833 16.6793V68.8022Z" fill="black"/>
<path fill-rule="evenodd" clip-rule="evenodd" d="M97.9167 2.08491H2.08333V97.991H97.9167V2.08491ZM0 0V100.076H100V0H0Z" fill="black"/>
<path d="M600.276 0H700.552V100.276H600.276V0Z" fill="#E7AD7A"/>
<path d="M620.669 131.846C619.227 131.846 618.164 131.486 617.482 130.764C616.799 130.043 616.458 128.912 616.458 127.371V119.387H614.089V117.398H616.458V113.947H618.798V117.398H623.214V119.387H618.798V127.02C618.798 127.956 619.002 128.658 619.412 129.126C619.821 129.575 620.436 129.799 621.254 129.799C621.82 129.799 622.434 129.721 623.097 129.565V131.554C622.259 131.749 621.449 131.846 620.669 131.846Z" fill="black"/>
<path d="M630.78 117.223C631.287 117.223 631.764 117.281 632.213 117.398V119.504C631.764 119.406 631.287 119.358 630.78 119.358C629.512 119.358 628.557 119.738 627.913 120.498C627.27 121.239 626.948 122.312 626.948 123.716V131.612H624.608V117.398H626.919V119.241C627.309 118.597 627.826 118.1 628.469 117.749C629.113 117.398 629.883 117.223 630.78 117.223Z" fill="black"/>
<path d="M642.955 128.951C643.267 128.658 643.52 128.317 643.715 127.927C643.91 127.518 644.027 127.079 644.066 126.611H646.406C646.289 128.093 645.724 129.311 644.71 130.267C644.086 130.813 643.345 131.232 642.487 131.525C641.629 131.797 640.674 131.934 639.621 131.934C638.022 131.934 636.657 131.612 635.526 130.969C634.395 130.325 633.576 129.409 633.069 128.22C632.582 127.225 632.338 125.987 632.338 124.505C632.338 123.745 632.397 123.062 632.514 122.458C632.631 121.853 632.816 121.288 633.069 120.762C633.596 119.592 634.405 118.685 635.497 118.042C636.589 117.379 637.905 117.047 639.445 117.047C640.986 117.047 642.292 117.369 643.364 118.012C644.456 118.656 645.256 119.543 645.763 120.674C646.036 121.298 646.221 121.951 646.318 122.633C646.435 123.316 646.494 124.115 646.494 125.032H634.707C634.766 126.065 634.941 126.913 635.234 127.576C635.585 128.356 636.131 128.961 636.871 129.389C637.612 129.799 638.519 130.004 639.591 130.004C640.293 130.004 640.927 129.916 641.493 129.74C642.077 129.565 642.565 129.302 642.955 128.951ZM639.474 119.007C637.369 119.007 635.955 119.826 635.234 121.463C635 122.009 634.844 122.604 634.766 123.248H644.096C644.018 122.526 643.862 121.883 643.628 121.317C643.296 120.557 642.779 119.982 642.077 119.592C641.376 119.202 640.508 119.007 639.474 119.007Z" fill="black"/>
<path d="M661.52 110.964V131.612H659.21V129.448C658.683 130.267 657.982 130.891 657.104 131.32C656.227 131.729 655.232 131.934 654.121 131.934C652.756 131.934 651.576 131.632 650.582 131.027C649.588 130.403 648.837 129.536 648.33 128.424C647.823 127.293 647.57 125.987 647.57 124.505C647.57 123.023 647.823 121.717 648.33 120.586C648.837 119.455 649.588 118.588 650.582 117.983C651.576 117.359 652.756 117.047 654.121 117.047C655.213 117.047 656.197 117.262 657.075 117.691C657.952 118.1 658.654 118.704 659.181 119.504V110.964H661.52ZM659.181 124.154C659.181 123.082 658.995 122.165 658.625 121.405C658.255 120.645 657.728 120.069 657.046 119.679C656.383 119.289 655.593 119.094 654.677 119.094C653.721 119.094 652.893 119.299 652.191 119.709C651.489 120.118 650.962 120.723 650.611 121.522C650.241 122.321 650.056 123.316 650.056 124.505C650.056 125.656 650.241 126.65 650.611 127.488C650.962 128.268 651.489 128.873 652.191 129.302C652.893 129.711 653.721 129.916 654.677 129.916C655.593 129.916 656.383 129.721 657.046 129.331C657.728 128.941 658.255 128.366 658.625 127.605C658.995 126.845 659.181 125.929 659.181 124.856V124.154Z" fill="black"/>
<path d="M673.903 128.951C674.215 128.658 674.469 128.317 674.664 127.927C674.859 127.518 674.976 127.079 675.015 126.611H677.354C677.237 128.093 676.672 129.311 675.658 130.267C675.034 130.813 674.293 131.232 673.435 131.525C672.577 131.797 671.622 131.934 670.569 131.934C668.97 131.934 667.605 131.612 666.474 130.969C665.344 130.325 664.525 129.409 664.018 128.22C663.53 127.225 663.286 125.987 663.286 124.505C663.286 123.745 663.345 123.062 663.462 122.458C663.579 121.853 663.764 121.288 664.018 120.762C664.544 119.592 665.353 118.685 666.445 118.042C667.537 117.379 668.853 117.047 670.394 117.047C671.934 117.047 673.24 117.369 674.313 118.012C675.405 118.656 676.204 119.543 676.711 120.674C676.984 121.298 677.169 121.951 677.267 122.633C677.384 123.316 677.442 124.115 677.442 125.032H665.656C665.714 126.065 665.889 126.913 666.182 127.576C666.533 128.356 667.079 128.961 667.82 129.389C668.561 129.799 669.467 130.004 670.54 130.004C671.242 130.004 671.875 129.916 672.441 129.74C673.026 129.565 673.513 129.302 673.903 128.951ZM670.423 119.007C668.317 119.007 666.903 119.826 666.182 121.463C665.948 122.009 665.792 122.604 665.714 123.248H675.044C674.966 122.526 674.81 121.883 674.576 121.317C674.244 120.557 673.728 119.982 673.026 119.592C672.324 119.202 671.456 119.007 670.423 119.007Z" fill="black"/>
<path d="M685.393 117.223C685.9 117.223 686.378 117.281 686.826 117.398V119.504C686.378 119.406 685.9 119.358 685.393 119.358C684.126 119.358 683.17 119.738 682.527 120.498C681.883 121.239 681.562 122.312 681.562 123.716V131.612H679.222V117.398H681.532V119.241C681.922 118.597 682.439 118.1 683.082 117.749C683.726 117.398 684.496 117.223 685.393 117.223Z" fill="black"/>
<path d="M625.352 138.122V158.77H623.041V156.606C622.515 157.425 621.813 158.049 620.935 158.478C620.058 158.887 619.064 159.092 617.952 159.092C616.587 159.092 615.408 158.79 614.413 158.185C613.419 157.561 612.668 156.694 612.161 155.582C611.654 154.451 611.401 153.145 611.401 151.663C611.401 150.181 611.654 148.875 612.161 147.744C612.668 146.613 613.419 145.746 614.413 145.141C615.408 144.517 616.587 144.205 617.952 144.205C619.044 144.205 620.029 144.42 620.906 144.849C621.784 145.258 622.486 145.863 623.012 146.662V138.122H625.352ZM623.012 151.312C623.012 150.24 622.827 149.323 622.456 148.563C622.086 147.803 621.559 147.227 620.877 146.837C620.214 146.448 619.424 146.253 618.508 146.253C617.553 146.253 616.724 146.457 616.022 146.867C615.32 147.276 614.794 147.881 614.443 148.68C614.072 149.479 613.887 150.474 613.887 151.663C613.887 152.814 614.072 153.808 614.443 154.646C614.794 155.426 615.32 156.031 616.022 156.46C616.724 156.869 617.553 157.074 618.508 157.074C619.424 157.074 620.214 156.879 620.877 156.489C621.559 156.099 622.086 155.524 622.456 154.763C622.827 154.003 623.012 153.087 623.012 152.014V151.312Z" fill="black"/>
<path d="M637.735 156.109C638.047 155.816 638.3 155.475 638.495 155.085C638.69 154.676 638.807 154.237 638.846 153.769H641.186C641.069 155.251 640.503 156.47 639.489 157.425C638.865 157.971 638.124 158.39 637.267 158.683C636.409 158.956 635.453 159.092 634.4 159.092C632.802 159.092 631.437 158.77 630.306 158.127C629.175 157.483 628.356 156.567 627.849 155.378C627.362 154.383 627.118 153.145 627.118 151.663C627.118 150.903 627.176 150.22 627.293 149.616C627.41 149.012 627.596 148.446 627.849 147.92C628.375 146.75 629.185 145.843 630.277 145.2C631.368 144.537 632.685 144.205 634.225 144.205C635.765 144.205 637.072 144.527 638.144 145.17C639.236 145.814 640.035 146.701 640.542 147.832C640.815 148.456 641 149.109 641.098 149.791C641.215 150.474 641.273 151.273 641.273 152.19H629.487C629.545 153.223 629.721 154.071 630.013 154.734C630.364 155.514 630.91 156.119 631.651 156.548C632.392 156.957 633.299 157.162 634.371 157.162C635.073 157.162 635.707 157.074 636.272 156.899C636.857 156.723 637.345 156.46 637.735 156.109ZM634.254 146.165C632.148 146.165 630.735 146.984 630.013 148.622C629.779 149.168 629.623 149.762 629.545 150.406H638.875C638.797 149.684 638.641 149.041 638.407 148.475C638.076 147.715 637.559 147.14 636.857 146.75C636.155 146.36 635.288 146.165 634.254 146.165Z" fill="black"/>
<path d="M648.113 159.151C646.709 159.151 645.549 158.926 644.633 158.478C643.716 158.01 643.063 157.327 642.673 156.431C642.361 155.748 642.205 154.939 642.205 154.003H644.516C644.516 154.646 644.623 155.183 644.837 155.612C645.325 156.743 646.426 157.308 648.142 157.308C648.981 157.308 649.673 157.191 650.219 156.957C650.784 156.723 651.164 156.372 651.359 155.904C651.496 155.553 651.564 155.241 651.564 154.968C651.564 154.637 651.506 154.354 651.389 154.12C651.233 153.789 650.979 153.525 650.628 153.33C650.297 153.116 649.897 152.95 649.429 152.833C648.981 152.697 648.337 152.541 647.499 152.365C646.348 152.112 645.393 151.79 644.633 151.4C643.872 150.991 643.336 150.435 643.024 149.733C642.829 149.284 642.731 148.778 642.731 148.212C642.731 147.608 642.848 147.071 643.082 146.604C643.414 145.843 643.999 145.258 644.837 144.849C645.695 144.42 646.738 144.205 647.967 144.205C649.234 144.205 650.297 144.42 651.155 144.849C652.013 145.258 652.627 145.872 652.997 146.691C653.27 147.257 653.407 147.959 653.407 148.797H651.155C651.155 148.31 651.057 147.851 650.862 147.422C650.648 146.935 650.287 146.574 649.78 146.34C649.273 146.087 648.659 145.96 647.937 145.96C647.216 145.96 646.621 146.067 646.153 146.282C645.705 146.496 645.393 146.798 645.217 147.188C645.1 147.442 645.042 147.725 645.042 148.037C645.042 148.31 645.091 148.544 645.188 148.739C645.344 149.07 645.607 149.343 645.978 149.557C646.348 149.772 646.748 149.947 647.177 150.084C647.606 150.201 648.23 150.347 649.049 150.523C650.297 150.815 651.301 151.166 652.061 151.576C652.822 151.965 653.368 152.521 653.699 153.243C653.894 153.691 653.992 154.208 653.992 154.793C653.992 155.456 653.875 156.05 653.641 156.577C653.27 157.415 652.598 158.059 651.623 158.507C650.648 158.936 649.478 159.151 648.113 159.151Z" fill="black"/>
<path d="M656.913 142.012C656.426 142.012 656.036 141.885 655.743 141.631C655.47 141.359 655.334 140.998 655.334 140.549C655.334 140.12 655.48 139.769 655.772 139.496C656.065 139.223 656.445 139.087 656.913 139.087C657.342 139.087 657.703 139.223 657.995 139.496C658.288 139.769 658.434 140.12 658.434 140.549C658.434 140.978 658.288 141.329 657.995 141.602C657.703 141.875 657.342 142.012 656.913 142.012ZM655.714 144.556H658.054V158.77H655.714V144.556Z" fill="black"/>
<path d="M673.738 144.556V158.478C673.738 159.765 673.514 160.886 673.065 161.841C672.578 162.894 671.817 163.684 670.784 164.21C669.77 164.737 668.493 165 666.953 165C664.613 165 662.878 164.474 661.747 163.421C660.791 162.563 660.275 161.412 660.197 159.969H662.624C662.644 160.847 662.965 161.559 663.589 162.105C663.96 162.436 664.428 162.689 664.993 162.865C665.559 163.04 666.202 163.128 666.923 163.128C668.99 163.128 670.345 162.426 670.989 161.022C671.242 160.359 671.369 159.628 671.369 158.829V156.577C670.843 157.396 670.141 158.01 669.263 158.419C668.405 158.829 667.43 159.034 666.338 159.034C664.974 159.034 663.794 158.731 662.8 158.127C661.805 157.503 661.064 156.635 660.577 155.524C660.07 154.393 659.816 153.096 659.816 151.634C659.816 150.152 660.07 148.846 660.577 147.715C661.064 146.604 661.805 145.746 662.8 145.141C663.794 144.517 664.974 144.205 666.338 144.205C667.43 144.205 668.415 144.42 669.292 144.849C670.17 145.278 670.872 145.902 671.398 146.72V144.556H673.738ZM666.865 157.016C667.781 157.016 668.571 156.821 669.234 156.431C669.916 156.041 670.443 155.475 670.813 154.734C671.184 153.974 671.369 153.057 671.369 151.985V151.283C671.369 150.211 671.184 149.304 670.813 148.563C670.443 147.803 669.916 147.227 669.234 146.837C668.571 146.448 667.781 146.253 666.865 146.253C665.91 146.253 665.081 146.457 664.379 146.867C663.697 147.276 663.18 147.871 662.829 148.651C662.478 149.431 662.302 150.425 662.302 151.634C662.302 152.804 662.478 153.798 662.829 154.617C663.18 155.397 663.706 155.992 664.408 156.401C665.11 156.811 665.929 157.016 666.865 157.016Z" fill="black"/>
<path d="M683.343 144.205C685.117 144.205 686.463 144.712 687.379 145.726C688.315 146.72 688.783 148.202 688.783 150.172V158.77H686.443V150.61C686.443 149.109 686.141 148.007 685.537 147.305C684.932 146.604 684.006 146.253 682.758 146.253C681.432 146.253 680.409 146.633 679.687 147.393C678.985 148.154 678.634 149.255 678.634 150.698V158.77H676.294V144.556H678.634V146.487C679.609 144.966 681.179 144.205 683.343 144.205Z" fill="black"/>
<path d="M648.325 31.3363C645.033 31.3363 641.773 32.0118 638.731 33.3241C635.69 34.6364 632.926 36.5599 630.598 38.9848C628.271 41.4097 626.424 44.2884 625.164 47.4566C623.904 50.6249 623.256 54.0206 623.256 57.4498C623.256 60.8791 623.904 64.2748 625.164 67.4431C626.424 70.6113 628.271 73.49 630.598 75.9149C632.926 78.3398 635.69 80.2633 638.731 81.5756C641.773 82.8879 645.033 83.5634 648.325 83.5634L648.325 57.4498V31.3363Z" fill="black"/>
<path d="M652.503 68.9397C655.795 68.9397 659.055 68.2643 662.097 66.9519C665.138 65.6396 667.902 63.7161 670.23 61.2912C672.558 58.8664 674.404 55.9876 675.664 52.8194C676.924 49.6511 677.572 46.2554 677.572 42.8262C677.572 39.3969 676.924 36.0012 675.664 32.8329C674.404 29.6647 672.558 26.786 670.23 24.3611C667.902 21.9362 665.138 20.0127 662.097 18.7004C659.055 17.3881 655.795 16.7126 652.503 16.7126L652.503 42.8262V68.9397Z" fill="black"/>
<path fill-rule="evenodd" clip-rule="evenodd" d="M696.374 4.17817H604.454V96.0978H696.374V4.17817ZM600.276 0V100.276H700.552V0H600.276Z" fill="#E7AD7A"/>
<path d="M620.669 131.846C619.227 131.846 618.164 131.486 617.482 130.764C616.799 130.043 616.458 128.912 616.458 127.371V119.387H614.089V117.398H616.458V113.947H618.798V117.398H623.214V119.387H618.798V127.02C618.798 127.956 619.002 128.658 619.412 129.126C619.821 129.575 620.436 129.799 621.254 129.799C621.82 129.799 622.434 129.721 623.097 129.565V131.554C622.259 131.749 621.449 131.846 620.669 131.846Z" fill="#E7AD7A"/>
<path d="M630.78 117.223C631.287 117.223 631.764 117.281 632.213 117.398V119.504C631.764 119.406 631.287 119.358 630.78 119.358C629.512 119.358 628.557 119.738 627.913 120.498C627.27 121.239 626.948 122.312 626.948 123.716V131.612H624.608V117.398H626.919V119.241C627.309 118.597 627.826 118.1 628.469 117.749C629.113 117.398 629.883 117.223 630.78 117.223Z" fill="#E7AD7A"/>
<path d="M642.955 128.951C643.267 128.658 643.52 128.317 643.715 127.927C643.91 127.518 644.027 127.079 644.066 126.611H646.406C646.289 128.093 645.724 129.311 644.71 130.267C644.086 130.813 643.345 131.232 642.487 131.525C641.629 131.797 640.674 131.934 639.621 131.934C638.022 131.934 636.657 131.612 635.526 130.969C634.395 130.325 633.576 129.409 633.069 128.22C632.582 127.225 632.338 125.987 632.338 124.505C632.338 123.745 632.397 123.062 632.514 122.458C632.631 121.853 632.816 121.288 633.069 120.762C633.596 119.592 634.405 118.685 635.497 118.042C636.589 117.379 637.905 117.047 639.445 117.047C640.986 117.047 642.292 117.369 643.364 118.012C644.456 118.656 645.256 119.543 645.763 120.674C646.036 121.298 646.221 121.951 646.318 122.633C646.435 123.316 646.494 124.115 646.494 125.032H634.707C634.766 126.065 634.941 126.913 635.234 127.576C635.585 128.356 636.131 128.961 636.871 129.389C637.612 129.799 638.519 130.004 639.591 130.004C640.293 130.004 640.927 129.916 641.493 129.74C642.077 129.565 642.565 129.302 642.955 128.951ZM639.474 119.007C637.369 119.007 635.955 119.826 635.234 121.463C635 122.009 634.844 122.604 634.766 123.248H644.096C644.018 122.526 643.862 121.883 643.628 121.317C643.296 120.557 642.779 119.982 642.077 119.592C641.376 119.202 640.508 119.007 639.474 119.007Z" fill="#E7AD7A"/>
<path d="M661.52 110.964V131.612H659.21V129.448C658.683 130.267 657.982 130.891 657.104 131.32C656.227 131.729 655.232 131.934 654.121 131.934C652.756 131.934 651.576 131.632 650.582 131.027C649.588 130.403 648.837 129.536 648.33 128.424C647.823 127.293 647.57 125.987 647.57 124.505C647.57 123.023 647.823 121.717 648.33 120.586C648.837 119.455 649.588 118.588 650.582 117.983C651.576 117.359 652.756 117.047 654.121 117.047C655.213 117.047 656.197 117.262 657.075 117.691C657.952 118.1 658.654 118.704 659.181 119.504V110.964H661.52ZM659.181 124.154C659.181 123.082 658.995 122.165 658.625 121.405C658.255 120.645 657.728 120.069 657.046 119.679C656.383 119.289 655.593 119.094 654.677 119.094C653.721 119.094 652.893 119.299 652.191 119.709C651.489 120.118 650.962 120.723 650.611 121.522C650.241 122.321 650.056 123.316 650.056 124.505C650.056 125.656 650.241 126.65 650.611 127.488C650.962 128.268 651.489 128.873 652.191 129.302C652.893 129.711 653.721 129.916 654.677 129.916C655.593 129.916 656.383 129.721 657.046 129.331C657.728 128.941 658.255 128.366 658.625 127.605C658.995 126.845 659.181 125.929 659.181 124.856V124.154Z" fill="#E7AD7A"/>
<path d="M673.903 128.951C674.215 128.658 674.469 128.317 674.664 127.927C674.859 127.518 674.976 127.079 675.015 126.611H677.354C677.237 128.093 676.672 129.311 675.658 130.267C675.034 130.813 674.293 131.232 673.435 131.525C672.577 131.797 671.622 131.934 670.569 131.934C668.97 131.934 667.605 131.612 666.474 130.969C665.344 130.325 664.525 129.409 664.018 128.22C663.53 127.225 663.286 125.987 663.286 124.505C663.286 123.745 663.345 123.062 663.462 122.458C663.579 121.853 663.764 121.288 664.018 120.762C664.544 119.592 665.353 118.685 666.445 118.042C667.537 117.379 668.853 117.047 670.394 117.047C671.934 117.047 673.24 117.369 674.313 118.012C675.405 118.656 676.204 119.543 676.711 120.674C676.984 121.298 677.169 121.951 677.267 122.633C677.384 123.316 677.442 124.115 677.442 125.032H665.656C665.714 126.065 665.889 126.913 666.182 127.576C666.533 128.356 667.079 128.961 667.82 129.389C668.561 129.799 669.467 130.004 670.54 130.004C671.242 130.004 671.875 129.916 672.441 129.74C673.026 129.565 673.513 129.302 673.903 128.951ZM670.423 119.007C668.317 119.007 666.903 119.826 666.182 121.463C665.948 122.009 665.792 122.604 665.714 123.248H675.044C674.966 122.526 674.81 121.883 674.576 121.317C674.244 120.557 673.728 119.982 673.026 119.592C672.324 119.202 671.456 119.007 670.423 119.007Z" fill="#E7AD7A"/>
<path d="M685.393 117.223C685.9 117.223 686.378 117.281 686.826 117.398V119.504C686.378 119.406 685.9 119.358 685.393 119.358C684.126 119.358 683.17 119.738 682.527 120.498C681.883 121.239 681.562 122.312 681.562 123.716V131.612H679.222V117.398H681.532V119.241C681.922 118.597 682.439 118.1 683.082 117.749C683.726 117.398 684.496 117.223 685.393 117.223Z" fill="#E7AD7A"/>
<path d="M625.352 138.122V158.77H623.041V156.606C622.515 157.425 621.813 158.049 620.935 158.478C620.058 158.887 619.064 159.092 617.952 159.092C616.587 159.092 615.408 158.79 614.413 158.185C613.419 157.561 612.668 156.694 612.161 155.582C611.654 154.451 611.401 153.145 611.401 151.663C611.401 150.181 611.654 148.875 612.161 147.744C612.668 146.613 613.419 145.746 614.413 145.141C615.408 144.517 616.587 144.205 617.952 144.205C619.044 144.205 620.029 144.42 620.906 144.849C621.784 145.258 622.486 145.863 623.012 146.662V138.122H625.352ZM623.012 151.312C623.012 150.24 622.827 149.323 622.456 148.563C622.086 147.803 621.559 147.227 620.877 146.837C620.214 146.448 619.424 146.253 618.508 146.253C617.553 146.253 616.724 146.457 616.022 146.867C615.32 147.276 614.794 147.881 614.443 148.68C614.072 149.479 613.887 150.474 613.887 151.663C613.887 152.814 614.072 153.808 614.443 154.646C614.794 155.426 615.32 156.031 616.022 156.46C616.724 156.869 617.553 157.074 618.508 157.074C619.424 157.074 620.214 156.879 620.877 156.489C621.559 156.099 622.086 155.524 622.456 154.763C622.827 154.003 623.012 153.087 623.012 152.014V151.312Z" fill="#E7AD7A"/>
<path d="M637.735 156.109C638.047 155.816 638.3 155.475 638.495 155.085C638.69 154.676 638.807 154.237 638.846 153.769H641.186C641.069 155.251 640.503 156.47 639.489 157.425C638.865 157.971 638.124 158.39 637.267 158.683C636.409 158.956 635.453 159.092 634.4 159.092C632.802 159.092 631.437 158.77 630.306 158.127C629.175 157.483 628.356 156.567 627.849 155.378C627.362 154.383 627.118 153.145 627.118 151.663C627.118 150.903 627.176 150.22 627.293 149.616C627.41 149.012 627.596 148.446 627.849 147.92C628.375 146.75 629.185 145.843 630.277 145.2C631.368 144.537 632.685 144.205 634.225 144.205C635.765 144.205 637.072 144.527 638.144 145.17C639.236 145.814 640.035 146.701 640.542 147.832C640.815 148.456 641 149.109 641.098 149.791C641.215 150.474 641.273 151.273 641.273 152.19H629.487C629.545 153.223 629.721 154.071 630.013 154.734C630.364 155.514 630.91 156.119 631.651 156.548C632.392 156.957 633.299 157.162 634.371 157.162C635.073 157.162 635.707 157.074 636.272 156.899C636.857 156.723 637.345 156.46 637.735 156.109ZM634.254 146.165C632.148 146.165 630.735 146.984 630.013 148.622C629.779 149.168 629.623 149.762 629.545 150.406H638.875C638.797 149.684 638.641 149.041 638.407 148.475C638.076 147.715 637.559 147.14 636.857 146.75C636.155 146.36 635.288 146.165 634.254 146.165Z" fill="#E7AD7A"/>
<path d="M648.113 159.151C646.709 159.151 645.549 158.926 644.633 158.478C643.716 158.01 643.063 157.327 642.673 156.431C642.361 155.748 642.205 154.939 642.205 154.003H644.516C644.516 154.646 644.623 155.183 644.837 155.612C645.325 156.743 646.426 157.308 648.142 157.308C648.981 157.308 649.673 157.191 650.219 156.957C650.784 156.723 651.164 156.372 651.359 155.904C651.496 155.553 651.564 155.241 651.564 154.968C651.564 154.637 651.506 154.354 651.389 154.12C651.233 153.789 650.979 153.525 650.628 153.33C650.297 153.116 649.897 152.95 649.429 152.833C648.981 152.697 648.337 152.541 647.499 152.365C646.348 152.112 645.393 151.79 644.633 151.4C643.872 150.991 643.336 150.435 643.024 149.733C642.829 149.284 642.731 148.778 642.731 148.212C642.731 147.608 642.848 147.071 643.082 146.604C643.414 145.843 643.999 145.258 644.837 144.849C645.695 144.42 646.738 144.205 647.967 144.205C649.234 144.205 650.297 144.42 651.155 144.849C652.013 145.258 652.627 145.872 652.997 146.691C653.27 147.257 653.407 147.959 653.407 148.797H651.155C651.155 148.31 651.057 147.851 650.862 147.422C650.648 146.935 650.287 146.574 649.78 146.34C649.273 146.087 648.659 145.96 647.937 145.96C647.216 145.96 646.621 146.067 646.153 146.282C645.705 146.496 645.393 146.798 645.217 147.188C645.1 147.442 645.042 147.725 645.042 148.037C645.042 148.31 645.091 148.544 645.188 148.739C645.344 149.07 645.607 149.343 645.978 149.557C646.348 149.772 646.748 149.947 647.177 150.084C647.606 150.201 648.23 150.347 649.049 150.523C650.297 150.815 651.301 151.166 652.061 151.576C652.822 151.965 653.368 152.521 653.699 153.243C653.894 153.691 653.992 154.208 653.992 154.793C653.992 155.456 653.875 156.05 653.641 156.577C653.27 157.415 652.598 158.059 651.623 158.507C650.648 158.936 649.478 159.151 648.113 159.151Z" fill="#E7AD7A"/>
<path d="M656.913 142.012C656.426 142.012 656.036 141.885 655.743 141.631C655.47 141.359 655.334 140.998 655.334 140.549C655.334 140.12 655.48 139.769 655.772 139.496C656.065 139.223 656.445 139.087 656.913 139.087C657.342 139.087 657.703 139.223 657.995 139.496C658.288 139.769 658.434 140.12 658.434 140.549C658.434 140.978 658.288 141.329 657.995 141.602C657.703 141.875 657.342 142.012 656.913 142.012ZM655.714 144.556H658.054V158.77H655.714V144.556Z" fill="#E7AD7A"/>
<path d="M673.738 144.556V158.478C673.738 159.765 673.514 160.886 673.065 161.841C672.578 162.894 671.817 163.684 670.784 164.21C669.77 164.737 668.493 165 666.953 165C664.613 165 662.878 164.474 661.747 163.421C660.791 162.563 660.275 161.412 660.197 159.969H662.624C662.644 160.847 662.965 161.559 663.589 162.105C663.96 162.436 664.428 162.689 664.993 162.865C665.559 163.04 666.202 163.128 666.923 163.128C668.99 163.128 670.345 162.426 670.989 161.022C671.242 160.359 671.369 159.628 671.369 158.829V156.577C670.843 157.396 670.141 158.01 669.263 158.419C668.405 158.829 667.43 159.034 666.338 159.034C664.974 159.034 663.794 158.731 662.8 158.127C661.805 157.503 661.064 156.635 660.577 155.524C660.07 154.393 659.816 153.096 659.816 151.634C659.816 150.152 660.07 148.846 660.577 147.715C661.064 146.604 661.805 145.746 662.8 145.141C663.794 144.517 664.974 144.205 666.338 144.205C667.43 144.205 668.415 144.42 669.292 144.849C670.17 145.278 670.872 145.902 671.398 146.72V144.556H673.738ZM666.865 157.016C667.781 157.016 668.571 156.821 669.234 156.431C669.916 156.041 670.443 155.475 670.813 154.734C671.184 153.974 671.369 153.057 671.369 151.985V151.283C671.369 150.211 671.184 149.304 670.813 148.563C670.443 147.803 669.916 147.227 669.234 146.837C668.571 146.448 667.781 146.253 666.865 146.253C665.91 146.253 665.081 146.457 664.379 146.867C663.697 147.276 663.18 147.871 662.829 148.651C662.478 149.431 662.302 150.425 662.302 151.634C662.302 152.804 662.478 153.798 662.829 154.617C663.18 155.397 663.706 155.992 664.408 156.401C665.11 156.811 665.929 157.016 666.865 157.016Z" fill="#E7AD7A"/>
<path d="M683.343 144.205C685.117 144.205 686.463 144.712 687.379 145.726C688.315 146.72 688.783 148.202 688.783 150.172V158.77H686.443V150.61C686.443 149.109 686.141 148.007 685.537 147.305C684.932 146.604 684.006 146.253 682.758 146.253C681.432 146.253 680.409 146.633 679.687 147.393C678.985 148.154 678.634 149.255 678.634 150.698V158.77H676.294V144.556H678.634V146.487C679.609 144.966 681.179 144.205 683.343 144.205Z" fill="#E7AD7A"/>
<path d="M648.325 31.3363C645.033 31.3363 641.773 32.0118 638.731 33.3241C635.69 34.6364 632.926 36.5599 630.598 38.9848C628.271 41.4097 626.424 44.2884 625.164 47.4566C623.904 50.6249 623.256 54.0206 623.256 57.4498C623.256 60.8791 623.904 64.2748 625.164 67.4431C626.424 70.6113 628.271 73.49 630.598 75.9149C632.926 78.3398 635.69 80.2633 638.731 81.5756C641.773 82.8879 645.033 83.5634 648.325 83.5634L648.325 57.4498V31.3363Z" fill="white"/>
<path d="M652.503 68.9397C655.795 68.9397 659.055 68.2643 662.097 66.9519C665.138 65.6396 667.902 63.7161 670.23 61.2912C672.558 58.8664 674.404 55.9876 675.664 52.8194C676.924 49.6511 677.572 46.2554 677.572 42.8262C677.572 39.3969 676.924 36.0012 675.664 32.8329C674.404 29.6647 672.558 26.786 670.23 24.3611C667.902 21.9362 665.138 20.0127 662.097 18.7004C659.055 17.3881 655.795 16.7126 652.503 16.7126L652.503 42.8262V68.9397Z" fill="white"/>
<path d="M420.613 131.583C419.174 131.583 418.115 131.223 417.434 130.503C416.754 129.783 416.413 128.654 416.413 127.117V119.149H414.051V117.164H416.413V113.72H418.747V117.164H423.151V119.149H418.747V126.767C418.747 127.701 418.951 128.401 419.359 128.869C419.768 129.316 420.38 129.54 421.197 129.54C421.761 129.54 422.373 129.462 423.034 129.306V131.291C422.198 131.486 421.391 131.583 420.613 131.583Z" fill="#E7AD7A"/>
<path d="M430.696 116.989C431.201 116.989 431.678 117.047 432.125 117.164V119.265C431.678 119.168 431.201 119.119 430.696 119.119C429.432 119.119 428.479 119.499 427.837 120.258C427.196 120.997 426.875 122.068 426.875 123.469V131.35H424.542V117.164H426.846V119.003C427.235 118.361 427.75 117.864 428.392 117.514C429.033 117.164 429.801 116.989 430.696 116.989Z" fill="#E7AD7A"/>
<path d="M442.837 128.693C443.149 128.401 443.401 128.061 443.596 127.672C443.79 127.263 443.907 126.825 443.946 126.358H446.279C446.162 127.837 445.599 129.053 444.587 130.007C443.965 130.552 443.226 130.97 442.371 131.262C441.515 131.534 440.562 131.671 439.512 131.671C437.918 131.671 436.557 131.35 435.429 130.707C434.301 130.065 433.485 129.151 432.979 127.964C432.493 126.971 432.25 125.736 432.25 124.257C432.25 123.498 432.308 122.817 432.425 122.213C432.542 121.61 432.726 121.046 432.979 120.521C433.504 119.353 434.311 118.448 435.4 117.806C436.489 117.144 437.801 116.814 439.337 116.814C440.874 116.814 442.176 117.135 443.246 117.777C444.335 118.419 445.132 119.304 445.637 120.433C445.91 121.056 446.094 121.708 446.192 122.389C446.308 123.07 446.367 123.867 446.367 124.782H434.612C434.671 125.813 434.846 126.66 435.137 127.322C435.487 128.1 436.032 128.703 436.771 129.131C437.51 129.54 438.414 129.744 439.483 129.744C440.183 129.744 440.815 129.657 441.379 129.481C441.962 129.306 442.449 129.044 442.837 128.693ZM439.367 118.769C437.267 118.769 435.857 119.586 435.137 121.221C434.904 121.766 434.749 122.359 434.671 123.002H443.975C443.897 122.282 443.742 121.639 443.508 121.075C443.178 120.316 442.662 119.742 441.962 119.353C441.262 118.964 440.397 118.769 439.367 118.769Z" fill="#E7AD7A"/>
<path d="M461.352 110.742V131.35H459.048V129.19C458.523 130.007 457.823 130.63 456.948 131.058C456.073 131.466 455.081 131.671 453.973 131.671C452.612 131.671 451.435 131.369 450.444 130.766C449.452 130.143 448.703 129.277 448.198 128.168C447.692 127.039 447.439 125.736 447.439 124.257C447.439 122.778 447.692 121.474 448.198 120.345C448.703 119.217 449.452 118.351 450.444 117.748C451.435 117.125 452.612 116.814 453.973 116.814C455.062 116.814 456.044 117.028 456.919 117.456C457.794 117.864 458.494 118.468 459.019 119.265V110.742H461.352ZM459.019 123.906C459.019 122.836 458.834 121.922 458.464 121.163C458.095 120.404 457.57 119.83 456.889 119.441C456.228 119.051 455.441 118.857 454.527 118.857C453.574 118.857 452.748 119.061 452.048 119.47C451.348 119.878 450.823 120.482 450.473 121.279C450.103 122.077 449.919 123.07 449.919 124.257C449.919 125.405 450.103 126.397 450.473 127.234C450.823 128.012 451.348 128.616 452.048 129.044C452.748 129.452 453.574 129.657 454.527 129.657C455.441 129.657 456.228 129.462 456.889 129.073C457.57 128.684 458.095 128.11 458.464 127.351C458.834 126.592 459.019 125.677 459.019 124.607V123.906Z" fill="#E7AD7A"/>
<path d="M473.701 128.693C474.012 128.401 474.264 128.061 474.459 127.672C474.653 127.263 474.77 126.825 474.809 126.358H477.142C477.026 127.837 476.462 129.053 475.451 130.007C474.828 130.552 474.089 130.97 473.234 131.262C472.378 131.534 471.426 131.671 470.376 131.671C468.781 131.671 467.42 131.35 466.292 130.707C465.164 130.065 464.348 129.151 463.842 127.964C463.356 126.971 463.113 125.736 463.113 124.257C463.113 123.498 463.171 122.817 463.288 122.213C463.405 121.61 463.589 121.046 463.842 120.521C464.367 119.353 465.174 118.448 466.263 117.806C467.352 117.144 468.664 116.814 470.201 116.814C471.737 116.814 473.039 117.135 474.109 117.777C475.198 118.419 475.995 119.304 476.501 120.433C476.773 121.056 476.958 121.708 477.055 122.389C477.171 123.07 477.23 123.867 477.23 124.782H465.476C465.534 125.813 465.709 126.66 466.001 127.322C466.351 128.1 466.895 128.703 467.634 129.131C468.373 129.54 469.277 129.744 470.346 129.744C471.046 129.744 471.678 129.657 472.242 129.481C472.826 129.306 473.312 129.044 473.701 128.693ZM470.23 118.769C468.13 118.769 466.72 119.586 466.001 121.221C465.767 121.766 465.612 122.359 465.534 123.002H474.838C474.76 122.282 474.605 121.639 474.371 121.075C474.041 120.316 473.526 119.742 472.826 119.353C472.126 118.964 471.26 118.769 470.23 118.769Z" fill="#E7AD7A"/>
<path d="M485.159 116.989C485.664 116.989 486.141 117.047 486.588 117.164V119.265C486.141 119.168 485.664 119.119 485.159 119.119C483.895 119.119 482.942 119.499 482.3 120.258C481.659 120.997 481.338 122.068 481.338 123.469V131.35H479.005V117.164H481.309V119.003C481.698 118.361 482.213 117.864 482.855 117.514C483.496 117.164 484.264 116.989 485.159 116.989Z" fill="#E7AD7A"/>
<path d="M425.283 137.846V158.453H422.978V156.293C422.453 157.111 421.753 157.733 420.878 158.162C420.003 158.57 419.012 158.775 417.903 158.775C416.542 158.775 415.366 158.473 414.374 157.87C413.383 157.247 412.634 156.381 412.128 155.272C411.623 154.143 411.37 152.839 411.37 151.361C411.37 149.882 411.623 148.578 412.128 147.449C412.634 146.321 413.383 145.455 414.374 144.851C415.366 144.229 416.542 143.917 417.903 143.917C418.992 143.917 419.974 144.131 420.849 144.56C421.724 144.968 422.424 145.571 422.949 146.369V137.846H425.283ZM422.949 151.01C422.949 149.94 422.765 149.025 422.395 148.267C422.026 147.508 421.501 146.934 420.82 146.544C420.159 146.155 419.372 145.961 418.458 145.961C417.505 145.961 416.678 146.165 415.978 146.574C415.278 146.982 414.753 147.585 414.403 148.383C414.034 149.181 413.849 150.174 413.849 151.361C413.849 152.509 414.034 153.501 414.403 154.338C414.753 155.116 415.278 155.719 415.978 156.148C416.678 156.556 417.505 156.76 418.458 156.76C419.372 156.76 420.159 156.566 420.82 156.177C421.501 155.788 422.026 155.213 422.395 154.455C422.765 153.696 422.949 152.781 422.949 151.711V151.01Z" fill="#E7AD7A"/>
<path d="M437.631 155.797C437.942 155.505 438.195 155.165 438.39 154.776C438.584 154.367 438.701 153.929 438.74 153.462H441.073C440.956 154.941 440.392 156.157 439.381 157.111C438.759 157.656 438.02 158.074 437.165 158.366C436.309 158.638 435.356 158.775 434.306 158.775C432.712 158.775 431.351 158.453 430.223 157.811C429.095 157.169 428.279 156.255 427.773 155.068C427.287 154.075 427.044 152.839 427.044 151.361C427.044 150.602 427.102 149.921 427.219 149.317C427.335 148.714 427.52 148.15 427.773 147.624C428.298 146.457 429.105 145.552 430.194 144.91C431.283 144.248 432.595 143.917 434.131 143.917C435.667 143.917 436.97 144.238 438.04 144.881C439.129 145.523 439.926 146.408 440.431 147.537C440.704 148.16 440.888 148.811 440.985 149.492C441.102 150.174 441.16 150.971 441.16 151.886H429.406C429.465 152.917 429.64 153.764 429.931 154.425C430.281 155.204 430.826 155.807 431.565 156.235C432.304 156.644 433.208 156.848 434.277 156.848C434.977 156.848 435.609 156.76 436.173 156.585C436.756 156.41 437.242 156.148 437.631 155.797ZM434.16 145.873C432.06 145.873 430.651 146.69 429.931 148.325C429.698 148.87 429.542 149.463 429.465 150.105H438.769C438.691 149.385 438.535 148.743 438.302 148.179C437.972 147.42 437.456 146.846 436.756 146.457C436.056 146.068 435.191 145.873 434.16 145.873Z" fill="#E7AD7A"/>
<path d="M447.981 158.833C446.581 158.833 445.424 158.609 444.51 158.162C443.596 157.695 442.945 157.013 442.556 156.118C442.245 155.437 442.089 154.63 442.089 153.696H444.394C444.394 154.338 444.501 154.873 444.714 155.301C445.201 156.43 446.299 156.994 448.01 156.994C448.846 156.994 449.537 156.877 450.081 156.644C450.645 156.41 451.024 156.06 451.219 155.593C451.355 155.243 451.423 154.931 451.423 154.659C451.423 154.328 451.364 154.046 451.248 153.812C451.092 153.482 450.839 153.219 450.489 153.024C450.159 152.81 449.76 152.645 449.294 152.528C448.846 152.392 448.205 152.236 447.369 152.061C446.221 151.808 445.269 151.487 444.51 151.098C443.752 150.689 443.217 150.135 442.906 149.434C442.712 148.987 442.614 148.481 442.614 147.916C442.614 147.313 442.731 146.778 442.964 146.311C443.295 145.552 443.878 144.968 444.714 144.56C445.57 144.131 446.61 143.917 447.835 143.917C449.099 143.917 450.159 144.131 451.014 144.56C451.87 144.968 452.483 145.581 452.852 146.398C453.124 146.963 453.26 147.663 453.26 148.5H451.014C451.014 148.014 450.917 147.556 450.723 147.128C450.509 146.642 450.149 146.282 449.644 146.048C449.138 145.795 448.526 145.669 447.806 145.669C447.087 145.669 446.494 145.776 446.027 145.99C445.58 146.204 445.269 146.505 445.094 146.895C444.977 147.148 444.919 147.43 444.919 147.741C444.919 148.014 444.967 148.247 445.064 148.442C445.22 148.772 445.483 149.045 445.852 149.259C446.221 149.473 446.62 149.648 447.048 149.784C447.476 149.901 448.098 150.047 448.914 150.222C450.159 150.514 451.16 150.864 451.919 151.273C452.677 151.662 453.221 152.217 453.552 152.937C453.746 153.384 453.844 153.9 453.844 154.484C453.844 155.145 453.727 155.739 453.494 156.264C453.124 157.101 452.453 157.743 451.481 158.191C450.509 158.619 449.342 158.833 447.981 158.833Z" fill="#E7AD7A"/>
<path d="M456.757 141.728C456.271 141.728 455.882 141.602 455.59 141.349C455.318 141.076 455.182 140.716 455.182 140.269C455.182 139.841 455.328 139.49 455.62 139.218C455.911 138.946 456.29 138.809 456.757 138.809C457.185 138.809 457.545 138.946 457.836 139.218C458.128 139.49 458.274 139.841 458.274 140.269C458.274 140.697 458.128 141.047 457.836 141.32C457.545 141.592 457.185 141.728 456.757 141.728ZM455.561 144.268H457.895V158.453H455.561V144.268Z" fill="#E7AD7A"/>
<path d="M473.536 144.268V158.162C473.536 159.446 473.312 160.565 472.865 161.518C472.379 162.569 471.62 163.357 470.59 163.883C469.579 164.408 468.305 164.671 466.769 164.671C464.436 164.671 462.705 164.145 461.577 163.094C460.625 162.238 460.109 161.09 460.032 159.65H462.452C462.472 160.526 462.793 161.236 463.415 161.781C463.784 162.112 464.251 162.365 464.815 162.54C465.379 162.715 466.02 162.803 466.74 162.803C468.801 162.803 470.152 162.102 470.794 160.701C471.047 160.039 471.173 159.31 471.173 158.512V156.264C470.648 157.082 469.948 157.695 469.073 158.103C468.218 158.512 467.245 158.716 466.157 158.716C464.795 158.716 463.619 158.415 462.627 157.811C461.636 157.189 460.897 156.323 460.411 155.213C459.905 154.085 459.652 152.791 459.652 151.331C459.652 149.852 459.905 148.549 460.411 147.42C460.897 146.311 461.636 145.455 462.627 144.851C463.619 144.229 464.795 143.917 466.157 143.917C467.245 143.917 468.227 144.131 469.102 144.56C469.977 144.988 470.677 145.61 471.202 146.428V144.268H473.536ZM466.682 156.702C467.595 156.702 468.383 156.508 469.044 156.118C469.725 155.729 470.25 155.165 470.619 154.425C470.988 153.666 471.173 152.752 471.173 151.682V150.981C471.173 149.911 470.988 149.006 470.619 148.267C470.25 147.508 469.725 146.934 469.044 146.544C468.383 146.155 467.595 145.961 466.682 145.961C465.729 145.961 464.902 146.165 464.202 146.574C463.522 146.982 463.007 147.576 462.657 148.354C462.307 149.132 462.132 150.125 462.132 151.331C462.132 152.499 462.307 153.491 462.657 154.309C463.007 155.087 463.532 155.681 464.232 156.089C464.932 156.498 465.748 156.702 466.682 156.702Z" fill="#E7AD7A"/>
<path d="M483.114 143.917C484.884 143.917 486.225 144.423 487.139 145.435C488.073 146.428 488.539 147.907 488.539 149.872V158.453H486.206V150.31C486.206 148.811 485.905 147.712 485.302 147.011C484.699 146.311 483.775 145.961 482.531 145.961C481.209 145.961 480.188 146.34 479.468 147.099C478.768 147.858 478.418 148.957 478.418 150.397V158.453H476.085V144.268H478.418V146.194C479.391 144.676 480.956 143.917 483.114 143.917Z" fill="#E7AD7A"/>
<path d="M448.193 31.2737C444.91 31.2737 441.659 31.9478 438.626 33.2575C435.593 34.5672 432.837 36.4869 430.515 38.9069C428.194 41.327 426.352 44.2 425.096 47.3619C423.839 50.5238 423.193 53.9127 423.193 57.3352C423.193 60.7576 423.839 64.1465 425.096 67.3084C426.352 70.4704 428.194 73.3433 430.515 75.7634C432.837 78.1834 435.593 80.1031 438.626 81.4128C441.659 82.7225 444.91 83.3966 448.193 83.3966V31.2737Z" fill="#E7AD7A"/>
<path d="M452.359 68.8022C455.643 68.8022 458.893 68.1281 461.927 66.8184C464.96 65.5087 467.716 63.589 470.037 61.169C472.359 58.7489 474.2 55.8759 475.456 52.714C476.713 49.5521 477.359 46.1632 477.359 42.7407C477.359 39.3183 476.713 35.9294 475.456 32.7675C474.2 29.6056 472.359 26.7326 470.037 24.3125C467.716 21.8925 464.96 19.9728 461.927 18.6631C458.893 17.3534 455.643 16.6793 452.359 16.6793V68.8022Z" fill="#E7AD7A"/>
<path fill-rule="evenodd" clip-rule="evenodd" d="M498.193 2.08491H402.359V97.991H498.193V2.08491ZM400.276 0V100.076H500.276V0H400.276Z" fill="#E7AD7A"/>
</svg>
