<svg width="374" height="616" viewBox="0 0 374 616" fill="none" xmlns="http://www.w3.org/2000/svg">
<path fill-rule="evenodd" clip-rule="evenodd" d="M0 2.15149H64.5818V66.7333H0V2.15149ZM1 3.15149V65.7333H63.5818V3.15149H1Z" fill="#E7AD7A"/>
<path fill-rule="evenodd" clip-rule="evenodd" d="M5.15259 12.4567H59.4292V66.7333H5.15259V12.4567ZM6.15259 13.4567V65.7333H58.4292V13.4567H6.15259Z" fill="#E7AD7A"/>
<path fill-rule="evenodd" clip-rule="evenodd" d="M10.3052 22.7619H54.2765V66.7332H10.3052V22.7619ZM11.3052 23.7619V65.7332H53.2765V23.7619H11.3052Z" fill="#E7AD7A"/>
<path fill-rule="evenodd" clip-rule="evenodd" d="M14.8137 31.779H49.768V66.7333H14.8137V31.779ZM15.8137 32.779V65.7333H48.768V32.779H15.8137Z" fill="#E7AD7A"/>
<path fill-rule="evenodd" clip-rule="evenodd" d="M18.6782 38.8637H46.5477V66.7332H18.6782V38.8637ZM19.6782 39.8637V65.7332H45.5477V39.8637H19.6782Z" fill="#E7AD7A"/>
<path fill-rule="evenodd" clip-rule="evenodd" d="M22.5427 45.9486H43.3274V66.7333H22.5427V45.9486ZM23.5427 46.9486V65.7333H42.3274V46.9486H23.5427Z" fill="#E7AD7A"/>
<path fill-rule="evenodd" clip-rule="evenodd" d="M25.7629 52.3894H40.1069V66.7333H25.7629V52.3894ZM26.7629 53.3894V65.7333H39.1069V53.3894H26.7629Z" fill="#E7AD7A"/>
<path fill-rule="evenodd" clip-rule="evenodd" d="M31.9689 3.79559C14.8652 3.79559 1 17.6608 1 34.7644C1 51.8681 14.8652 65.7333 31.9689 65.7333C49.0725 65.7333 62.9377 51.8681 62.9377 34.7644C62.9377 17.6608 49.0725 3.79559 31.9689 3.79559ZM0 34.7644C0 17.1085 14.3129 2.79559 31.9689 2.79559C49.6248 2.79559 63.9377 17.1085 63.9377 34.7644C63.9377 52.4203 49.6248 66.7333 31.9689 66.7333C14.3129 66.7333 0 52.4203 0 34.7644Z" fill="#E7AD7A"/>
<path fill-rule="evenodd" clip-rule="evenodd" d="M31.9688 13.4567C17.7212 13.4567 6.15259 25.1488 6.15259 39.595C6.15259 54.041 17.7212 65.7333 31.9688 65.7333C46.2165 65.7333 57.7851 54.041 57.7851 39.595C57.7851 25.1488 46.2165 13.4567 31.9688 13.4567ZM5.15259 39.595C5.15259 24.6078 17.1577 12.4567 31.9688 12.4567C46.78 12.4567 58.7851 24.6078 58.7851 39.595C58.7851 54.582 46.78 66.7333 31.9688 66.7333C17.1577 66.7333 5.15259 54.582 5.15259 39.595Z" fill="#E7AD7A"/>
<path fill-rule="evenodd" clip-rule="evenodd" d="M31.9688 23.7619C20.5693 23.7619 11.3052 33.1447 11.3052 44.7476C11.3052 56.3503 20.5693 65.7332 31.9688 65.7332C43.3684 65.7332 52.6325 56.3503 52.6325 44.7476C52.6325 33.1447 43.3684 23.7619 31.9688 23.7619ZM10.3052 44.7476C10.3052 32.6063 20.0032 22.7619 31.9688 22.7619C43.9345 22.7619 53.6325 32.6063 53.6325 44.7476C53.6325 56.8887 43.9345 66.7332 31.9688 66.7332C20.0032 66.7332 10.3052 56.8887 10.3052 44.7476Z" fill="#E7AD7A"/>
<path fill-rule="evenodd" clip-rule="evenodd" d="M31.9688 32.779C23.0626 32.779 15.8137 40.14 15.8137 49.2561C15.8137 58.3723 23.0626 65.7333 31.9688 65.7333C40.8751 65.7333 48.124 58.3723 48.124 49.2561C48.124 40.14 40.8751 32.779 31.9688 32.779ZM14.8137 49.2561C14.8137 39.6052 22.4929 31.779 31.9688 31.779C41.4448 31.779 49.124 39.6052 49.124 49.2561C49.124 58.907 41.4448 66.7333 31.9688 66.7333C22.4929 66.7333 14.8137 58.907 14.8137 49.2561Z" fill="#E7AD7A"/>
<path fill-rule="evenodd" clip-rule="evenodd" d="M31.9689 39.8637C24.8253 39.8637 19.0342 45.6548 19.0342 52.7985C19.0342 59.9422 24.8253 65.7332 31.9689 65.7332C39.1126 65.7332 44.9037 59.9422 44.9037 52.7985C44.9037 45.6548 39.1126 39.8637 31.9689 39.8637ZM18.0342 52.7985C18.0342 45.1025 24.273 38.8637 31.9689 38.8637C39.6649 38.8637 45.9037 45.1025 45.9037 52.7985C45.9037 60.4944 39.6649 66.7332 31.9689 66.7332C24.273 66.7332 18.0342 60.4944 18.0342 52.7985Z" fill="#E7AD7A"/>
<path fill-rule="evenodd" clip-rule="evenodd" d="M32.291 46.9486C27.1038 46.9486 22.8987 51.1537 22.8987 56.341C22.8987 61.5282 27.1038 65.7333 32.291 65.7333C37.4783 65.7333 41.6833 61.5282 41.6833 56.341C41.6833 51.1537 37.4783 46.9486 32.291 46.9486ZM21.8987 56.341C21.8987 50.6014 26.5515 45.9486 32.291 45.9486C38.0305 45.9486 42.6833 50.6014 42.6833 56.341C42.6833 62.0805 38.0305 66.7333 32.291 66.7333C26.5515 66.7333 21.8987 62.0805 21.8987 56.341Z" fill="#E7AD7A"/>
<path fill-rule="evenodd" clip-rule="evenodd" d="M32.2909 53.3894C28.8822 53.3894 26.1189 56.1527 26.1189 59.5614C26.1189 62.9701 28.8822 65.7333 32.2909 65.7333C35.6995 65.7333 38.4628 62.9701 38.4628 59.5614C38.4628 56.1527 35.6995 53.3894 32.2909 53.3894ZM25.1189 59.5614C25.1189 55.6004 28.3299 52.3894 32.2909 52.3894C36.2518 52.3894 39.4628 55.6004 39.4628 59.5614C39.4628 63.5223 36.2518 66.7333 32.2909 66.7333C28.3299 66.7333 25.1189 63.5223 25.1189 59.5614Z" fill="#E7AD7A"/>
<path fill-rule="evenodd" clip-rule="evenodd" d="M304 0.982643H319.182L359.336 48.1155V66.0361L336.831 40.4284L319.217 66.5065H304V0.982643ZM336.149 39.652L335.971 39.4495L329.142 31.2552L319.361 44.7246L305.437 65.5065H318.685L336.149 39.652ZM305 64.3619V1.98264H318.72L358.336 48.4837V63.3834L336.735 38.8042L329.488 30.1083L318.451 18.5779V44.2864L305 64.3619ZM319.451 42.899L328.465 30.4857L319.451 21.0687V42.899Z" fill="#E7AD7A"/>
<path fill-rule="evenodd" clip-rule="evenodd" d="M352.034 0.5H373.536V68.1056H358.544L358.07 14.1186L345.449 31.6985L344.636 31.1153L359.043 11.0486L359.535 67.1056H372.536V1.5H352.531L337.16 21.7706L336.364 21.1664L352.034 0.5Z" fill="#E7AD7A"/>
<path fill-rule="evenodd" clip-rule="evenodd" d="M184 65C200.845 65 214.5 51.3447 214.5 34.5C214.5 17.6553 200.845 4 184 4C167.155 4 153.5 17.6553 153.5 34.5C153.5 51.3447 167.155 65 184 65ZM184 66C201.397 66 215.5 51.897 215.5 34.5C215.5 17.103 201.397 3 184 3C166.603 3 152.5 17.103 152.5 34.5C152.5 51.897 166.603 66 184 66Z" fill="#E7AD7A"/>
<path fill-rule="evenodd" clip-rule="evenodd" d="M184 61.0625C198.059 61.0625 209.438 49.7897 209.438 35.9063C209.438 22.0229 198.059 10.75 184 10.75C169.941 10.75 158.562 22.0229 158.562 35.9063C158.562 49.7897 169.941 61.0625 184 61.0625ZM184 62.0625C198.601 62.0625 210.438 50.352 210.438 35.9063C210.438 21.4606 198.601 9.75005 184 9.75005C169.399 9.75005 157.562 21.4606 157.562 35.9063C157.562 50.352 169.399 62.0625 184 62.0625Z" fill="#E7AD7A"/>
<path fill-rule="evenodd" clip-rule="evenodd" d="M184 53.75C194.334 53.75 202.688 45.4957 202.688 35.3437C202.688 25.1917 194.334 16.9375 184 16.9375C173.666 16.9375 165.312 25.1917 165.312 35.3437C165.312 45.4957 173.666 53.75 184 53.75ZM184 54.75C194.873 54.75 203.688 46.0615 203.688 35.3437C203.688 24.6259 194.873 15.9375 184 15.9375C173.127 15.9375 164.312 24.6259 164.312 35.3437C164.312 46.0615 173.127 54.75 184 54.75Z" fill="#E7AD7A"/>
<path fill-rule="evenodd" clip-rule="evenodd" d="M184 48.125C191.273 48.125 197.062 42.5971 197.062 35.9062C197.062 29.2154 191.273 23.6875 184 23.6875C176.727 23.6875 170.938 29.2154 170.938 35.9062C170.938 42.5971 176.727 48.125 184 48.125ZM184 49.125C191.767 49.125 198.062 43.2068 198.062 35.9062C198.062 28.6057 191.767 22.6875 184 22.6875C176.233 22.6875 169.938 28.6057 169.938 35.9062C169.938 43.2068 176.233 49.125 184 49.125Z" fill="#E7AD7A"/>
<path fill-rule="evenodd" clip-rule="evenodd" d="M215.495 36.3263L152.495 35.6631L152.505 34.6632L215.505 35.3264L215.495 36.3263Z" fill="#E7AD7A"/>
<path d="M211.051 35.9263C211.01 39.4787 210.269 42.9882 208.871 46.2544C207.474 49.5206 205.447 52.4795 202.905 54.9622C200.364 57.4449 197.359 59.4028 194.061 60.7241C190.763 62.0454 187.238 62.7042 183.685 62.6628C180.133 62.6215 176.623 61.8809 173.357 60.4833C170.091 59.0857 167.132 57.0584 164.649 54.5173C162.167 51.9761 160.209 48.9709 158.887 45.6731C157.566 42.3753 156.907 38.8495 156.949 35.2971L184 35.6117L211.051 35.9263Z" fill="white"/>
<path fill-rule="evenodd" clip-rule="evenodd" d="M179.51 3.46858L191.241 64.7811L190.259 64.969L178.929 5.75454L164.232 58.6918L163.268 58.4242L178.537 3.42878L179.51 3.46858Z" fill="#E7AD7A"/>
<path fill-rule="evenodd" clip-rule="evenodd" d="M176.199 64.7666L189.699 4.01658L190.673 4.0043L204.173 58.252L203.202 58.4935L190.215 6.30609L177.176 64.9835L176.199 64.7666Z" fill="#E7AD7A"/>
<path fill-rule="evenodd" clip-rule="evenodd" d="M166.5 60.5L180.143 10.1786L181.107 10.4463L167.5 60.5H166.5Z" fill="#E7AD7A"/>
<path fill-rule="evenodd" clip-rule="evenodd" d="M169.453 62.5009L181.266 16.3759L182.234 16.624L170.422 62.749L169.453 62.5009Z" fill="#E7AD7A"/>
<path fill-rule="evenodd" clip-rule="evenodd" d="M173 64L182.388 22.5756L183.362 22.7995L174 64H173Z" fill="#E7AD7A"/>
<path fill-rule="evenodd" clip-rule="evenodd" d="M194.762 63.296L185.762 22.796L186.738 22.579L195.738 63.079L194.762 63.296Z" fill="#E7AD7A"/>
<path fill-rule="evenodd" clip-rule="evenodd" d="M201.517 60.1632L188.222 11.0055L189.187 10.7445L202.483 59.9021L201.517 60.1632ZM198.287 61.6243L186.891 17.2358L187.859 16.9871L199.255 61.3757L198.287 61.6243Z" fill="#E7AD7A"/>
<path d="M214.496 35.7066C214.451 39.6612 213.133 43.2661 211.583 46.9024C210.033 50.5386 207.785 53.8329 204.967 56.5971C202.149 59.3614 198.816 61.5414 195.159 63.0128C191.502 64.4842 187.591 65.2181 183.652 65.1727C179.712 65.1272 175.82 64.3033 172.197 62.7479C168.575 61.1925 165.293 58.9361 162.54 56.1076C159.786 53.2791 157.615 49.9338 156.149 46.2628C154.684 42.5918 153.453 39.1669 153.499 35.2122L184.216 35.7094L214.496 35.7066Z" fill="white"/>
<path fill-rule="evenodd" clip-rule="evenodd" d="M64.2706 276.659L2.5 276.659L2.5 338.43L64.2706 338.43L64.2706 276.659ZM1.5 275.659L1.5 339.43L65.2706 339.43L65.2706 275.659L1.5 275.659Z" fill="#E7AD7A"/>
<path fill-rule="evenodd" clip-rule="evenodd" d="M63.481 291.652L17.3244 277.198L2.87099 323.355L49.0276 337.808L63.481 291.652ZM16.6689 275.945L1.61785 324.01L49.683 339.061L64.7341 290.996L16.6689 275.945Z" fill="#E7AD7A"/>
<path fill-rule="evenodd" clip-rule="evenodd" d="M51.8125 287.935L14.9583 287.935L14.9583 326.283L51.8125 326.283L51.8125 287.935ZM13.9583 286.935L13.9583 327.283L52.8125 327.283L52.8125 286.935L13.9583 286.935Z" fill="#E7AD7A"/>
<path fill-rule="evenodd" clip-rule="evenodd" d="M187 276.159C169.879 276.159 156 290.039 156 307.159C156 324.28 169.879 338.159 187 338.159C204.121 338.159 218 324.28 218 307.159C218 290.039 204.121 276.159 187 276.159ZM155 307.159C155 289.486 169.327 275.159 187 275.159C204.673 275.159 219 289.486 219 307.159C219 324.833 204.673 339.159 187 339.159C169.327 339.159 155 324.833 155 307.159Z" fill="#E7AD7A"/>
<path fill-rule="evenodd" clip-rule="evenodd" d="M187 291.713C174.004 291.713 163.489 302.121 163.489 314.936C163.489 327.751 174.004 338.16 187 338.16C199.996 338.16 210.512 327.751 210.512 314.936C210.512 302.121 199.996 291.713 187 291.713ZM162.489 314.936C162.489 301.557 173.463 290.713 187 290.713C200.537 290.713 211.512 301.557 211.512 314.936C211.512 328.315 200.537 339.16 187 339.16C173.463 339.16 162.489 328.315 162.489 314.936Z" fill="#E7AD7A"/>
<path fill-rule="evenodd" clip-rule="evenodd" d="M187.288 308.418C178.899 308.418 172.129 315.092 172.129 323.289C172.129 331.485 178.899 338.159 187.288 338.159C195.676 338.159 202.447 331.485 202.447 323.289C202.447 315.092 195.676 308.418 187.288 308.418ZM171.129 323.289C171.129 314.523 178.364 307.418 187.288 307.418C196.212 307.418 203.447 314.523 203.447 323.289C203.447 332.054 196.212 339.159 187.288 339.159C178.364 339.159 171.129 332.054 171.129 323.289Z" fill="#E7AD7A"/>
<path fill-rule="evenodd" clip-rule="evenodd" d="M214.645 289.436L214.286 290.048V325.334H193.576L185.192 339.618L178.352 325.334H159.7L160.735 288.545L160.433 287.915L214.645 289.436ZM161.68 290.518L160.728 324.334H177.873L161.68 290.518ZM179.461 325.334L185.282 337.489L192.416 325.334H179.461ZM193.003 324.334H178.982L162.588 290.099L186.581 308.44L212.267 291.512L193.003 324.334ZM194.162 324.334H213.286V291.752L194.162 324.334ZM212.186 290.368L162.772 288.981L186.623 307.214L212.186 290.368Z" fill="#E7AD7A"/>
<path fill-rule="evenodd" clip-rule="evenodd" d="M340 337.659C356.845 337.659 370.5 324.004 370.5 307.159C370.5 290.315 356.845 276.659 340 276.659C323.155 276.659 309.5 290.315 309.5 307.159C309.5 324.004 323.155 337.659 340 337.659ZM340 338.659C357.397 338.659 371.5 324.556 371.5 307.159C371.5 289.763 357.397 275.659 340 275.659C322.603 275.659 308.5 289.763 308.5 307.159C308.5 324.556 322.603 338.659 340 338.659Z" fill="#E7AD7A"/>
<path fill-rule="evenodd" clip-rule="evenodd" d="M332.146 298.578L339.62 306.045L347.669 298.592L368.823 319.525L368.119 320.236L347.646 299.977L339.594 307.432L332.146 299.991L311.882 320.234L311.175 319.527L332.146 298.578Z" fill="#E7AD7A"/>
<path fill-rule="evenodd" clip-rule="evenodd" d="M331.803 314.332L339.697 322.179L347.591 314.332L362.158 328.61L361.458 329.324L347.596 315.737L339.697 323.589L331.798 315.737L317.937 329.324L317.237 328.61L331.803 314.332Z" fill="#E7AD7A"/>
<path fill-rule="evenodd" clip-rule="evenodd" d="M347.085 306.445L365.794 324.977L365.09 325.688L347.106 307.874L339.598 315.76L332.089 307.871L314.302 325.286L313.602 324.571L332.114 306.447L339.598 314.309L347.085 306.445Z" fill="#E7AD7A"/>
<path fill-rule="evenodd" clip-rule="evenodd" d="M331.768 330.063L339.617 337.959L347.834 330.086L353.073 335.275L352.369 335.986L347.822 331.482L339.6 339.36L331.792 331.506L327.645 335.971L326.912 335.29L331.768 330.063Z" fill="#E7AD7A"/>
<path fill-rule="evenodd" clip-rule="evenodd" d="M332.448 322.187L339.915 330.072L347.966 322.194L357.933 332.866L357.202 333.549L347.933 323.625L339.888 331.497L332.438 323.632L322.791 333.556L322.074 332.859L332.448 322.187Z" fill="#E7AD7A"/>
<path fill-rule="evenodd" clip-rule="evenodd" d="M341 204.159C357.845 204.159 371.5 190.504 371.5 173.659C371.5 156.815 357.845 143.159 341 143.159C324.155 143.159 310.5 156.815 310.5 173.659C310.5 190.504 324.155 204.159 341 204.159ZM341 205.159C358.397 205.159 372.5 191.056 372.5 173.659C372.5 156.263 358.397 142.159 341 142.159C323.603 142.159 309.5 156.263 309.5 173.659C309.5 191.056 323.603 205.159 341 205.159Z" fill="#E7AD7A"/>
<path fill-rule="evenodd" clip-rule="evenodd" d="M341 204.159C354.682 204.159 365.773 193.068 365.773 179.387C365.773 165.705 354.682 154.614 341 154.614C327.318 154.614 316.227 165.705 316.227 179.387C316.227 193.068 327.318 204.159 341 204.159ZM341 205.159C355.234 205.159 366.773 193.621 366.773 179.387C366.773 165.153 355.234 153.614 341 153.614C326.766 153.614 315.227 165.153 315.227 179.387C315.227 193.621 326.766 205.159 341 205.159Z" fill="#E7AD7A"/>
<path fill-rule="evenodd" clip-rule="evenodd" d="M341 204.159C351.519 204.159 360.046 195.633 360.046 185.114C360.046 174.596 351.519 166.069 341 166.069C330.482 166.069 321.955 174.596 321.955 185.114C321.955 195.633 330.482 204.159 341 204.159ZM341 205.159C352.071 205.159 361.046 196.185 361.046 185.114C361.046 174.043 352.071 165.069 341 165.069C329.929 165.069 320.955 174.043 320.955 185.114C320.955 196.185 329.929 205.159 341 205.159Z" fill="#E7AD7A"/>
<path fill-rule="evenodd" clip-rule="evenodd" d="M341 204.159C348.355 204.159 354.318 198.197 354.318 190.841C354.318 183.486 348.355 177.523 341 177.523C333.644 177.523 327.682 183.486 327.682 190.841C327.682 198.197 333.644 204.159 341 204.159ZM341 205.159C348.908 205.159 355.318 198.749 355.318 190.841C355.318 182.934 348.908 176.523 341 176.523C333.092 176.523 326.682 182.934 326.682 190.841C326.682 198.749 333.092 205.159 341 205.159Z" fill="#E7AD7A"/>
<path fill-rule="evenodd" clip-rule="evenodd" d="M341 204.883L323 176.196H359L341 204.883ZM341 203.002L324.808 177.196H357.192L341 203.002Z" fill="#E7AD7A"/>
<path fill-rule="evenodd" clip-rule="evenodd" d="M341 142.446L323 177.321H359L341 142.446ZM341 144.626L324.641 176.321H357.359L341 144.626Z" fill="#E7AD7A"/>
<path fill-rule="evenodd" clip-rule="evenodd" d="M330.794 164.813L341.482 203.626L340.518 203.891L329.83 165.079L330.794 164.813Z" fill="#E7AD7A"/>
<path fill-rule="evenodd" clip-rule="evenodd" d="M341.5 143.008V202.633H340.5V143.008H341.5Z" fill="#E7AD7A"/>
<path fill-rule="evenodd" clip-rule="evenodd" d="M352.17 164.514L341.483 203.889L340.518 203.627L351.205 164.252L352.17 164.514Z" fill="#E7AD7A"/>
<path fill-rule="evenodd" clip-rule="evenodd" d="M187.244 202.159C204.089 202.159 217.744 188.504 217.744 171.659C217.744 154.815 204.089 141.159 187.244 141.159C170.399 141.159 156.744 154.815 156.744 171.659C156.744 188.504 170.399 202.159 187.244 202.159ZM187.244 203.159C204.641 203.159 218.744 189.056 218.744 171.659C218.744 154.263 204.641 140.159 187.244 140.159C169.847 140.159 155.744 154.263 155.744 171.659C155.744 189.056 169.847 203.159 187.244 203.159Z" fill="#E7AD7A"/>
<path fill-rule="evenodd" clip-rule="evenodd" d="M186.896 141.596L156.914 171.578L186.896 201.56L216.878 171.578L186.896 141.596ZM155.5 171.578L186.896 202.974L218.292 171.578L186.896 140.182L155.5 171.578Z" fill="#E7AD7A"/>
<path fill-rule="evenodd" clip-rule="evenodd" d="M176.151 143.587L158.905 182.322L197.64 199.568L214.886 160.833L176.151 143.587ZM157.585 182.829L198.147 200.889L216.207 160.327L175.645 142.267L157.585 182.829Z" fill="#E7AD7A"/>
<path fill-rule="evenodd" clip-rule="evenodd" d="M186.963 202.159C202.392 202.159 214.932 189.404 214.932 173.628C214.932 157.853 202.392 145.097 186.963 145.097C171.534 145.097 158.994 157.853 158.994 173.628C158.994 189.404 171.534 202.159 186.963 202.159ZM186.963 203.159C202.962 203.159 215.932 189.938 215.932 173.628C215.932 157.319 202.962 144.097 186.963 144.097C170.964 144.097 157.994 157.319 157.994 173.628C157.994 189.938 170.964 203.159 186.963 203.159Z" fill="#E7AD7A"/>
<path fill-rule="evenodd" clip-rule="evenodd" d="M186.963 202.159C200.515 202.159 211.557 190.802 211.557 176.722C211.557 162.642 200.515 151.284 186.963 151.284C173.41 151.284 162.369 162.642 162.369 176.722C162.369 190.802 173.41 202.159 186.963 202.159ZM186.963 203.159C201.098 203.159 212.557 191.323 212.557 176.722C212.557 162.121 201.098 150.284 186.963 150.284C172.828 150.284 161.369 162.121 161.369 176.722C161.369 191.323 172.828 203.159 186.963 203.159Z" fill="#E7AD7A"/>
<path fill-rule="evenodd" clip-rule="evenodd" d="M35 204.159C52.9493 204.159 67.5 189.609 67.5 171.659C67.5 153.71 52.9493 139.159 35 139.159C17.0507 139.159 2.5 153.71 2.5 171.659C2.5 189.609 17.0507 204.159 35 204.159ZM35 205.159C53.5015 205.159 68.5 190.161 68.5 171.659C68.5 153.158 53.5015 138.159 35 138.159C16.4985 138.159 1.5 153.158 1.5 171.659C1.5 190.161 16.4985 205.159 35 205.159Z" fill="#E7AD7A"/>
<path fill-rule="evenodd" clip-rule="evenodd" d="M35.0002 204.159C49.4253 204.159 61.1192 192.466 61.1192 178.04C61.1192 163.615 49.4253 151.921 35.0002 151.921C20.575 151.921 8.8811 163.615 8.8811 178.04C8.8811 192.466 20.575 204.159 35.0002 204.159ZM35.0002 205.159C49.9776 205.159 62.1192 193.018 62.1192 178.04C62.1192 163.063 49.9776 150.921 35.0002 150.921C20.0227 150.921 7.8811 163.063 7.8811 178.04C7.8811 193.018 20.0227 205.159 35.0002 205.159Z" fill="#E7AD7A"/>
<path fill-rule="evenodd" clip-rule="evenodd" d="M35.0001 204.159C45.9158 204.159 54.7382 195.451 54.7382 184.74C54.7382 174.03 45.9158 165.321 35.0001 165.321C24.0843 165.321 15.262 174.03 15.262 184.74C15.262 195.451 24.0843 204.159 35.0001 204.159ZM35.0001 205.159C46.4534 205.159 55.7382 196.018 55.7382 184.74C55.7382 173.463 46.4534 164.321 35.0001 164.321C23.5467 164.321 14.262 173.463 14.262 184.74C14.262 196.018 23.5467 205.159 35.0001 205.159Z" fill="#E7AD7A"/>
<path fill-rule="evenodd" clip-rule="evenodd" d="M35 204.159C42.3982 204.159 48.3571 198.301 48.3571 191.121C48.3571 183.942 42.3982 178.083 35 178.083C27.6017 178.083 21.6428 183.942 21.6428 191.121C21.6428 198.301 27.6017 204.159 35 204.159ZM35 205.159C42.9292 205.159 49.3571 198.874 49.3571 191.121C49.3571 183.368 42.9292 177.083 35 177.083C27.0707 177.083 20.6428 183.368 20.6428 191.121C20.6428 198.874 27.0707 205.159 35 205.159Z" fill="#E7AD7A"/>
<path fill-rule="evenodd" clip-rule="evenodd" d="M33.477 138.123L34.4728 138.106L37.3375 164.543H48.6817L41.52 203.336L40.5312 203.299L36.44 165.543H32.4593L29.6785 203.282L28.6903 203.346L20.667 164.543H31.5303L33.477 138.123ZM32.533 164.543H36.3316L34.0705 143.676L32.533 164.543ZM31.4566 165.543H21.8949L28.9444 199.637L31.4566 165.543ZM37.4458 165.543L41.1572 199.793L47.4802 165.543H37.4458Z" fill="#E7AD7A"/>
<path fill-rule="evenodd" clip-rule="evenodd" d="M50.2476 201.649L20.2571 165.278L21.0286 164.641L51.0191 201.013L50.2476 201.649Z" fill="#E7AD7A"/>
<path fill-rule="evenodd" clip-rule="evenodd" d="M20.2471 201.025L48.3233 164.654L49.1148 165.265L21.0387 201.636L20.2471 201.025Z" fill="#E7AD7A"/>
<path fill-rule="evenodd" clip-rule="evenodd" d="M155 411.472H219.832V476.304H155V411.472ZM156 412.472V475.304H218.832V412.472H156Z" fill="#E7AD7A"/>
<path fill-rule="evenodd" clip-rule="evenodd" d="M161.464 424.399H213.368V476.304H161.464V424.399ZM162.464 425.399V475.304H212.368V425.399H162.464Z" fill="#E7AD7A"/>
<path fill-rule="evenodd" clip-rule="evenodd" d="M167.927 437.326H206.905V476.303H167.927V437.326ZM168.927 438.326V475.303H205.905V438.326H168.927Z" fill="#E7AD7A"/>
<path fill-rule="evenodd" clip-rule="evenodd" d="M174.391 450.254H200.441V476.304H174.391V450.254ZM175.391 451.254V475.304H199.441V451.254H175.391Z" fill="#E7AD7A"/>
<path fill-rule="evenodd" clip-rule="evenodd" d="M180.855 463.181H193.977V476.304H180.855V463.181ZM181.855 464.181V475.304H192.977V464.181H181.855Z" fill="#E7AD7A"/>
<path fill-rule="evenodd" clip-rule="evenodd" d="M155.912 412.118H218.92L187.416 476.427L155.912 412.118ZM157.516 413.118L187.416 474.154L217.316 413.118H157.516Z" fill="#E7AD7A"/>
<path fill-rule="evenodd" clip-rule="evenodd" d="M36.4088 476.435C54.5838 476.435 69.3175 461.701 69.3175 443.526C69.3175 425.351 54.5838 410.618 36.4088 410.618C18.2338 410.618 3.5 425.351 3.5 443.526C3.5 461.701 18.2338 476.435 36.4088 476.435ZM36.4088 477.435C55.136 477.435 70.3175 462.254 70.3175 443.526C70.3175 424.799 55.136 409.618 36.4088 409.618C17.6815 409.618 2.5 424.799 2.5 443.526C2.5 462.254 17.6815 477.435 36.4088 477.435Z" fill="#E7AD7A"/>
<path fill-rule="evenodd" clip-rule="evenodd" d="M36.4088 476.435C51.1789 476.435 63.1523 464.462 63.1523 449.692C63.1523 434.922 51.1789 422.948 36.4088 422.948C21.6388 422.948 9.66528 434.922 9.66528 449.692C9.66528 464.462 21.6388 476.435 36.4088 476.435ZM36.4088 477.435C51.7311 477.435 64.1523 465.014 64.1523 449.692C64.1523 434.369 51.7311 421.948 36.4088 421.948C21.0865 421.948 8.66528 434.369 8.66528 449.692C8.66528 465.014 21.0865 477.435 36.4088 477.435Z" fill="#E7AD7A"/>
<path fill-rule="evenodd" clip-rule="evenodd" d="M36.4086 476.435C47.7737 476.435 56.9869 467.222 56.9869 455.857C56.9869 444.492 47.7737 435.279 36.4086 435.279C25.0435 435.279 15.8303 444.492 15.8303 455.857C15.8303 467.222 25.0435 476.435 36.4086 476.435ZM36.4086 477.435C48.326 477.435 57.9869 467.774 57.9869 455.857C57.9869 443.94 48.326 434.279 36.4086 434.279C24.4913 434.279 14.8303 443.94 14.8303 455.857C14.8303 467.774 24.4913 477.435 36.4086 477.435Z" fill="#E7AD7A"/>
<path fill-rule="evenodd" clip-rule="evenodd" d="M36.4089 476.435C44.369 476.435 50.822 469.982 50.822 462.022C50.822 454.062 44.369 447.609 36.4089 447.609C28.4488 447.609 21.9958 454.062 21.9958 462.022C21.9958 469.982 28.4488 476.435 36.4089 476.435ZM36.4089 477.435C44.9213 477.435 51.822 470.535 51.822 462.022C51.822 453.51 44.9213 446.609 36.4089 446.609C27.8965 446.609 20.9958 453.51 20.9958 462.022C20.9958 470.535 27.8965 477.435 36.4089 477.435Z" fill="#E7AD7A"/>
<path fill-rule="evenodd" clip-rule="evenodd" d="M36.5628 477.435L19.8777 414.087H53.248L36.5628 477.435ZM36.5628 473.509L21.1752 415.087H51.9505L36.5628 473.509Z" fill="#E7AD7A"/>
<path fill-rule="evenodd" clip-rule="evenodd" d="M370.5 412.972H308.5V474.972H370.5V412.972ZM307.5 411.972V475.972H371.5V411.972H307.5Z" fill="#E7AD7A"/>
<path fill-rule="evenodd" clip-rule="evenodd" d="M333 439.145L339.5 442.55L346 439.145V448.472H333V439.145ZM334 440.798V447.472H345V440.798L339.5 443.679L334 440.798Z" fill="#E7AD7A"/>
<path fill-rule="evenodd" clip-rule="evenodd" d="M186.5 610.435C203.621 610.435 217.5 596.556 217.5 579.435C217.5 562.314 203.621 548.435 186.5 548.435C169.379 548.435 155.5 562.314 155.5 579.435C155.5 596.556 169.379 610.435 186.5 610.435ZM186.5 611.435C204.173 611.435 218.5 597.108 218.5 579.435C218.5 561.762 204.173 547.435 186.5 547.435C168.827 547.435 154.5 561.762 154.5 579.435C154.5 597.108 168.827 611.435 186.5 611.435Z" fill="#E7AD7A"/>
<path fill-rule="evenodd" clip-rule="evenodd" d="M186.28 548.435H155.5V610.435H186.28V548.435ZM154.5 547.435V611.435H187.28V547.435H154.5Z" fill="#E7AD7A"/>
<path fill-rule="evenodd" clip-rule="evenodd" d="M64.5 548.435H2.5V610.435H64.5V548.435ZM1.5 547.435V611.435H65.5V547.435H1.5Z" fill="#E7AD7A"/>
<path fill-rule="evenodd" clip-rule="evenodd" d="M72.6519 611.435V547.435H73.6519V611.435H72.6519Z" fill="#E7AD7A"/>
<path d="M340.167 567.435C338.065 567.435 335.985 567.866 334.044 568.704C332.102 569.542 330.339 570.769 328.853 572.317C327.367 573.865 326.189 575.702 325.384 577.724C324.58 579.746 324.167 581.913 324.167 584.102C324.167 586.291 324.58 588.458 325.384 590.48C326.189 592.502 327.367 594.339 328.853 595.887C330.339 597.435 332.102 598.662 334.044 599.5C335.985 600.338 338.065 600.769 340.167 600.769L340.167 584.102V567.435Z" fill="#E7AD7A"/>
<path d="M342.833 591.435C344.935 591.435 347.015 591.004 348.956 590.167C350.898 589.329 352.661 588.101 354.147 586.554C355.633 585.006 356.811 583.169 357.616 581.147C358.42 579.125 358.833 576.957 358.833 574.769C358.833 572.58 358.42 570.413 357.616 568.391C356.811 566.368 355.633 564.531 354.147 562.984C352.661 561.436 350.898 560.208 348.956 559.371C347.015 558.533 344.935 558.102 342.833 558.102L342.833 574.769V591.435Z" fill="#E7AD7A"/>
<path fill-rule="evenodd" clip-rule="evenodd" d="M372.5 548.435H310.5V610.435H372.5V548.435ZM309.5 547.435V611.435H373.5V547.435H309.5Z" fill="#E7AD7A"/>
</svg>
