<svg version="1.2" xmlns="http://www.w3.org/2000/svg" xmlns:xlink="http://www.w3.org/1999/xlink" overflow="visible" preserveAspectRatio="none" viewBox="0 0 102 102" height="55.11857025610106" width="55.118570256101"><g transform="translate(1, 1)"><path fill="black" d="M47.9167 31.25C44.6336 31.25 41.3827 31.9236 38.3496 33.2323C35.3164 34.541 32.5605 36.4592 30.239 38.8774C27.9175 41.2956 26.076 44.1664 24.8197 47.326C23.5633 50.4855 22.9167 53.8718 22.9167 57.2917C22.9167 60.7115 23.5633 64.0979 24.8197 67.2574C26.076 70.4169 27.9175 73.2877 30.239 75.7059C32.5605 78.1241 35.3164 80.0423 38.3496 81.351C41.3827 82.6597 44.6336 83.3333 47.9167 83.3333V31.25Z" vector-effect="non-scaling-stroke" style="fill: rgb(231, 173, 122);"/><path fill="black" d="M52.0833 68.75C55.3664 68.75 58.6173 68.0764 61.6504 66.7677C64.6836 65.459 67.4395 63.5408 69.761 61.1226C72.0825 58.7044 73.924 55.8336 75.1803 52.674C76.4367 49.5145 77.0833 46.1282 77.0833 42.7083C77.0833 39.2885 76.4367 35.9021 75.1803 32.7426C73.924 29.5831 72.0825 26.7123 69.761 24.2941C67.4395 21.8759 64.6836 19.9577 61.6504 18.649C58.6173 17.3403 55.3664 16.6667 52.0833 16.6667V68.75Z" vector-effect="non-scaling-stroke" style="fill: rgb(231, 173, 122);"/><path fill="black" d="M97.9167 2.08333H2.08333V97.9167H97.9167V2.08333ZM0 0V100H100V0H0Z" clip-rule="evenodd" fill-rule="evenodd" vector-effect="non-scaling-stroke" style="fill: rgb(231, 173, 122);"/></g></svg>