<svg width="373" height="1069" viewBox="0 0 373 1069" fill="none" xmlns="http://www.w3.org/2000/svg">
<path fill-rule="evenodd" clip-rule="evenodd" d="M93 46H1V1H93V46ZM0 47V0H94V47H0Z" fill="#FFFAFA"/>
<path fill-rule="evenodd" clip-rule="evenodd" d="M186 46H94V1H186V46ZM93 47V0H187V47H93Z" fill="#FFFAFA"/>
<path fill-rule="evenodd" clip-rule="evenodd" d="M279 46H187V1H279V46ZM186 47V0H280V47H186Z" fill="#FFFAFA"/>
<path fill-rule="evenodd" clip-rule="evenodd" d="M372 46H280V1H372V46ZM279 47V0H373V47H279Z" fill="#FFFAFA"/>
<path fill-rule="evenodd" clip-rule="evenodd" d="M93 93H1V48H93V93ZM0 94V47H94V94H0Z" fill="#FFFAFA"/>
<path fill-rule="evenodd" clip-rule="evenodd" d="M186 93H94V48H186V93ZM93 94V47H187V94H93Z" fill="#FFFAFA"/>
<path fill-rule="evenodd" clip-rule="evenodd" d="M279 93H187V48H279V93ZM186 94V47H280V94H186Z" fill="#FFFAFA"/>
<path fill-rule="evenodd" clip-rule="evenodd" d="M372 93H280V48H372V93ZM279 94V47H373V94H279Z" fill="#FFFAFA"/>
<path fill-rule="evenodd" clip-rule="evenodd" d="M93 139H1V94H93V139ZM0 140V93H94V140H0Z" fill="#FFFAFA"/>
<path fill-rule="evenodd" clip-rule="evenodd" d="M186 139H94V94H186V139ZM93 140V93H187V140H93Z" fill="#FFFAFA"/>
<path fill-rule="evenodd" clip-rule="evenodd" d="M279 139H187V94H279V139ZM186 140V93H280V140H186Z" fill="#FFFAFA"/>
<path fill-rule="evenodd" clip-rule="evenodd" d="M372 139H280V94H372V139ZM279 140V93H373V140H279Z" fill="#FFFAFA"/>
<path fill-rule="evenodd" clip-rule="evenodd" d="M93 186H1V141H93V186ZM0 187V140H94V187H0Z" fill="#FFFAFA"/>
<path fill-rule="evenodd" clip-rule="evenodd" d="M186 186H94V141H186V186ZM93 187V140H187V187H93Z" fill="#FFFAFA"/>
<path fill-rule="evenodd" clip-rule="evenodd" d="M279 186H187V141H279V186ZM186 187V140H280V187H186Z" fill="#FFFAFA"/>
<path fill-rule="evenodd" clip-rule="evenodd" d="M372 186H280V141H372V186ZM279 187V140H373V187H279Z" fill="#FFFAFA"/>
<path fill-rule="evenodd" clip-rule="evenodd" d="M93 232H1V187H93V232ZM0 233V186H94V233H0Z" fill="#FFFAFA"/>
<path fill-rule="evenodd" clip-rule="evenodd" d="M186 232H94V187H186V232ZM93 233V186H187V233H93Z" fill="#FFFAFA"/>
<path fill-rule="evenodd" clip-rule="evenodd" d="M279 232H187V187H279V232ZM186 233V186H280V233H186Z" fill="#FFFAFA"/>
<path fill-rule="evenodd" clip-rule="evenodd" d="M372 232H280V187H372V232ZM279 233V186H373V233H279Z" fill="#FFFAFA"/>
<path fill-rule="evenodd" clip-rule="evenodd" d="M93 279H1V234H93V279ZM0 280V233H94V280H0Z" fill="#FFFAFA"/>
<path fill-rule="evenodd" clip-rule="evenodd" d="M186 279H94V234H186V279ZM93 280V233H187V280H93Z" fill="#FFFAFA"/>
<path fill-rule="evenodd" clip-rule="evenodd" d="M279 279H187V234H279V279ZM186 280V233H280V280H186Z" fill="#FFFAFA"/>
<path fill-rule="evenodd" clip-rule="evenodd" d="M372 279H280V234H372V279ZM279 280V233H373V280H279Z" fill="#FFFAFA"/>
<path fill-rule="evenodd" clip-rule="evenodd" d="M93 325H1V280H93V325ZM0 326V279H94V326H0Z" fill="#FFFAFA"/>
<path fill-rule="evenodd" clip-rule="evenodd" d="M186 325H94V280H186V325ZM93 326V279H187V326H93Z" fill="#FFFAFA"/>
<path fill-rule="evenodd" clip-rule="evenodd" d="M279 325H187V280H279V325ZM186 326V279H280V326H186Z" fill="#FFFAFA"/>
<path fill-rule="evenodd" clip-rule="evenodd" d="M372 325H280V280H372V325ZM279 326V279H373V326H279Z" fill="#FFFAFA"/>
<path fill-rule="evenodd" clip-rule="evenodd" d="M93 372H1V327H93V372ZM0 373V326H94V373H0Z" fill="#FFFAFA"/>
<path fill-rule="evenodd" clip-rule="evenodd" d="M186 372H94V327H186V372ZM93 373V326H187V373H93Z" fill="#FFFAFA"/>
<path fill-rule="evenodd" clip-rule="evenodd" d="M279 372H187V327H279V372ZM186 373V326H280V373H186Z" fill="#FFFAFA"/>
<path fill-rule="evenodd" clip-rule="evenodd" d="M372 372H280V327H372V372ZM279 373V326H373V373H279Z" fill="#FFFAFA"/>
<path fill-rule="evenodd" clip-rule="evenodd" d="M93 418H1V373H93V418ZM0 419V372H94V419H0Z" fill="#FFFAFA"/>
<path fill-rule="evenodd" clip-rule="evenodd" d="M186 418H94V373H186V418ZM93 419V372H187V419H93Z" fill="#FFFAFA"/>
<path fill-rule="evenodd" clip-rule="evenodd" d="M279 418H187V373H279V418ZM186 419V372H280V419H186Z" fill="#FFFAFA"/>
<path fill-rule="evenodd" clip-rule="evenodd" d="M372 418H280V373H372V418ZM279 419V372H373V419H279Z" fill="#FFFAFA"/>
<path fill-rule="evenodd" clip-rule="evenodd" d="M93 465H1V420H93V465ZM0 466V419H94V466H0Z" fill="#FFFAFA"/>
<path fill-rule="evenodd" clip-rule="evenodd" d="M186 465H94V420H186V465ZM93 466V419H187V466H93Z" fill="#FFFAFA"/>
<path fill-rule="evenodd" clip-rule="evenodd" d="M279 465H187V420H279V465ZM186 466V419H280V466H186Z" fill="#FFFAFA"/>
<path fill-rule="evenodd" clip-rule="evenodd" d="M372 465H280V420H372V465ZM279 466V419H373V466H279Z" fill="#FFFAFA"/>
<path fill-rule="evenodd" clip-rule="evenodd" d="M93 511H1V466H93V511ZM0 512V465H94V512H0Z" fill="#FFFAFA"/>
<path fill-rule="evenodd" clip-rule="evenodd" d="M186 511H94V466H186V511ZM93 512V465H187V512H93Z" fill="#FFFAFA"/>
<path fill-rule="evenodd" clip-rule="evenodd" d="M279 511H187V466H279V511ZM186 512V465H280V512H186Z" fill="#FFFAFA"/>
<path fill-rule="evenodd" clip-rule="evenodd" d="M372 511H280V466H372V511ZM279 512V465H373V512H279Z" fill="#FFFAFA"/>
<path fill-rule="evenodd" clip-rule="evenodd" d="M93 558H1V513H93V558ZM0 559V512H94V559H0Z" fill="#FFFAFA"/>
<path fill-rule="evenodd" clip-rule="evenodd" d="M186 558H94V513H186V558ZM93 559V512H187V559H93Z" fill="#FFFAFA"/>
<path fill-rule="evenodd" clip-rule="evenodd" d="M279 558H187V513H279V558ZM186 559V512H280V559H186Z" fill="#FFFAFA"/>
<path fill-rule="evenodd" clip-rule="evenodd" d="M372 558H280V513H372V558ZM279 559V512H373V559H279Z" fill="#FFFAFA"/>
<path fill-rule="evenodd" clip-rule="evenodd" d="M93 604H1V559H93V604ZM0 605V558H94V605H0Z" fill="#FFFAFA"/>
<path fill-rule="evenodd" clip-rule="evenodd" d="M186 604H94V559H186V604ZM93 605V558H187V605H93Z" fill="#FFFAFA"/>
<path fill-rule="evenodd" clip-rule="evenodd" d="M279 604H187V559H279V604ZM186 605V558H280V605H186Z" fill="#FFFAFA"/>
<path fill-rule="evenodd" clip-rule="evenodd" d="M372 604H280V559H372V604ZM279 605V558H373V605H279Z" fill="#FFFAFA"/>
<path fill-rule="evenodd" clip-rule="evenodd" d="M93 651H1V606H93V651ZM0 652V605H94V652H0Z" fill="#FFFAFA"/>
<path fill-rule="evenodd" clip-rule="evenodd" d="M186 651H94V606H186V651ZM93 652V605H187V652H93Z" fill="#FFFAFA"/>
<path fill-rule="evenodd" clip-rule="evenodd" d="M279 651H187V606H279V651ZM186 652V605H280V652H186Z" fill="#FFFAFA"/>
<path fill-rule="evenodd" clip-rule="evenodd" d="M372 651H280V606H372V651ZM279 652V605H373V652H279Z" fill="#FFFAFA"/>
<path fill-rule="evenodd" clip-rule="evenodd" d="M93 697H1V652H93V697ZM0 698V651H94V698H0Z" fill="#FFFAFA"/>
<path fill-rule="evenodd" clip-rule="evenodd" d="M186 697H94V652H186V697ZM93 698V651H187V698H93Z" fill="#FFFAFA"/>
<path fill-rule="evenodd" clip-rule="evenodd" d="M279 697H187V652H279V697ZM186 698V651H280V698H186Z" fill="#FFFAFA"/>
<path fill-rule="evenodd" clip-rule="evenodd" d="M372 697H280V652H372V697ZM279 698V651H373V698H279Z" fill="#FFFAFA"/>
<path fill-rule="evenodd" clip-rule="evenodd" d="M93 744H1V699H93V744ZM0 745V698H94V745H0Z" fill="#FFFAFA"/>
<path fill-rule="evenodd" clip-rule="evenodd" d="M186 744H94V699H186V744ZM93 745V698H187V745H93Z" fill="#FFFAFA"/>
<path fill-rule="evenodd" clip-rule="evenodd" d="M279 744H187V699H279V744ZM186 745V698H280V745H186Z" fill="#FFFAFA"/>
<path fill-rule="evenodd" clip-rule="evenodd" d="M372 744H280V699H372V744ZM279 745V698H373V745H279Z" fill="#FFFAFA"/>
<path fill-rule="evenodd" clip-rule="evenodd" d="M93 790H1V745H93V790ZM0 791V744H94V791H0Z" fill="#FFFAFA"/>
<path fill-rule="evenodd" clip-rule="evenodd" d="M186 790H94V745H186V790ZM93 791V744H187V791H93Z" fill="#FFFAFA"/>
<path fill-rule="evenodd" clip-rule="evenodd" d="M279 790H187V745H279V790ZM186 791V744H280V791H186Z" fill="#FFFAFA"/>
<path fill-rule="evenodd" clip-rule="evenodd" d="M372 790H280V745H372V790ZM279 791V744H373V791H279Z" fill="#FFFAFA"/>
<path fill-rule="evenodd" clip-rule="evenodd" d="M93 837H1V792H93V837ZM0 838V791H94V838H0Z" fill="#FFFAFA"/>
<path fill-rule="evenodd" clip-rule="evenodd" d="M186 837H94V792H186V837ZM93 838V791H187V838H93Z" fill="#FFFAFA"/>
<path fill-rule="evenodd" clip-rule="evenodd" d="M279 837H187V792H279V837ZM186 838V791H280V838H186Z" fill="#FFFAFA"/>
<path fill-rule="evenodd" clip-rule="evenodd" d="M372 837H280V792H372V837ZM279 838V791H373V838H279Z" fill="#FFFAFA"/>
<path fill-rule="evenodd" clip-rule="evenodd" d="M93 883H1V838H93V883ZM0 884V837H94V884H0Z" fill="#FFFAFA"/>
<path fill-rule="evenodd" clip-rule="evenodd" d="M186 883H94V838H186V883ZM93 884V837H187V884H93Z" fill="#FFFAFA"/>
<path fill-rule="evenodd" clip-rule="evenodd" d="M279 883H187V838H279V883ZM186 884V837H280V884H186Z" fill="#FFFAFA"/>
<path fill-rule="evenodd" clip-rule="evenodd" d="M372 883H280V838H372V883ZM279 884V837H373V884H279Z" fill="#FFFAFA"/>
<path fill-rule="evenodd" clip-rule="evenodd" d="M93 930H1V885H93V930ZM0 931V884H94V931H0Z" fill="#FFFAFA"/>
<path fill-rule="evenodd" clip-rule="evenodd" d="M186 930H94V885H186V930ZM93 931V884H187V931H93Z" fill="#FFFAFA"/>
<path fill-rule="evenodd" clip-rule="evenodd" d="M279 930H187V885H279V930ZM186 931V884H280V931H186Z" fill="#FFFAFA"/>
<path fill-rule="evenodd" clip-rule="evenodd" d="M372 930H280V885H372V930ZM279 931V884H373V931H279Z" fill="#FFFAFA"/>
<path fill-rule="evenodd" clip-rule="evenodd" d="M93 929H1V884H93V929ZM0 930V883H94V930H0Z" fill="#FFFAFA"/>
<path fill-rule="evenodd" clip-rule="evenodd" d="M186 929H94V884H186V929ZM93 930V883H187V930H93Z" fill="#FFFAFA"/>
<path fill-rule="evenodd" clip-rule="evenodd" d="M279 929H187V884H279V929ZM186 930V883H280V930H186Z" fill="#FFFAFA"/>
<path fill-rule="evenodd" clip-rule="evenodd" d="M372 929H280V884H372V929ZM279 930V883H373V930H279Z" fill="#FFFAFA"/>
<path fill-rule="evenodd" clip-rule="evenodd" d="M93 975H1V930H93V975ZM0 976V929H94V976H0Z" fill="#FFFAFA"/>
<path fill-rule="evenodd" clip-rule="evenodd" d="M186 975H94V930H186V975ZM93 976V929H187V976H93Z" fill="#FFFAFA"/>
<path fill-rule="evenodd" clip-rule="evenodd" d="M279 975H187V930H279V975ZM186 976V929H280V976H186Z" fill="#FFFAFA"/>
<path fill-rule="evenodd" clip-rule="evenodd" d="M372 975H280V930H372V975ZM279 976V929H373V976H279Z" fill="#FFFAFA"/>
<path fill-rule="evenodd" clip-rule="evenodd" d="M93 1021H1V976H93V1021ZM0 1022V975H94V1022H0Z" fill="#FFFAFA"/>
<path fill-rule="evenodd" clip-rule="evenodd" d="M186 1021H94V976H186V1021ZM93 1022V975H187V1022H93Z" fill="#FFFAFA"/>
<path fill-rule="evenodd" clip-rule="evenodd" d="M279 1021H187V976H279V1021ZM186 1022V975H280V1022H186Z" fill="#FFFAFA"/>
<path fill-rule="evenodd" clip-rule="evenodd" d="M372 1021H280V976H372V1021ZM279 1022V975H373V1022H279Z" fill="#FFFAFA"/>
<path fill-rule="evenodd" clip-rule="evenodd" d="M93 1068H1V1023H93V1068ZM0 1069V1022H94V1069H0Z" fill="#FFFAFA"/>
<path fill-rule="evenodd" clip-rule="evenodd" d="M186 1068H94V1023H186V1068ZM93 1069V1022H187V1069H93Z" fill="#FFFAFA"/>
<path fill-rule="evenodd" clip-rule="evenodd" d="M279 1068H187V1023H279V1068ZM186 1069V1022H280V1069H186Z" fill="#FFFAFA"/>
<path fill-rule="evenodd" clip-rule="evenodd" d="M372 1068H280V1023H372V1068ZM279 1069V1022H373V1069H279Z" fill="#FFFAFA"/>
</svg>
