<svg version="1.2" xmlns="http://www.w3.org/2000/svg" xmlns:xlink="http://www.w3.org/1999/xlink" overflow="visible" preserveAspectRatio="none" viewBox="0 0 102 167" height="73.24999999999997" width="44.393939393939384"><g transform="translate(1, 1)"><path fill="black" d="M20.3372 131.583C18.8984 131.583 17.8386 131.223 17.1581 130.503C16.4775 129.783 16.1372 128.654 16.1372 127.117V119.149H13.7747V117.164H16.1372V113.72H18.4706V117.164H22.8747V119.149H18.4706V126.767C18.4706 127.701 18.6747 128.401 19.0831 128.869C19.4914 129.316 20.1039 129.54 20.9206 129.54C21.4845 129.54 22.097 129.462 22.7581 129.306V131.291C21.922 131.486 21.115 131.583 20.3372 131.583Z" vector-effect="non-scaling-stroke" style="fill: rgb(0, 0, 0);"/><path fill="black" d="M30.4196 116.989C30.9251 116.989 31.4015 117.047 31.8487 117.164V119.265C31.4015 119.168 30.9251 119.119 30.4196 119.119C29.1557 119.119 28.2029 119.499 27.5612 120.258C26.9196 120.997 26.5987 122.068 26.5987 123.469V131.35H24.2654V117.164H26.5696V119.003C26.9585 118.361 27.4737 117.864 28.1154 117.514C28.7571 117.164 29.5251 116.989 30.4196 116.989Z" vector-effect="non-scaling-stroke" style="fill: rgb(0, 0, 0);"/><path fill="black" d="M42.5613 128.693C42.8724 128.401 43.1252 128.061 43.3197 127.672C43.5141 127.263 43.6308 126.825 43.6697 126.358H46.003C45.8863 127.837 45.3224 129.053 44.3113 130.007C43.6891 130.552 42.9502 130.97 42.0947 131.262C41.2391 131.534 40.2863 131.671 39.2363 131.671C37.6419 131.671 36.2808 131.35 35.153 130.707C34.0252 130.065 33.2086 129.151 32.703 127.964C32.2169 126.971 31.9738 125.736 31.9738 124.257C31.9738 123.498 32.0322 122.817 32.1488 122.213C32.2655 121.61 32.4502 121.046 32.703 120.521C33.228 119.353 34.0349 118.448 35.1238 117.806C36.2127 117.144 37.5252 116.814 39.0613 116.814C40.5974 116.814 41.9002 117.135 42.9697 117.777C44.0586 118.419 44.8558 119.304 45.3613 120.433C45.6336 121.056 45.8183 121.708 45.9155 122.389C46.0322 123.07 46.0905 123.867 46.0905 124.782H34.3363C34.3947 125.813 34.5697 126.66 34.8613 127.322C35.2113 128.1 35.7558 128.703 36.4947 129.131C37.2336 129.54 38.1377 129.744 39.2072 129.744C39.9072 129.744 40.5391 129.657 41.103 129.481C41.6863 129.306 42.1724 129.044 42.5613 128.693ZM39.0905 118.769C36.9905 118.769 35.5808 119.586 34.8613 121.221C34.628 121.766 34.4724 122.359 34.3947 123.002H43.6988C43.6211 122.282 43.4655 121.639 43.2322 121.075C42.9016 120.316 42.3863 119.742 41.6863 119.353C40.9863 118.964 40.1211 118.769 39.0905 118.769Z" vector-effect="non-scaling-stroke" style="fill: rgb(0, 0, 0);"/><path fill="black" d="M61.0758 110.742V131.35H58.7716V129.19C58.2466 130.007 57.5466 130.63 56.6716 131.058C55.7966 131.466 54.8049 131.671 53.6966 131.671C52.3355 131.671 51.1591 131.369 50.1674 130.766C49.1758 130.143 48.4272 129.277 47.9216 128.168C47.4161 127.039 47.1633 125.736 47.1633 124.257C47.1633 122.778 47.4161 121.474 47.9216 120.345C48.4272 119.217 49.1758 118.351 50.1674 117.748C51.1591 117.125 52.3355 116.814 53.6966 116.814C54.7855 116.814 55.7675 117.028 56.6425 117.456C57.5175 117.864 58.2174 118.468 58.7424 119.265V110.742H61.0758ZM58.7424 123.906C58.7424 122.836 58.5577 121.922 58.1883 121.163C57.8188 120.404 57.2938 119.83 56.6133 119.441C55.9522 119.051 55.1647 118.857 54.2508 118.857C53.298 118.857 52.4716 119.061 51.7716 119.47C51.0716 119.878 50.5466 120.482 50.1966 121.279C49.8272 122.077 49.6424 123.07 49.6424 124.257C49.6424 125.405 49.8272 126.397 50.1966 127.234C50.5466 128.012 51.0716 128.616 51.7716 129.044C52.4716 129.452 53.298 129.657 54.2508 129.657C55.1647 129.657 55.9522 129.462 56.6133 129.073C57.2938 128.684 57.8188 128.11 58.1883 127.351C58.5577 126.592 58.7424 125.677 58.7424 124.607V123.906Z" vector-effect="non-scaling-stroke" style="fill: rgb(0, 0, 0);"/><path fill="black" d="M73.4244 128.693C73.7356 128.401 73.9883 128.061 74.1828 127.672C74.3772 127.263 74.4939 126.825 74.5328 126.358H76.8661C76.7494 127.837 76.1856 129.053 75.1744 130.007C74.5522 130.552 73.8133 130.97 72.9578 131.262C72.1022 131.534 71.1494 131.671 70.0994 131.671C68.505 131.671 67.1439 131.35 66.0161 130.707C64.8883 130.065 64.0717 129.151 63.5661 127.964C63.08 126.971 62.8369 125.736 62.8369 124.257C62.8369 123.498 62.8953 122.817 63.0119 122.213C63.1286 121.61 63.3133 121.046 63.5661 120.521C64.0911 119.353 64.8981 118.448 65.9869 117.806C67.0758 117.144 68.3883 116.814 69.9244 116.814C71.4606 116.814 72.7633 117.135 73.8328 117.777C74.9217 118.419 75.7189 119.304 76.2245 120.433C76.4967 121.056 76.6814 121.708 76.7786 122.389C76.8953 123.07 76.9536 123.867 76.9536 124.782H65.1995C65.2578 125.813 65.4328 126.66 65.7244 127.322C66.0744 128.1 66.6189 128.703 67.3578 129.131C68.0967 129.54 69.0008 129.744 70.0703 129.744C70.7703 129.744 71.4022 129.657 71.9661 129.481C72.5494 129.306 73.0356 129.044 73.4244 128.693ZM69.9536 118.769C67.8536 118.769 66.4439 119.586 65.7244 121.221C65.4911 121.766 65.3356 122.359 65.2578 123.002H74.562C74.4842 122.282 74.3286 121.639 74.0953 121.075C73.7647 120.316 73.2495 119.742 72.5495 119.353C71.8495 118.964 70.9842 118.769 69.9536 118.769Z" vector-effect="non-scaling-stroke" style="fill: rgb(0, 0, 0);"/><path fill="black" d="M84.8826 116.989C85.3882 116.989 85.8646 117.047 86.3118 117.164V119.265C85.8646 119.168 85.3882 119.119 84.8826 119.119C83.6187 119.119 82.666 119.499 82.0243 120.258C81.3826 120.997 81.0618 122.068 81.0618 123.469V131.35H78.7285V117.164H81.0326V119.003C81.4215 118.361 81.9368 117.864 82.5784 117.514C83.2201 117.164 83.9882 116.989 84.8826 116.989Z" vector-effect="non-scaling-stroke" style="fill: rgb(0, 0, 0);"/><path fill="black" d="M25.0065 137.846V158.453H22.7024V156.293C22.1774 157.111 21.4774 157.733 20.6024 158.162C19.7274 158.57 18.7357 158.775 17.6274 158.775C16.2663 158.775 15.0899 158.473 14.0982 157.87C13.1065 157.247 12.3579 156.381 11.8524 155.272C11.3468 154.143 11.094 152.839 11.094 151.361C11.094 149.882 11.3468 148.578 11.8524 147.449C12.3579 146.321 13.1065 145.455 14.0982 144.851C15.0899 144.229 16.2663 143.917 17.6274 143.917C18.7163 143.917 19.6982 144.131 20.5732 144.56C21.4482 144.968 22.1482 145.571 22.6732 146.369V137.846H25.0065ZM22.6732 151.01C22.6732 149.94 22.4885 149.025 22.119 148.267C21.7496 147.508 21.2246 146.934 20.544 146.544C19.8829 146.155 19.0954 145.961 18.1815 145.961C17.2288 145.961 16.4024 146.165 15.7024 146.574C15.0024 146.982 14.4774 147.585 14.1274 148.383C13.7579 149.181 13.5732 150.174 13.5732 151.361C13.5732 152.509 13.7579 153.501 14.1274 154.338C14.4774 155.116 15.0024 155.719 15.7024 156.148C16.4024 156.556 17.2288 156.76 18.1815 156.76C19.0954 156.76 19.8829 156.566 20.544 156.177C21.2246 155.788 21.7496 155.213 22.119 154.455C22.4885 153.696 22.6732 152.781 22.6732 151.711V151.01Z" vector-effect="non-scaling-stroke" style="fill: rgb(0, 0, 0);"/><path fill="black" d="M37.3552 155.797C37.6663 155.505 37.9191 155.165 38.1135 154.776C38.308 154.367 38.4246 153.929 38.4635 153.462H40.7969C40.6802 154.941 40.1163 156.157 39.1052 157.111C38.483 157.656 37.7441 158.074 36.8885 158.366C36.033 158.638 35.0802 158.775 34.0302 158.775C32.4357 158.775 31.0746 158.453 29.9469 157.811C28.8191 157.169 28.0024 156.255 27.4969 155.068C27.0108 154.075 26.7677 152.839 26.7677 151.361C26.7677 150.602 26.826 149.921 26.9427 149.317C27.0594 148.714 27.2441 148.15 27.4969 147.624C28.0219 146.457 28.8288 145.552 29.9177 144.91C31.0066 144.248 32.3191 143.917 33.8552 143.917C35.3913 143.917 36.6941 144.238 37.7635 144.881C38.8524 145.523 39.6496 146.408 40.1552 147.537C40.4274 148.16 40.6121 148.811 40.7094 149.492C40.826 150.174 40.8844 150.971 40.8844 151.886H29.1302C29.1885 152.917 29.3635 153.764 29.6552 154.425C30.0052 155.204 30.5496 155.807 31.2885 156.235C32.0274 156.644 32.9316 156.848 34.001 156.848C34.701 156.848 35.333 156.76 35.8969 156.585C36.4802 156.41 36.9663 156.148 37.3552 155.797ZM33.8844 145.873C31.7844 145.873 30.3746 146.69 29.6552 148.325C29.4219 148.87 29.2663 149.463 29.1885 150.105H38.4927C38.4149 149.385 38.2594 148.743 38.026 148.179C37.6955 147.42 37.1802 146.846 36.4802 146.457C35.7802 146.068 34.9149 145.873 33.8844 145.873Z" vector-effect="non-scaling-stroke" style="fill: rgb(0, 0, 0);"/><path fill="black" d="M47.705 158.833C46.305 158.833 45.1481 158.609 44.2342 158.162C43.3203 157.695 42.6689 157.013 42.28 156.118C41.9689 155.437 41.8134 154.63 41.8134 153.696H44.1175C44.1175 154.338 44.2245 154.873 44.4384 155.301C44.9245 156.43 46.0231 156.994 47.7342 156.994C48.5703 156.994 49.2606 156.877 49.805 156.644C50.3689 156.41 50.7481 156.06 50.9425 155.593C51.0786 155.243 51.1467 154.931 51.1467 154.659C51.1467 154.328 51.0884 154.046 50.9717 153.812C50.8161 153.482 50.5634 153.219 50.2134 153.024C49.8828 152.81 49.4842 152.645 49.0175 152.528C48.5703 152.392 47.9286 152.236 47.0925 152.061C45.9453 151.808 44.9925 151.487 44.2342 151.098C43.4759 150.689 42.9411 150.135 42.63 149.434C42.4356 148.987 42.3384 148.481 42.3384 147.916C42.3384 147.313 42.455 146.778 42.6884 146.311C43.0189 145.552 43.6023 144.968 44.4384 144.56C45.2939 144.131 46.3342 143.917 47.5592 143.917C48.8231 143.917 49.8828 144.131 50.7384 144.56C51.5939 144.968 52.2064 145.581 52.5759 146.398C52.8481 146.963 52.9842 147.663 52.9842 148.5H50.7384C50.7384 148.014 50.6411 147.556 50.4467 147.128C50.2328 146.642 49.8731 146.282 49.3675 146.048C48.862 145.795 48.2495 145.669 47.53 145.669C46.8106 145.669 46.2175 145.776 45.7509 145.99C45.3036 146.204 44.9925 146.505 44.8175 146.895C44.7009 147.148 44.6425 147.43 44.6425 147.741C44.6425 148.014 44.6911 148.247 44.7884 148.442C44.9439 148.772 45.2064 149.045 45.5759 149.259C45.9453 149.473 46.3439 149.648 46.7717 149.784C47.1995 149.901 47.8217 150.047 48.6384 150.222C49.8828 150.514 50.8842 150.864 51.6425 151.273C52.4009 151.662 52.9453 152.217 53.2759 152.937C53.4703 153.384 53.5675 153.9 53.5675 154.484C53.5675 155.145 53.4509 155.739 53.2175 156.264C52.8481 157.101 52.1773 157.743 51.205 158.191C50.2328 158.619 49.0661 158.833 47.705 158.833Z" vector-effect="non-scaling-stroke" style="fill: rgb(0, 0, 0);"/><path fill="black" d="M56.481 141.728C55.9949 141.728 55.606 141.602 55.3143 141.349C55.0421 141.076 54.906 140.716 54.906 140.269C54.906 139.841 55.0518 139.49 55.3435 139.218C55.6352 138.946 56.0143 138.809 56.481 138.809C56.9088 138.809 57.2685 138.946 57.5602 139.218C57.8518 139.49 57.9977 139.841 57.9977 140.269C57.9977 140.697 57.8518 141.047 57.5602 141.32C57.2685 141.592 56.9088 141.728 56.481 141.728ZM55.2852 144.268H57.6185V158.453H55.2852V144.268Z" vector-effect="non-scaling-stroke" style="fill: rgb(0, 0, 0);"/><path fill="black" d="M73.2596 144.268V158.162C73.2596 159.446 73.036 160.565 72.5888 161.518C72.1026 162.569 71.3443 163.357 70.3138 163.883C69.3026 164.408 68.029 164.671 66.4929 164.671C64.1596 164.671 62.429 164.145 61.3013 163.094C60.3485 162.238 59.8332 161.09 59.7554 159.65H62.1763C62.1957 160.526 62.5165 161.236 63.1388 161.781C63.5082 162.112 63.9749 162.365 64.5388 162.54C65.1026 162.715 65.7443 162.803 66.4638 162.803C68.5249 162.803 69.8763 162.102 70.5179 160.701C70.7707 160.039 70.8971 159.31 70.8971 158.512V156.264C70.3721 157.082 69.6721 157.695 68.7971 158.103C67.9415 158.512 66.9693 158.716 65.8804 158.716C64.5193 158.716 63.3429 158.415 62.3513 157.811C61.3596 157.189 60.6207 156.323 60.1346 155.213C59.629 154.085 59.3763 152.791 59.3763 151.331C59.3763 149.852 59.629 148.549 60.1346 147.42C60.6207 146.311 61.3596 145.455 62.3513 144.851C63.3429 144.229 64.5193 143.917 65.8804 143.917C66.9693 143.917 67.9513 144.131 68.8263 144.56C69.7013 144.988 70.4013 145.61 70.9263 146.428V144.268H73.2596ZM66.4054 156.702C67.3193 156.702 68.1068 156.508 68.7679 156.118C69.4485 155.729 69.9735 155.165 70.3429 154.425C70.7124 153.666 70.8971 152.752 70.8971 151.682V150.981C70.8971 149.911 70.7124 149.006 70.3429 148.267C69.9735 147.508 69.4485 146.934 68.7679 146.544C68.1068 146.155 67.3193 145.961 66.4054 145.961C65.4526 145.961 64.6263 146.165 63.9263 146.574C63.2457 146.982 62.7304 147.576 62.3804 148.354C62.0304 149.132 61.8554 150.125 61.8554 151.331C61.8554 152.499 62.0304 153.491 62.3804 154.309C62.7304 155.087 63.2554 155.681 63.9554 156.089C64.6554 156.498 65.4721 156.702 66.4054 156.702Z" vector-effect="non-scaling-stroke" style="fill: rgb(0, 0, 0);"/><path fill="black" d="M82.8381 143.917C84.6075 143.917 85.9492 144.423 86.8631 145.435C87.7964 146.428 88.2631 147.907 88.2631 149.872V158.453H85.9298V150.31C85.9298 148.811 85.6284 147.712 85.0256 147.011C84.4228 146.311 83.4992 145.961 82.2548 145.961C80.9325 145.961 79.9117 146.34 79.1923 147.099C78.4923 147.858 78.1423 148.957 78.1423 150.397V158.453H75.8089V144.268H78.1423V146.194C79.1145 144.676 80.6798 143.917 82.8381 143.917Z" vector-effect="non-scaling-stroke" style="fill: rgb(0, 0, 0);"/><path fill="black" d="M47.9167 31.2737C44.6336 31.2737 41.3827 31.9478 38.3496 33.2575C35.3164 34.5672 32.5605 36.4869 30.239 38.9069C27.9175 41.327 26.076 44.2 24.8197 47.3619C23.5633 50.5238 22.9167 53.9127 22.9167 57.3352C22.9167 60.7576 23.5633 64.1465 24.8197 67.3084C26.076 70.4704 27.9175 73.3433 30.239 75.7634C32.5605 78.1834 35.3164 80.1031 38.3496 81.4128C41.3827 82.7225 44.6336 83.3966 47.9167 83.3966V31.2737Z" vector-effect="non-scaling-stroke" style="fill: rgb(0, 0, 0);"/><path fill="black" d="M52.0833 68.8022C55.3664 68.8022 58.6173 68.1281 61.6504 66.8184C64.6836 65.5087 67.4395 63.589 69.761 61.169C72.0825 58.7489 73.924 55.8759 75.1803 52.714C76.4367 49.5521 77.0833 46.1632 77.0833 42.7408C77.0833 39.3183 76.4367 35.9294 75.1803 32.7675C73.924 29.6056 72.0825 26.7326 69.761 24.3125C67.4395 21.8925 64.6836 19.9728 61.6504 18.6631C58.6173 17.3534 55.3664 16.6793 52.0833 16.6793V68.8022Z" vector-effect="non-scaling-stroke" style="fill: rgb(0, 0, 0);"/><path fill="black" d="M97.9167 2.08491H2.08333V97.991H97.9167V2.08491ZM0 0V100.076H100V0H0Z" clip-rule="evenodd" fill-rule="evenodd" vector-effect="non-scaling-stroke" style="fill: rgb(0, 0, 0);"/></g></svg>