<svg width="374" height="745" viewBox="0 0 374 745" fill="none" xmlns="http://www.w3.org/2000/svg">
<path fill-rule="evenodd" clip-rule="evenodd" d="M23.5 349C35.9264 349 46 338.926 46 326.5C46 314.074 35.9264 304 23.5 304C11.0736 304 1 314.074 1 326.5C1 338.926 11.0736 349 23.5 349ZM23.5 350C36.4787 350 47 339.479 47 326.5C47 313.521 36.4787 303 23.5 303C10.5213 303 0 313.521 0 326.5C0 339.479 10.5213 350 23.5 350Z" fill="#E7AD7A"/>
<path fill-rule="evenodd" clip-rule="evenodd" d="M93 280.011C87.2999 280.135 81.6694 281.317 76.3966 283.502C70.8156 285.813 65.7446 289.202 61.4731 293.473C57.2016 297.745 53.8133 302.816 51.5015 308.397C49.1898 313.978 48 319.959 48 326C48 332.041 49.1898 338.022 51.5015 343.603C53.8133 349.184 57.2016 354.255 61.4731 358.527C65.7446 362.798 70.8156 366.187 76.3966 368.498C81.6694 370.683 87.2999 371.865 93 371.989V280.011ZM93 279.011C87.1685 279.135 81.408 280.343 76.0139 282.578C70.3116 284.94 65.1303 288.402 60.766 292.766C56.4016 297.13 52.9396 302.312 50.5777 308.014C48.2157 313.716 47 319.828 47 326C47 332.172 48.2157 338.284 50.5777 343.986C52.9396 349.688 56.4016 354.87 60.766 359.234C65.1303 363.598 70.3116 367.06 76.0139 369.422C81.408 371.657 87.1685 372.865 93 372.989C93.3331 372.996 93.6665 373 94 373V279C93.6665 279 93.3331 279.004 93 279.011Z" fill="#E7AD7A"/>
<path fill-rule="evenodd" clip-rule="evenodd" d="M210.5 349C222.926 349 233 338.926 233 326.5C233 314.074 222.926 304 210.5 304C198.074 304 188 314.074 188 326.5C188 338.926 198.074 349 210.5 349ZM210.5 350C223.479 350 234 339.479 234 326.5C234 313.521 223.479 303 210.5 303C197.521 303 187 313.521 187 326.5C187 339.479 197.521 350 210.5 350Z" fill="#E7AD7A"/>
<path fill-rule="evenodd" clip-rule="evenodd" d="M279 280.011C273.3 280.135 267.669 281.317 262.397 283.502C256.816 285.813 251.745 289.202 247.473 293.473C243.202 297.745 239.813 302.816 237.502 308.397C235.19 313.978 234 319.959 234 326C234 332.041 235.19 338.022 237.502 343.603C239.813 349.184 243.202 354.255 247.473 358.527C251.745 362.798 256.816 366.187 262.397 368.498C267.669 370.683 273.3 371.865 279 371.989V280.011ZM279 279.011C273.169 279.135 267.408 280.343 262.014 282.578C256.312 284.94 251.13 288.402 246.766 292.766C242.402 297.13 238.94 302.312 236.578 308.014C234.216 313.716 233 319.828 233 326C233 332.172 234.216 338.284 236.578 343.986C238.94 349.688 242.402 354.87 246.766 359.234C251.13 363.598 256.312 367.06 262.014 369.422C267.408 371.657 273.169 372.865 279 372.989C279.333 372.996 279.666 373 280 373V279C279.666 279 279.333 279.004 279 279.011Z" fill="#E7AD7A"/>
<path fill-rule="evenodd" clip-rule="evenodd" d="M372 1H280V93H372V1ZM279 0V94H373V0H279Z" fill="#E7AD7A"/>
<path fill-rule="evenodd" clip-rule="evenodd" d="M279 1H187V93H279V1ZM186 0V94H280V0H186Z" fill="#E7AD7A"/>
<path fill-rule="evenodd" clip-rule="evenodd" d="M186 1H94V93H186V1ZM93 0V94H187V0H93Z" fill="#E7AD7A"/>
<path fill-rule="evenodd" clip-rule="evenodd" d="M93 1H1V93H93V1ZM0 0V94H94V0H0Z" fill="#E7AD7A"/>
<path fill-rule="evenodd" clip-rule="evenodd" d="M372 94H280V186H372V94ZM279 93V187H373V93H279Z" fill="#E7AD7A"/>
<path fill-rule="evenodd" clip-rule="evenodd" d="M279 94H187V186H279V94ZM186 93V187H280V93H186Z" fill="#E7AD7A"/>
<path fill-rule="evenodd" clip-rule="evenodd" d="M186 94H94V186H186V94ZM93 93V187H187V93H93Z" fill="#E7AD7A"/>
<path fill-rule="evenodd" clip-rule="evenodd" d="M93 94H1V186H93V94ZM0 93V187H94V93H0Z" fill="#E7AD7A"/>
<path fill-rule="evenodd" clip-rule="evenodd" d="M372 187H280V279H372V187ZM279 186V280L372.5 280.116L373 274.462L372.75 268.808L373 257.5V233V186H279Z" fill="#E7AD7A"/>
<path fill-rule="evenodd" clip-rule="evenodd" d="M279 187H187V279H279V187ZM186 186V280H280V186H186Z" fill="#E7AD7A"/>
<path fill-rule="evenodd" clip-rule="evenodd" d="M186 187H94V279H186V187ZM93 186V280H187V186H93Z" fill="#E7AD7A"/>
<path fill-rule="evenodd" clip-rule="evenodd" d="M93 187H1V279H93V187ZM0 186V280H94V186H0Z" fill="#E7AD7A"/>
<path fill-rule="evenodd" clip-rule="evenodd" d="M372 280H280V372H372V280ZM279 279V373H373V279H279Z" fill="#E7AD7A"/>
<path fill-rule="evenodd" clip-rule="evenodd" d="M279 280H187V372H279V280ZM186 279V373H280V279H186Z" fill="#E7AD7A"/>
<path fill-rule="evenodd" clip-rule="evenodd" d="M186 280H94V372H186V280ZM93 279V373H187V279H93Z" fill="#E7AD7A"/>
<path fill-rule="evenodd" clip-rule="evenodd" d="M93 280H1V372H93V280ZM0 279V373H94V279H0Z" fill="#E7AD7A"/>
<path fill-rule="evenodd" clip-rule="evenodd" d="M372 373H280V465H372V373ZM279 372V466H373V372H279Z" fill="#E7AD7A"/>
<path fill-rule="evenodd" clip-rule="evenodd" d="M279 373H187V465H279V373ZM186 372V466H280V372H186Z" fill="#E7AD7A"/>
<path fill-rule="evenodd" clip-rule="evenodd" d="M186 373H94V465H186V373ZM93 372V466H187V372H93Z" fill="#E7AD7A"/>
<path fill-rule="evenodd" clip-rule="evenodd" d="M93 373H1V465H93V373ZM0 372V466H94V372H0Z" fill="#E7AD7A"/>
<path fill-rule="evenodd" clip-rule="evenodd" d="M372 466H280V558H372V466ZM279 465V559H373V465L279 465Z" fill="#E7AD7A"/>
<path fill-rule="evenodd" clip-rule="evenodd" d="M279 466H187V558H279V466ZM186 465V559H280V465H186Z" fill="#E7AD7A"/>
<path fill-rule="evenodd" clip-rule="evenodd" d="M186 466H94V558H186V466ZM93 465V559H187V465H93Z" fill="#E7AD7A"/>
<path fill-rule="evenodd" clip-rule="evenodd" d="M93 466H1V558H93V466ZM0 465V559H94V465H0Z" fill="#E7AD7A"/>
<path fill-rule="evenodd" clip-rule="evenodd" d="M372 559H280V651H372V559ZM279 558V652H373V558H279Z" fill="#E7AD7A"/>
<path fill-rule="evenodd" clip-rule="evenodd" d="M279 559H187V651H279V559ZM186 558V652H280V558H186Z" fill="#E7AD7A"/>
<path fill-rule="evenodd" clip-rule="evenodd" d="M186 559H94V651H186V559ZM93 558V652H187V558H93Z" fill="#E7AD7A"/>
<path fill-rule="evenodd" clip-rule="evenodd" d="M93 559H1V651H93V559ZM0 558V652H94V558H0Z" fill="#E7AD7A"/>
<path fill-rule="evenodd" clip-rule="evenodd" d="M372 652H280V744H372V652ZM279 651V745H373V651H279Z" fill="#E7AD7A"/>
<path fill-rule="evenodd" clip-rule="evenodd" d="M279 652H187V744H279V652ZM186 651V745H280V651H186Z" fill="#E7AD7A"/>
<path fill-rule="evenodd" clip-rule="evenodd" d="M186 652H94V744H186V652ZM93 651V745H187V651H93Z" fill="#E7AD7A"/>
<path fill-rule="evenodd" clip-rule="evenodd" d="M93 652H1V744H93V652ZM0 651V745H94V651H0Z" fill="#E7AD7A"/>
<path fill-rule="evenodd" clip-rule="evenodd" d="M293.473 108.473C285.082 116.864 280.268 128.162 280.011 140L371.989 140C371.732 128.162 366.918 116.864 358.527 108.473C349.9 99.8464 338.2 95 326 95C313.8 95 302.1 99.8464 293.473 108.473ZM372.989 140C372.732 127.897 367.812 116.344 359.234 107.766C350.42 98.9518 338.465 94 326 94C313.535 94 301.58 98.9518 292.766 107.766C284.188 116.344 279.268 127.897 279.011 140C279.004 140.333 279 140.666 279 141L373 141C373 140.666 372.996 140.333 372.989 140Z" fill="#E7AD7A"/>
<path fill-rule="evenodd" clip-rule="evenodd" d="M107.473 108.473C99.0824 116.864 94.268 128.162 94.0109 140L185.989 140C185.732 128.162 180.918 116.864 172.527 108.473C163.9 99.8464 152.2 95 140 95C127.8 95 116.1 99.8464 107.473 108.473ZM186.989 140C186.732 127.897 181.812 116.344 173.234 107.766C164.42 98.9518 152.465 94 140 94C127.535 94 115.58 98.9518 106.766 107.766C98.1877 116.344 93.2679 127.897 93.0106 140C93.0036 140.333 93 140.666 93 141L187 141C187 140.666 186.996 140.333 186.989 140Z" fill="#E7AD7A"/>
<path fill-rule="evenodd" clip-rule="evenodd" d="M265.527 172.527C273.918 164.136 278.732 152.838 278.989 141L187.011 141C187.268 152.838 192.082 164.136 200.473 172.527C209.1 181.154 220.8 186 233 186C245.2 186 256.9 181.154 265.527 172.527ZM186.011 141C186.268 153.103 191.188 164.656 199.766 173.234C208.58 182.048 220.535 187 233 187C245.465 187 257.42 182.048 266.234 173.234C274.812 164.656 279.732 153.103 279.989 141C279.996 140.667 280 140.334 280 140L186 140C186 140.334 186.004 140.667 186.011 141Z" fill="#E7AD7A"/>
<path fill-rule="evenodd" clip-rule="evenodd" d="M293.473 665.473C285.082 673.864 280.268 685.162 280.011 697H371.989C371.732 685.162 366.918 673.864 358.527 665.473C349.9 656.846 338.2 652 326 652C313.8 652 302.1 656.846 293.473 665.473ZM372.989 697C372.732 684.897 367.812 673.344 359.234 664.766C350.42 655.952 338.465 651 326 651C313.535 651 301.58 655.952 292.766 664.766C284.188 673.344 279.268 684.897 279.011 697C279.004 697.333 279 697.666 279 698H373C373 697.666 372.996 697.333 372.989 697Z" fill="#E7AD7A"/>
<path fill-rule="evenodd" clip-rule="evenodd" d="M265.527 729.527C273.918 721.136 278.732 709.838 278.989 698H187.011C187.268 709.838 192.082 721.136 200.473 729.527C209.1 738.154 220.8 743 233 743C245.2 743 256.9 738.154 265.527 729.527ZM186.011 698C186.268 710.103 191.188 721.656 199.766 730.234C208.58 739.048 220.535 744 233 744C245.465 744 257.42 739.048 266.234 730.234C274.812 721.656 279.732 710.103 279.989 698C279.996 697.667 280 697.334 280 697H186C186 697.334 186.004 697.667 186.011 698Z" fill="#E7AD7A"/>
<path fill-rule="evenodd" clip-rule="evenodd" d="M107.473 665.473C99.0824 673.864 94.268 685.162 94.0109 697H185.989C185.732 685.162 180.918 673.864 172.527 665.473C163.9 656.846 152.2 652 140 652C127.8 652 116.1 656.846 107.473 665.473ZM186.989 697C186.732 684.897 181.812 673.344 173.234 664.766C164.42 655.952 152.465 651 140 651C127.535 651 115.58 655.952 106.766 664.766C98.1877 673.344 93.2679 684.897 93.0106 697C93.0036 697.333 93 697.666 93 698H187C187 697.666 186.996 697.333 186.989 697Z" fill="#E7AD7A"/>
<path fill-rule="evenodd" clip-rule="evenodd" d="M79.5269 729.527C87.9176 721.136 92.732 709.838 92.9891 698H1.01086C1.26797 709.838 6.0824 721.136 14.4731 729.527C23.0998 738.154 34.8 743 47 743C59.2 743 70.9002 738.154 79.5269 729.527ZM0.0106277 698C0.267906 710.103 5.18774 721.656 13.766 730.234C22.5802 739.048 34.5348 744 47 744C59.4652 744 71.4198 739.048 80.234 730.234C88.8123 721.656 93.7321 710.103 93.9894 698C93.9964 697.667 94 697.334 94 697H0C0 697.334 0.00354767 697.667 0.0106277 698Z" fill="#E7AD7A"/>
<path fill-rule="evenodd" clip-rule="evenodd" d="M233 1H187V47H233V1ZM186 0V48H234V0H186Z" fill="#E7AD7A"/>
<path fill-rule="evenodd" clip-rule="evenodd" d="M265.527 14.4731C257.136 6.08239 245.838 1.26797 234 1.01086L234 92.9891C245.838 92.732 257.136 87.9176 265.527 79.5269C274.154 70.9002 279 59.1999 279 47C279 34.8 274.154 23.0998 265.527 14.4731ZM234 93.9894C246.103 93.7321 257.656 88.8122 266.234 80.234C275.048 71.4198 280 59.4652 280 47C280 34.5348 275.048 22.5802 266.234 13.766C257.656 5.18774 246.103 0.267905 234 0.0106264C233.667 0.0035491 233.334 0 233 0L233 94C233.334 94 233.667 93.9965 234 93.9894Z" fill="#E7AD7A"/>
<path fill-rule="evenodd" clip-rule="evenodd" d="M110.603 237.502C105.331 235.317 99.7001 234.135 94 234.011V279H138.989C138.865 273.3 137.683 267.669 135.498 262.397C133.187 256.816 129.798 251.745 125.527 247.473C121.255 243.202 116.184 239.813 110.603 237.502ZM139.989 279C139.865 273.169 138.657 267.408 136.422 262.014C134.06 256.312 130.598 251.13 126.234 246.766C121.87 242.402 116.688 238.94 110.986 236.578C105.592 234.343 99.8315 233.135 94 233.011C93.6669 233.004 93.3335 233 93 233V280H140C140 279.666 139.996 279.333 139.989 279Z" fill="#E7AD7A"/>
<path fill-rule="evenodd" clip-rule="evenodd" d="M297.295 236.54C291.961 234.33 286.266 233.135 280.5 233.011V278.5H325.989C325.865 272.734 324.67 267.039 322.46 261.705C320.124 256.064 316.698 250.937 312.38 246.62C308.063 242.302 302.936 238.876 297.295 236.54ZM326.989 278.5C326.865 272.603 325.644 266.777 323.384 261.323C320.997 255.56 317.498 250.323 313.088 245.912C308.677 241.502 303.44 238.003 297.677 235.616C292.223 233.356 286.397 232.135 280.5 232.011C280.167 232.004 279.834 232 279.5 232V279.5H327C327 279.166 326.996 278.833 326.989 278.5Z" fill="#E7AD7A"/>
<path fill-rule="evenodd" clip-rule="evenodd" d="M143.663 262.408C141.466 267.675 140.269 273.303 140.131 279.002L185.12 279.115L185.232 234.126C179.532 234.236 173.898 235.404 168.62 237.575C163.033 239.873 157.954 243.248 153.672 247.509C149.39 251.77 145.989 256.833 143.663 262.408ZM185.235 233.126C179.403 233.235 173.64 234.429 168.24 236.65C162.532 238.998 157.342 242.447 152.966 246.8C148.591 251.154 145.116 256.326 142.74 262.023C140.492 267.411 139.269 273.169 139.131 279C139.123 279.333 139.118 279.666 139.117 280L186.117 280.117L186.235 233.117C185.901 233.117 185.568 233.119 185.235 233.126Z" fill="#E7AD7A"/>
<path fill-rule="evenodd" clip-rule="evenodd" d="M330.663 262.408C328.466 267.675 327.269 273.303 327.131 279.002L372.12 279.115L372.232 234.126C366.532 234.236 360.899 235.404 355.62 237.575C350.034 239.873 344.954 243.248 340.672 247.509C336.39 251.77 332.989 256.833 330.663 262.408ZM372.235 233.126C366.403 233.235 360.64 234.429 355.24 236.65C349.532 238.998 344.342 242.447 339.967 246.8C335.591 251.154 332.117 256.326 329.74 262.023C327.492 267.411 326.269 273.169 326.131 279C326.123 279.333 326.119 279.666 326.118 280L373 280V268.75V257.5V244.75L372.5 233C371.765 232.883 372.568 233.119 372.235 233.126Z" fill="#E7AD7A"/>
<path fill-rule="evenodd" clip-rule="evenodd" d="M262.397 228.498C267.669 230.683 273.3 231.865 279 231.989V187H234.011C234.135 192.7 235.317 198.331 237.502 203.603C239.813 209.184 243.202 214.255 247.473 218.527C251.745 222.798 256.816 226.187 262.397 228.498ZM233.011 187C233.004 186.667 233 186.334 233 186H280V233C279.666 233 279.333 232.996 279 232.989C273.169 232.865 267.408 231.657 262.014 229.422C256.312 227.06 251.13 223.598 246.766 219.234C242.402 214.87 238.94 209.688 236.578 203.986C234.343 198.592 233.135 192.831 233.011 187Z" fill="#E7AD7A"/>
<path fill-rule="evenodd" clip-rule="evenodd" d="M23.5 69C35.9264 69 46 58.9264 46 46.5C46 34.0736 35.9264 24 23.5 24C11.0736 24 1 34.0736 1 46.5C1 58.9264 11.0736 69 23.5 69ZM23.5 70C36.4787 70 47 59.4787 47 46.5C47 33.5213 36.4787 23 23.5 23C10.5213 23 0 33.5213 0 46.5C0 59.4787 10.5213 70 23.5 70Z" fill="#E7AD7A"/>
<path fill-rule="evenodd" clip-rule="evenodd" d="M93 1.01087C87.2999 1.13481 81.6694 2.31746 76.3966 4.50154C70.8156 6.81326 65.7446 10.2016 61.4731 14.4731C57.2016 18.7446 53.8133 23.8156 51.5015 29.3966C49.1898 34.9775 48 40.9592 48 47C48 53.0408 49.1898 59.0225 51.5015 64.6034C53.8133 70.1844 57.2016 75.2554 61.4731 79.5269C65.7446 83.7984 70.8156 87.1867 76.3966 89.4985C81.6694 91.6825 87.2999 92.8652 93 92.9891V1.01087ZM93 0.0106388C87.1685 0.134734 81.408 1.34333 76.0139 3.57766C70.3116 5.93963 65.1303 9.40163 60.766 13.766C56.4016 18.1303 52.9396 23.3116 50.5777 29.0139C48.2157 34.7162 47 40.8279 47 47C47 53.1721 48.2157 59.2838 50.5777 64.9861C52.9396 70.6884 56.4016 75.8697 60.766 80.234C65.1303 84.5984 70.3116 88.0604 76.0139 90.4223C81.408 92.6567 87.1685 93.8653 93 93.9894C93.3331 93.9965 93.6665 94 94 94V0C93.6665 0 93.3331 0.00354992 93 0.0106388Z" fill="#E7AD7A"/>
<path fill-rule="evenodd" clip-rule="evenodd" d="M1.01087 141C1.13481 146.7 2.31746 152.331 4.50154 157.603C6.81326 163.184 10.2016 168.255 14.4731 172.527C18.7446 176.798 23.8156 180.187 29.3966 182.498C34.9775 184.81 40.9592 186 47 186C53.0408 186 59.0225 184.81 64.6034 182.498C70.1844 180.187 75.2554 176.798 79.5269 172.527C83.7984 168.255 87.1867 163.184 89.4985 157.603C91.6825 152.331 92.8652 146.7 92.9891 141H1.01087ZM0.0106388 141C0.134734 146.831 1.34333 152.592 3.57766 157.986C5.93963 163.688 9.40163 168.87 13.766 173.234C18.1303 177.598 23.3116 181.06 29.0139 183.422C34.7162 185.784 40.8279 187 47 187C53.1721 187 59.2838 185.784 64.9861 183.422C70.6884 181.06 75.8697 177.598 80.234 173.234C84.5984 168.87 88.0604 163.688 90.4223 157.986C92.6567 152.592 93.8653 146.831 93.9894 141C93.9965 140.667 94 140.334 94 140H0C0 140.334 0.00354992 140.667 0.0106388 141Z" fill="#E7AD7A"/>
<path fill-rule="evenodd" clip-rule="evenodd" d="M173.071 523.432C173.034 504.931 158.006 489.962 139.504 489.999C121.003 490.036 106.034 505.064 106.071 523.566C106.108 542.067 121.137 557.036 139.638 556.999C158.14 556.962 173.108 541.934 173.071 523.432ZM174.071 523.43C174.033 504.376 158.556 488.961 139.502 488.999C120.448 489.037 105.033 504.514 105.071 523.568C105.109 542.622 120.586 558.037 139.64 557.999C158.694 557.961 174.109 542.484 174.071 523.43Z" fill="#E7AD7A"/>
<path fill-rule="evenodd" clip-rule="evenodd" d="M92.9671 466.092C93.1024 471.792 94.2964 477.42 96.491 482.688C98.8138 488.265 102.212 493.329 106.492 497.592C110.772 501.855 115.85 505.233 121.436 507.534C127.021 509.834 133.005 511.012 139.046 511C145.087 510.988 151.066 509.786 156.643 507.463C162.219 505.14 167.283 501.742 171.546 497.462C175.809 493.182 179.187 488.104 181.488 482.519C183.661 477.241 184.833 471.608 184.945 465.908L92.9671 466.092ZM91.9669 466.094C92.1026 471.925 93.3227 477.683 95.5679 483.073C97.9412 488.771 101.414 493.945 105.787 498.3C110.16 502.656 115.348 506.108 121.055 508.458C126.762 510.809 132.876 512.012 139.048 512C145.22 511.988 151.329 510.76 157.027 508.386C162.725 506.013 167.899 502.541 172.255 498.168C176.61 493.795 180.062 488.606 182.412 482.899C184.636 477.501 185.833 471.738 185.945 465.906C185.952 465.573 185.955 465.24 185.954 464.906L91.9543 465.094C91.9549 465.428 91.9591 465.761 91.9669 466.094Z" fill="#E7AD7A"/>
<path fill-rule="evenodd" clip-rule="evenodd" d="M360.211 523.526C360.174 505.024 345.145 490.056 326.644 490.093C308.142 490.13 293.174 505.158 293.211 523.66C293.248 542.161 308.276 557.13 326.778 557.093C345.279 557.056 360.248 542.027 360.211 523.526ZM361.211 523.524C361.173 504.47 345.696 489.055 326.642 489.093C307.588 489.131 292.173 504.608 292.211 523.662C292.249 542.715 307.726 558.131 326.78 558.093C345.833 558.055 361.249 542.578 361.211 523.524Z" fill="#E7AD7A"/>
<path fill-rule="evenodd" clip-rule="evenodd" d="M280.107 466.186C280.242 471.886 281.436 477.514 283.631 482.782C285.953 488.359 289.352 493.423 293.632 497.686C297.912 501.949 302.99 505.327 308.575 507.627C314.161 509.928 320.145 511.106 326.186 511.094C332.227 511.082 338.206 509.88 343.782 507.557C349.359 505.234 354.423 501.836 358.686 497.556C362.949 493.276 366.327 488.198 368.627 482.612C370.801 477.335 371.972 471.702 372.085 466.002L280.107 466.186ZM279.107 466.188C279.242 472.019 280.462 477.777 282.708 483.167C285.081 488.864 288.553 494.039 292.926 498.394C297.299 502.75 302.488 506.201 308.195 508.552C313.902 510.903 320.016 512.106 326.188 512.094C332.36 512.081 338.469 510.854 344.167 508.48C349.864 506.107 355.039 502.634 359.394 498.261C363.75 493.888 367.201 488.7 369.552 482.993C371.776 477.595 372.888 471.832 373 466C373.006 465.667 373.001 465.334 373 465L279.094 465.188C279.095 465.521 279.099 465.855 279.107 466.188Z" fill="#E7AD7A"/>
<path fill-rule="evenodd" clip-rule="evenodd" d="M94 92.9891C99.7001 92.8652 105.331 91.6825 110.603 89.4985C116.184 87.1867 121.255 83.7984 125.527 79.5269C129.798 75.2554 133.187 70.1844 135.498 64.6034C137.81 59.0225 139 53.0408 139 47C139 40.9592 137.81 34.9775 135.498 29.3966C133.187 23.8156 129.798 18.7446 125.527 14.4731C121.255 10.2016 116.184 6.81326 110.603 4.50154C105.331 2.31746 99.7001 1.13481 94 1.01087V92.9891ZM94 93.9894C99.8315 93.8653 105.592 92.6567 110.986 90.4223C116.688 88.0604 121.87 84.5984 126.234 80.234C130.598 75.8697 134.06 70.6884 136.422 64.9861C138.784 59.2838 140 53.1721 140 47C140 40.8279 138.784 34.7162 136.422 29.0139C134.06 23.3116 130.598 18.1303 126.234 13.766C121.87 9.40163 116.688 5.93963 110.986 3.57766C105.592 1.34333 99.8315 0.134734 94 0.0106388C93.6669 0.00354991 93.3335 0 93 0V94C93.3335 94 93.6669 93.9965 94 93.9894Z" fill="#E7AD7A"/>
<path fill-rule="evenodd" clip-rule="evenodd" d="M156 77C172.569 77 186 63.5685 186 47C186 30.4315 172.569 17 156 17C139.431 17 126 30.4315 126 47C126 63.5685 139.431 77 156 77ZM156 78C173.121 78 187 64.1208 187 47C187 29.8792 173.121 16 156 16C138.879 16 125 29.8792 125 47C125 64.1208 138.879 78 156 78Z" fill="#E7AD7A"/>
<path fill-rule="evenodd" clip-rule="evenodd" d="M94 371.989C99.7001 371.865 105.331 370.683 110.603 368.498C116.184 366.187 121.255 362.798 125.527 358.527C129.798 354.255 133.187 349.184 135.498 343.603C137.81 338.022 139 332.041 139 326C139 319.959 137.81 313.978 135.498 308.397C133.187 302.816 129.798 297.745 125.527 293.473C121.255 289.202 116.184 285.813 110.603 283.502C105.331 281.317 99.7001 280.135 94 280.011V371.989ZM94 372.989C99.8315 372.865 105.592 371.657 110.986 369.422C116.688 367.06 121.87 363.598 126.234 359.234C130.598 354.87 134.06 349.688 136.422 343.986C138.784 338.284 140 332.172 140 326C140 319.828 138.784 313.716 136.422 308.014C134.06 302.312 130.598 297.13 126.234 292.766C121.87 288.402 116.688 284.94 110.986 282.578C105.592 280.343 99.8315 279.135 94 279.011C93.6669 279.004 93.3335 279 93 279V373C93.3335 373 93.6669 372.996 94 372.989Z" fill="#E7AD7A"/>
<path fill-rule="evenodd" clip-rule="evenodd" d="M156 356C172.569 356 186 342.569 186 326C186 309.431 172.569 296 156 296C139.431 296 126 309.431 126 326C126 342.569 139.431 356 156 356ZM156 357C173.121 357 187 343.121 187 326C187 308.879 173.121 295 156 295C138.879 295 125 308.879 125 326C125 343.121 138.879 357 156 357Z" fill="#E7AD7A"/>
<path fill-rule="evenodd" clip-rule="evenodd" d="M280 371.989C285.7 371.865 291.331 370.683 296.603 368.498C302.184 366.187 307.255 362.798 311.527 358.527C315.798 354.255 319.187 349.184 321.498 343.603C323.81 338.022 325 332.041 325 326C325 319.959 323.81 313.978 321.498 308.397C319.187 302.816 315.798 297.745 311.527 293.473C307.255 289.202 302.184 285.813 296.603 283.502C291.331 281.317 285.7 280.135 280 280.011V371.989ZM280 372.989C285.831 372.865 291.592 371.657 296.986 369.422C302.688 367.06 307.87 363.598 312.234 359.234C316.598 354.87 320.06 349.688 322.422 343.986C324.784 338.284 326 332.172 326 326C326 319.828 324.784 313.716 322.422 308.014C320.06 302.312 316.598 297.13 312.234 292.766C307.87 288.402 302.688 284.94 296.986 282.578C291.592 280.343 285.831 279.135 280 279.011C279.667 279.004 279.334 279 279 279V373C279.334 373 279.667 372.996 280 372.989Z" fill="#E7AD7A"/>
<path fill-rule="evenodd" clip-rule="evenodd" d="M342 356C358.569 356 372 342.569 372 326C372 309.431 358.569 296 342 296C325.431 296 312 309.431 312 326C312 342.569 325.431 356 342 356ZM342 357C359.121 357 373 343.121 373 326C373 308.879 359.121 295 342 295C324.879 295 311 308.879 311 326C311 343.121 324.879 357 342 357Z" fill="#E7AD7A"/>
<path fill-rule="evenodd" clip-rule="evenodd" d="M326.5 92C351.629 92 372 71.629 372 46.5C372 21.371 351.629 1 326.5 1C301.371 1 281 21.371 281 46.5C281 71.629 301.371 92 326.5 92ZM326.5 93C352.181 93 373 72.1812 373 46.5C373 20.8188 352.181 0 326.5 0C300.819 0 280 20.8188 280 46.5C280 72.1812 300.819 93 326.5 93Z" fill="#E7AD7A"/>
<path fill-rule="evenodd" clip-rule="evenodd" d="M233 559H187V606H233V559ZM186 558V607H234V558H186Z" fill="#E7AD7A"/>
<path fill-rule="evenodd" clip-rule="evenodd" d="M265.527 572.473C257.136 564.082 245.838 559.268 234 559.011L234 650.989C245.838 650.732 257.136 645.918 265.527 637.527C274.154 628.9 279 617.2 279 605C279 592.8 274.154 581.1 265.527 572.473ZM234 651.989C246.103 651.732 257.656 646.812 266.234 638.234C275.048 629.42 280 617.465 280 605C280 592.535 275.048 580.58 266.234 571.766C257.656 563.188 246.103 558.268 234 558.011C233.667 558.004 233.334 558 233 558L233 652C233.334 652 233.667 651.996 234 651.989Z" fill="#E7AD7A"/>
<path fill-rule="evenodd" clip-rule="evenodd" d="M24 627.255C36.2883 627.255 46.25 617.294 46.25 605.005C46.25 592.717 36.2883 582.755 24 582.755C11.7117 582.755 1.75 592.717 1.75 605.005C1.75 617.294 11.7117 627.255 24 627.255ZM24 628.255C36.8406 628.255 47.25 617.846 47.25 605.005C47.25 592.165 36.8406 581.755 24 581.755C11.1594 581.755 0.75 592.165 0.75 605.005C0.75 617.846 11.1594 628.255 24 628.255Z" fill="#E7AD7A"/>
<path fill-rule="evenodd" clip-rule="evenodd" d="M92.75 560.011C87.1156 560.135 81.5501 561.305 76.3379 563.464C70.8176 565.75 65.8017 569.102 61.5766 573.327C57.3516 577.552 54.0001 582.568 51.7135 588.088C49.4269 593.608 48.25 599.525 48.25 605.5C48.25 611.475 49.4269 617.392 51.7135 622.912C54.0001 628.432 57.3516 633.448 61.5766 637.673C65.8017 641.898 70.8176 645.25 76.3379 647.536C81.5501 649.695 87.1156 650.865 92.75 650.989V560.011ZM92.75 559.011C86.9842 559.135 81.2887 560.33 75.9552 562.54C70.3136 564.876 65.1875 568.302 60.8695 572.62C56.5516 576.937 53.1264 582.064 50.7896 587.705C48.4528 593.347 47.25 599.394 47.25 605.5C47.25 611.606 48.4528 617.653 50.7896 623.295C53.1264 628.936 56.5516 634.063 60.8695 638.38C65.1875 642.698 70.3136 646.124 75.9552 648.46C81.2887 650.67 86.9842 651.865 92.75 651.989C93.0831 651.996 93.4165 652 93.75 652V559C93.4165 559 93.0831 559.004 92.75 559.011Z" fill="#E7AD7A"/>
<path fill-rule="evenodd" clip-rule="evenodd" d="M94.25 650.989C99.8844 650.865 105.45 649.695 110.662 647.536C116.182 645.25 121.198 641.898 125.423 637.673C129.648 633.448 133 628.432 135.287 622.912C137.573 617.392 138.75 611.475 138.75 605.5C138.75 599.525 137.573 593.608 135.287 588.088C133 582.568 129.648 577.552 125.423 573.327C121.198 569.102 116.182 565.75 110.662 563.464C105.45 561.305 99.8844 560.135 94.25 560.011V650.989ZM94.25 651.989C100.016 651.865 105.711 650.67 111.045 648.46C116.686 646.124 121.813 642.698 126.13 638.38C130.448 634.063 133.874 628.936 136.21 623.295C138.547 617.653 139.75 611.606 139.75 605.5C139.75 599.394 138.547 593.347 136.21 587.705C133.874 582.064 130.448 576.937 126.13 572.62C121.813 568.302 116.686 564.876 111.045 562.54C105.711 560.33 100.016 559.135 94.25 559.011C93.9169 559.004 93.5835 559 93.25 559V652C93.5835 652 93.9169 651.996 94.25 651.989Z" fill="#E7AD7A"/>
<path fill-rule="evenodd" clip-rule="evenodd" d="M155.58 635.17C171.966 635.17 185.25 621.886 185.25 605.5C185.25 589.114 171.966 575.83 155.58 575.83C139.193 575.83 125.91 589.114 125.91 605.5C125.91 621.886 139.193 635.17 155.58 635.17ZM155.58 636.17C172.518 636.17 186.25 622.439 186.25 605.5C186.25 588.561 172.518 574.83 155.58 574.83C138.641 574.83 124.91 588.561 124.91 605.5C124.91 622.439 138.641 636.17 155.58 636.17Z" fill="#E7AD7A"/>
<path fill-rule="evenodd" clip-rule="evenodd" d="M326.5 651C351.629 651 372 630.629 372 605.5C372 580.371 351.629 560 326.5 560C301.371 560 281 580.371 281 605.5C281 630.629 301.371 651 326.5 651ZM326.5 652C352.181 652 373 631.181 373 605.5C373 579.819 352.181 559 326.5 559C300.819 559 280 579.819 280 605.5C280 631.181 300.819 652 326.5 652Z" fill="#E7AD7A"/>
<path fill-rule="evenodd" clip-rule="evenodd" d="M229.46 204.295C231.67 198.961 232.865 193.266 232.989 187.5H187.5V232.989C193.266 232.865 198.961 231.67 204.295 229.46C209.936 227.124 215.063 223.698 219.38 219.38C223.698 215.063 227.124 209.936 229.46 204.295ZM187.5 233.989C193.397 233.865 199.223 232.644 204.677 230.384C210.44 227.997 215.677 224.498 220.088 220.088C224.498 215.677 227.997 210.44 230.384 204.677C232.644 199.223 233.865 193.397 233.989 187.5C233.996 187.167 234 186.834 234 186.5H186.5V234C186.834 234 187.167 233.996 187.5 233.989Z" fill="#E7AD7A"/>
<path fill-rule="evenodd" clip-rule="evenodd" d="M76.3966 228.498C81.6694 230.683 87.2999 231.865 93 231.989V187H48.0109C48.1348 192.7 49.3175 198.331 51.5015 203.603C53.8133 209.184 57.2016 214.255 61.4731 218.527C65.7446 222.798 70.8156 226.187 76.3966 228.498ZM47.0106 187C47.0035 186.667 47 186.334 47 186H94V233C93.6665 233 93.3331 232.996 93 232.989C87.1685 232.865 81.408 231.657 76.0139 229.422C70.3116 227.06 65.1303 223.598 60.766 219.234C56.4016 214.87 52.9396 209.688 50.5777 203.986C48.3433 198.592 47.1347 192.831 47.0106 187Z" fill="#E7AD7A"/>
<path fill-rule="evenodd" clip-rule="evenodd" d="M43.4618 203.6C45.6688 198.328 46.8637 192.699 46.989 187H1.49995L1.49994 231.989C7.26716 231.867 12.9639 230.683 18.2982 228.497C23.9406 226.184 29.0667 222.795 33.3842 218.523C37.7016 214.251 41.1258 209.18 43.4618 203.6ZM1.49994 232.99C7.39706 232.867 13.2226 231.658 18.6774 229.422C24.4404 227.06 29.6767 223.598 34.0875 219.234C38.4983 214.87 41.9971 209.688 44.3842 203.986C46.6423 198.592 47.8638 192.831 47.9892 187C47.9964 186.667 47.9999 186.334 47.9999 186H0.499947L0.499939 233C0.833466 233 1.16682 232.997 1.49994 232.99Z" fill="#E7AD7A"/>
<path fill-rule="evenodd" clip-rule="evenodd" d="M14 407.5C14 426.002 28.9985 441 47.5 441C66.0015 441 81 426.002 81 407.5C81 388.998 66.0015 374 47.5 374C28.9985 374 14 388.998 14 407.5ZM13 407.5C13 426.554 28.4462 442 47.5 442C66.5538 442 82 426.554 82 407.5C82 388.446 66.5538 373 47.5 373C28.4462 373 13 388.446 13 407.5Z" fill="#E7AD7A"/>
<path fill-rule="evenodd" clip-rule="evenodd" d="M14.4731 433.473C6.08239 441.864 1.26797 453.162 1.01086 465L92.9891 465C92.732 453.162 87.9176 441.864 79.5269 433.473C70.9002 424.846 59.1999 420 47 420C34.8 420 23.0998 424.846 14.4731 433.473ZM93.9894 465C93.9964 465.333 94 465.666 94 466H0C0 465.666 0.00354767 465.333 0.0106277 465C0.267906 452.897 5.18774 441.344 13.766 432.766C22.5802 423.952 34.5348 419 47 419C59.4652 419 71.4198 423.952 80.234 432.766C88.8122 441.344 93.7321 452.897 93.9894 465Z" fill="#E7AD7A"/>
<path fill-rule="evenodd" clip-rule="evenodd" d="M200 407.5C200 426.002 214.998 441 233.5 441C252.002 441 267 426.002 267 407.5C267 388.998 252.002 374 233.5 374C214.998 374 200 388.998 200 407.5ZM199 407.5C199 426.554 214.446 442 233.5 442C252.554 442 268 426.554 268 407.5C268 388.446 252.554 373 233.5 373C214.446 373 199 388.446 199 407.5Z" fill="#E7AD7A"/>
<path fill-rule="evenodd" clip-rule="evenodd" d="M200.473 433.473C192.082 441.864 187.268 453.162 187.011 465L278.989 465C278.732 453.162 273.918 441.864 265.527 433.473C256.9 424.846 245.2 420 233 420C220.8 420 209.1 424.846 200.473 433.473ZM279.989 465C279.996 465.333 280 465.666 280 466H186C186 465.666 186.004 465.333 186.011 465C186.268 452.897 191.188 441.344 199.766 432.766C208.58 423.952 220.535 419 233 419C245.465 419 257.42 423.952 266.234 432.766C274.812 441.344 279.732 452.897 279.989 465Z" fill="#E7AD7A"/>
</svg>
