<svg class="circles" width="421" height="360" viewBox="0 0 421 360" fill="none" xmlns="http://www.w3.org/2000/svg">
<path class="circle1" fill-rule="evenodd" clip-rule="evenodd" d="M210 359C308.859 359 389 278.859 389 180C389 81.141 308.859 1 210 1C111.141 1 31 81.141 31 180C31 278.859 111.141 359 210 359ZM210 360C309.411 360 390 279.411 390 180C390 80.5887 309.411 0 210 0C110.589 0 30 80.5887 30 180C30 279.411 110.589 360 210 360Z" fill="#E7AD7A"/>
<path class="circle2" fill-rule="evenodd" clip-rule="evenodd" d="M241 359C339.859 359 420 278.859 420 180C420 81.141 339.859 1 241 1C142.141 1 62 81.141 62 180C62 278.859 142.141 359 241 359ZM241 360C340.411 360 421 279.411 421 180C421 80.5887 340.411 0 241 0C141.589 0 61 80.5887 61 180C61 279.411 141.589 360 241 360Z" fill="#E7AD7A"/>
<path class="circle3" fill-rule="evenodd" clip-rule="evenodd" d="M180 359C278.859 359 359 278.859 359 180C359 81.141 278.859 1 180 1C81.141 1 1 81.141 1 180C1 278.859 81.141 359 180 359ZM180 360C279.411 360 360 279.411 360 180C360 80.5887 279.411 0 180 0C80.5887 0 0 80.5887 0 180C0 279.411 80.5887 360 180 360Z" fill="#E7AD7A"/>
</svg>
