<svg width="622" height="779" viewBox="0 0 622 779" fill="none" xmlns="http://www.w3.org/2000/svg">
<path fill-rule="evenodd" clip-rule="evenodd" d="M388.5 1.00129C337.821 1.13172 287.655 11.1764 240.827 30.5728C193.693 50.0968 150.865 78.7135 114.789 114.789C78.7135 150.865 50.0968 193.693 30.5728 240.827C11.0488 287.962 0.999998 338.481 1 389.5C1 440.519 11.0489 491.038 30.5728 538.173C50.0968 585.308 78.7135 628.135 114.789 664.211C150.865 700.287 193.693 728.903 240.828 748.427C287.655 767.824 337.821 777.868 388.5 777.999L388.5 1.00129ZM388.5 0.00128359C337.69 0.131722 287.393 10.2023 240.445 29.6489C193.188 49.2231 150.25 77.9135 114.082 114.082C77.9135 150.25 49.2231 193.188 29.6489 240.445C10.0747 287.701 0 338.35 0 389.5C0 440.65 10.0747 491.299 29.6489 538.555C49.2231 585.812 77.9135 628.75 114.082 664.918C150.25 701.086 193.189 729.777 240.445 749.351C287.393 768.798 337.69 778.868 388.5 778.999C388.833 779 389.167 779 389.5 779L389.5 0C389.167 0 388.833 0.000427915 388.5 0.00128359ZM428 777.997C453.136 777.868 478.011 772.854 501.241 763.233C524.778 753.483 546.164 739.193 564.179 721.179C582.193 703.164 596.483 681.778 606.233 658.241C615.982 634.703 621 609.476 621 584C621 558.524 615.982 533.297 606.233 509.759C596.483 486.222 582.193 464.836 564.179 446.821C546.164 428.807 524.778 414.517 501.241 404.767C478.011 395.146 453.136 390.132 428 390.003V777.997ZM428 778.997C453.268 778.868 478.273 773.829 501.623 764.156C525.282 754.357 546.778 739.993 564.886 721.886C582.993 703.778 597.357 682.282 607.156 658.623C616.956 634.965 622 609.608 622 584C622 558.392 616.956 533.035 607.156 509.377C597.357 485.718 582.993 464.222 564.886 446.114C546.778 428.007 525.282 413.643 501.623 403.843C478.273 394.171 453.268 389.132 428 389.003C427.667 389.001 427.333 389 427 389V779C427.333 779 427.667 778.999 428 778.997Z" fill="#E7AD7A"/>
</svg>
